<?xml version="1.0" standalone="no"?>
<!DOCTYPE svg PUBLIC "-//W3C//DTD SVG 20010904//EN"
 "http://www.w3.org/TR/2001/REC-SVG-20010904/DTD/svg10.dtd">
<svg version="1.0" xmlns="http://www.w3.org/2000/svg"
 width="1200.000000pt" height="800.000000pt" viewBox="0 0 1200.000000 800.000000"
 preserveAspectRatio="xMidYMid meet">

<g transform="translate(0.000000,800.000000) scale(0.100000,-0.100000)"
fill="#000000" stroke="none">
<path d="M2744 7749 c-23 -5 -50 -20 -61 -32 -24 -26 -45 -85 -37 -99 4 -6 8
-33 10 -61 2 -28 11 -77 19 -109 8 -33 15 -68 15 -79 0 -10 10 -38 21 -63 39
-79 11 -91 -137 -60 -42 8 -88 14 -102 12 l-27 -4 25 -11 c14 -6 34 -15 45
-19 12 -5 -32 -11 -115 -14 -134 -7 -170 -13 -170 -32 0 -6 34 -7 89 -3 143
12 192 -13 61 -30 -30 -4 -65 -13 -77 -21 -12 -8 -31 -14 -42 -14 -35 0 -131
-41 -131 -56 0 -18 29 -18 66 0 16 7 43 16 59 20 l30 6 -25 -15 c-14 -8 -33
-14 -42 -15 -10 0 -32 -13 -50 -28 -18 -16 -60 -41 -93 -56 -33 -16 -67 -32
-75 -36 -8 -5 -64 -34 -125 -66 -119 -61 -310 -182 -302 -190 2 -3 33 6 68 20
34 14 64 24 66 22 2 -2 -18 -17 -44 -35 -58 -37 -109 -88 -122 -123 -5 -14
-37 -44 -71 -67 -112 -77 -244 -180 -302 -236 -31 -30 -61 -55 -67 -55 -6 0
-11 -9 -11 -20 0 -36 30 -22 103 49 142 136 277 237 277 206 0 -3 -37 -50 -82
-104 -83 -99 -129 -155 -267 -325 -41 -50 -93 -113 -117 -139 -44 -48 -53 -67
-34 -67 13 0 112 105 153 163 42 59 118 140 124 133 3 -3 -6 -21 -21 -40 -14
-19 -26 -39 -26 -44 0 -5 -6 -15 -14 -21 -8 -7 -18 -26 -21 -43 -4 -16 -18
-39 -31 -51 -13 -11 -24 -28 -24 -38 0 -9 -20 -44 -45 -77 -25 -33 -45 -63
-45 -68 0 -4 -25 -44 -55 -89 -30 -45 -55 -90 -55 -99 0 -29 28 -17 47 22 67
129 174 285 187 271 9 -8 -18 -80 -47 -125 -13 -22 -33 -64 -45 -95 -11 -31
-34 -81 -51 -113 -17 -31 -31 -67 -31 -79 0 -12 -9 -39 -20 -60 -11 -20 -20
-51 -20 -68 0 -27 2 -30 15 -19 8 7 15 19 15 28 0 9 9 34 19 56 10 23 24 58
31 79 15 47 59 127 70 127 18 0 20 -20 5 -62 -61 -164 -67 -192 -75 -348 -5
-85 -13 -174 -19 -198 -11 -43 -8 -62 9 -62 5 0 12 10 16 23 4 12 15 33 25 46
10 13 22 46 25 73 11 84 24 33 25 -102 1 -156 9 -215 29 -215 11 0 16 16 20
65 8 93 18 60 40 -130 18 -158 37 -230 59 -230 18 0 19 14 1 48 -10 22 -21 72
-25 120 -6 82 -6 82 17 78 13 -3 28 -5 33 -5 6 -1 17 -22 24 -48 26 -95 32
-112 47 -123 7 -7 14 -22 14 -34 0 -25 26 -66 42 -66 12 0 10 11 -25 128 -17
58 -21 79 -11 71 8 -6 14 -19 14 -29 0 -9 14 -44 31 -76 17 -32 43 -84 59
-115 31 -61 124 -169 146 -169 21 0 18 7 -28 61 -42 48 -66 95 -67 134 -1 15
14 4 59 -43 33 -34 65 -62 70 -62 6 0 33 -21 61 -47 38 -35 52 -44 61 -35 20
20 38 14 90 -28 28 -22 56 -40 64 -40 7 0 46 -18 86 -40 40 -22 83 -40 96 -40
16 0 22 -6 22 -21 0 -21 -2 -22 -122 -15 -68 4 -132 6 -143 5 -11 -1 -103 -3
-205 -6 -278 -6 -253 -1 -265 -50 -7 -27 -7 -88 -2 -170 5 -70 6 -506 2 -968
-10 -1212 -10 -1271 3 -1475 15 -230 14 -211 10 -235 -2 -12 3 -21 14 -23 14
-3 18 3 18 30 0 44 15 58 54 51 41 -8 52 -19 36 -37 -15 -19 -6 -46 15 -46 13
0 16 8 13 38 l-3 37 50 1 c28 1 64 5 81 9 20 4 34 3 38 -4 9 -14 53 -14 62 0
4 6 20 8 40 4 30 -5 34 -3 34 15 0 14 -6 20 -24 20 -18 0 -25 7 -30 27 -11 51
-20 869 -9 876 14 8 533 10 541 2 4 -4 -2 -14 -13 -24 -46 -39 -57 -89 -29
-129 24 -34 12 -49 -55 -68 -66 -18 -72 -34 -12 -34 31 0 42 -5 56 -26 15 -23
16 -41 10 -118 -6 -84 -9 -93 -38 -124 -35 -36 -31 -16 -55 -292 -4 -47 -11
-90 -15 -97 -5 -7 0 -16 13 -23 11 -6 20 -20 20 -32 0 -17 -5 -19 -27 -15 -15
3 -33 3 -40 0 -25 -10 -13 -22 24 -25 30 -2 38 -8 43 -27 6 -24 10 -26 92 -45
19 -4 28 -13 30 -31 4 -33 20 -36 33 -7 14 31 59 27 63 -5 4 -28 28 -30 42 -3
14 26 44 25 70 -2 17 -19 24 -21 40 -10 16 10 28 9 62 -3 55 -19 53 -19 66 11
16 34 65 31 70 -4 5 -31 26 -23 30 11 3 22 11 29 44 37 51 14 66 8 70 -27 4
-38 38 -45 38 -9 0 23 4 26 34 26 28 0 35 -4 40 -25 8 -30 27 -32 51 -5 23 26
46 25 68 -1 12 -14 24 -18 35 -13 9 4 87 9 172 11 85 2 171 8 190 13 57 16
121 12 136 -7 18 -25 17 -31 -7 -38 -16 -5 -19 -12 -14 -32 3 -14 1 -31 -5
-38 -8 -9 -8 -15 0 -20 16 -10 30 4 30 29 0 13 7 29 15 36 20 17 53 -11 57
-49 3 -22 9 -27 48 -34 76 -13 352 -24 405 -15 28 4 94 10 148 13 79 4 103 9
124 25 34 26 80 27 88 0 10 -31 38 -26 32 6 -5 31 -1 33 136 65 77 19 101 21
116 12 22 -14 31 -8 31 22 0 29 51 57 119 64 45 5 55 10 53 23 -3 21 3 24 56
33 42 7 42 7 42 -24 0 -17 4 -31 9 -31 5 0 17 -3 27 -7 15 -5 16 -2 11 25 -6
28 -3 33 37 55 29 16 53 22 75 19 35 -5 39 3 14 30 -14 16 -15 21 -4 28 8 4
19 6 25 4 17 -6 40 12 32 25 -4 6 -14 11 -23 11 -12 0 -13 5 -7 23 4 12 6 45
5 72 -10 201 0 330 32 397 31 65 33 83 12 92 -13 5 -13 11 5 43 11 21 20 53
20 71 0 18 5 42 10 52 17 31 25 143 25 320 -1 182 -6 241 -23 283 -7 16 -12
33 -12 38 0 5 -4 9 -8 9 -5 0 -21 29 -37 65 -27 64 -69 109 -148 158 -15 10
-32 28 -36 40 -5 13 -16 29 -26 37 -9 7 -24 30 -34 49 -27 53 -90 170 -117
217 -28 49 -58 134 -50 142 3 3 29 -3 58 -12 152 -51 474 -114 510 -101 15 6
48 66 48 87 0 7 8 30 18 52 21 46 76 245 89 320 4 27 15 53 23 57 30 16 160
50 177 47 27 -5 40 -64 19 -86 -21 -24 -20 -30 4 -83 27 -59 26 -114 -1 -133
-18 -12 -20 -21 -16 -63 12 -105 27 -183 42 -218 8 -21 15 -45 15 -55 0 -10
13 -47 30 -82 16 -34 30 -71 30 -81 0 -11 8 -31 18 -45 11 -15 30 -54 43 -87
13 -33 34 -71 47 -85 13 -13 30 -37 38 -52 8 -16 44 -66 79 -113 36 -47 65
-89 65 -93 0 -5 11 -19 25 -32 22 -21 29 -22 45 -12 32 19 48 14 92 -30 111
-107 302 -257 398 -311 53 -29 60 -53 15 -49 -16 2 -55 5 -85 9 -38 3 -65 13
-90 32 -19 15 -58 42 -87 61 -29 18 -54 39 -57 46 -3 8 -12 14 -21 14 -8 0
-32 9 -52 20 -34 18 -38 18 -55 3 -10 -9 -18 -24 -18 -33 0 -18 91 -90 157
-125 21 -11 62 -38 90 -59 45 -34 51 -43 46 -66 -4 -24 1 -30 41 -54 29 -17
46 -34 46 -46 0 -30 -19 -34 -76 -14 -43 14 -56 16 -66 6 -17 -17 -1 -42 38
-63 16 -8 58 -34 94 -57 68 -44 116 -54 127 -26 9 23 -7 45 -50 67 -22 11 -37
26 -37 37 0 31 36 33 95 5 50 -23 59 -25 90 -14 30 11 39 10 72 -8 21 -11 52
-24 68 -27 17 -4 40 -14 52 -21 18 -12 20 -20 13 -43 -9 -34 -3 -48 25 -53 21
-4 35 -49 15 -49 -6 0 -40 -13 -75 -30 -35 -16 -74 -30 -87 -30 -13 0 -38 -9
-56 -20 -18 -11 -37 -20 -43 -20 -6 0 -29 -16 -52 -35 -23 -20 -53 -38 -67
-42 -14 -3 -29 -9 -35 -13 -5 -4 -59 -28 -120 -53 -60 -24 -132 -56 -159 -71
l-49 -26 -32 20 c-34 21 -115 28 -115 10 0 -5 -8 -10 -18 -10 -9 0 -43 -24
-75 -54 -52 -48 -57 -56 -48 -79 12 -30 6 -37 -31 -37 -23 0 -28 -4 -28 -23 0
-13 -5 -28 -11 -34 -13 -13 -4 -33 16 -33 7 0 15 10 17 23 2 18 10 23 41 25
37 3 38 2 35 -25 -3 -27 -1 -28 47 -31 165 -8 205 -1 205 38 0 25 33 51 61 48
22 -3 23 0 20 37 -1 22 -8 46 -13 53 -12 14 16 52 38 52 8 0 51 17 96 38 109
50 218 94 298 120 112 36 155 53 170 67 8 7 42 23 75 35 33 12 83 32 110 45
86 41 130 50 174 37 21 -7 50 -12 63 -12 55 0 415 -111 490 -151 10 -5 27 -9
38 -9 11 0 46 -11 78 -24 31 -13 73 -27 92 -31 19 -3 54 -15 77 -26 24 -10 48
-19 55 -19 7 0 22 -7 32 -15 11 -8 31 -15 44 -15 13 0 60 -16 105 -35 44 -19
88 -35 98 -35 10 0 21 -4 24 -10 3 -5 17 -10 31 -10 20 0 24 -5 24 -30 0 -32
23 -42 34 -15 9 26 50 17 74 -15 30 -40 28 -51 -10 -48 -50 5 -45 -13 9 -32
45 -16 48 -19 45 -48 -2 -31 4 -37 35 -33 7 1 26 -5 42 -14 40 -20 112 -19
153 3 40 21 48 30 48 59 0 15 7 23 23 25 14 2 20 9 18 18 -4 16 -4 34 1 65 2
16 -2 19 -24 17 -14 -1 -42 7 -61 18 -20 12 -59 30 -88 40 -48 18 -56 18 -82
5 -38 -19 -90 -19 -130 -1 -18 8 -54 21 -82 29 -27 9 -81 26 -120 40 -38 14
-110 37 -160 52 -49 15 -115 37 -145 50 -30 13 -69 26 -86 30 -32 6 -72 40
-61 51 3 3 38 -6 79 -20 40 -14 98 -30 128 -35 52 -9 107 -22 241 -56 30 -8
66 -15 80 -15 13 -1 42 -8 64 -16 55 -21 223 -63 320 -79 44 -7 116 -24 160
-38 44 -14 98 -29 120 -34 33 -7 40 -13 40 -33 0 -18 6 -26 23 -28 14 -2 22
-10 22 -23 0 -16 -6 -20 -27 -17 -20 2 -29 -2 -31 -14 -3 -15 4 -16 55 -13 71
4 154 -20 161 -47 6 -24 33 -23 39 2 3 11 20 24 42 31 20 6 42 16 49 22 12 10
17 131 6 161 -9 24 -65 54 -104 57 -80 6 -106 -1 -147 -36 -39 -33 -43 -34
-84 -25 -56 12 -228 56 -299 76 -30 8 -73 19 -95 24 -22 5 -66 18 -98 29 -32
11 -82 23 -110 27 -29 3 -81 14 -117 24 -36 10 -114 32 -175 48 -142 38 -256
72 -275 81 -8 4 -53 18 -100 30 -47 13 -105 30 -130 38 -25 8 -73 21 -106 29
-81 18 -114 31 -114 44 0 8 25 9 83 3 146 -14 243 -10 587 27 92 10 287 59
315 80 6 4 23 10 39 14 59 14 211 79 315 133 105 54 204 128 311 228 30 29 72
62 93 74 20 13 43 30 50 40 6 9 21 24 33 32 20 14 96 97 164 180 55 66 100
142 189 319 45 91 98 190 116 220 19 30 34 67 35 83 0 15 9 46 20 70 35 75 62
179 70 277 4 52 15 143 24 203 13 81 14 117 6 145 -5 20 -10 52 -10 70 l0 33
83 -7 c45 -5 168 -8 272 -8 148 1 198 4 226 16 33 14 99 25 197 33 30 2 156
47 171 61 2 2 -4 13 -14 24 -11 13 -31 20 -52 20 -61 0 -213 82 -388 210 -54
39 -156 83 -220 95 -22 4 -45 11 -52 17 -13 11 -226 6 -260 -6 -19 -7 -24 -2
-42 41 -11 26 -25 55 -31 63 -6 8 -21 35 -33 60 -13 25 -35 64 -50 88 -15 23
-35 57 -43 76 -16 32 -16 34 14 75 17 23 44 79 60 124 27 76 28 89 22 172 -5
59 -14 104 -27 130 -11 22 -24 54 -27 72 -4 17 -16 48 -27 69 -10 21 -19 45
-19 53 0 8 -8 23 -17 34 -13 13 -19 42 -23 100 -3 44 -9 82 -15 84 -13 4 -48
-59 -74 -132 -12 -33 -34 -76 -51 -96 -16 -21 -30 -43 -30 -49 0 -17 -64 -111
-99 -144 l-29 -28 -36 27 c-19 15 -38 35 -41 46 -4 10 -10 19 -15 19 -4 0 -29
20 -54 44 -53 52 -107 92 -220 162 -80 50 -81 51 -86 97 -4 39 -10 51 -35 67
-16 11 -37 20 -45 20 -8 0 -21 4 -29 9 -17 11 0 67 30 99 l20 22 39 -20 c54
-27 78 -26 86 5 7 27 -9 55 -32 55 -17 0 -95 42 -130 69 -15 12 -41 21 -60 21
-28 0 -33 -4 -39 -30 -8 -34 7 -60 34 -60 22 0 41 -19 41 -40 0 -9 -15 -34
-33 -55 l-34 -39 -39 32 c-42 35 -71 40 -88 16 -10 -13 -19 -11 -76 20 -36 20
-84 45 -108 57 -24 11 -59 31 -79 45 -51 34 -76 31 -96 -12 -18 -37 -11 -64
16 -64 6 0 71 -30 144 -67 l133 -66 0 -37 c0 -35 3 -38 46 -55 45 -17 46 -18
40 -53 -3 -19 -10 -40 -15 -45 -6 -6 -40 7 -93 35 -98 52 -157 75 -217 84 -36
6 -45 12 -53 35 -5 16 -15 29 -21 29 -13 0 -66 35 -130 84 -32 25 -46 29 -95
27 -83 -3 -210 -2 -347 3 -135 4 -176 -3 -230 -40 -31 -21 -42 -24 -64 -15
-57 22 -97 23 -142 3 -24 -11 -76 -25 -114 -30 -85 -12 -145 -35 -145 -57 0
-16 -100 -67 -158 -80 -17 -3 -41 -14 -54 -24 -13 -10 -38 -23 -57 -29 -54
-19 -229 -118 -311 -177 -41 -29 -84 -54 -96 -54 -13 -1 -29 12 -45 36 -54 82
-120 98 -214 50 -86 -44 -125 -106 -139 -222 -7 -56 -49 -125 -77 -125 -10 0
-38 8 -61 17 -30 12 -73 17 -153 17 -126 1 -233 -26 -288 -73 -18 -15 -44 -32
-59 -39 -16 -6 -28 -18 -28 -27 0 -21 -27 -19 -34 3 -3 9 -7 40 -10 67 l-6 50
17 -37 c20 -47 37 -50 28 -5 -11 47 -29 84 -81 157 -25 36 -40 59 -33 53 7 -7
17 -13 21 -13 17 0 6 18 -34 56 -70 66 -119 118 -130 138 -9 16 0 13 46 -12
30 -18 60 -32 66 -32 19 0 9 15 -29 44 -25 18 -37 34 -34 45 3 12 -11 27 -48
49 -58 37 -61 50 -6 27 33 -14 37 -14 37 0 0 10 -21 26 -52 39 -70 31 -126 77
-150 123 -17 31 -20 54 -19 166 2 129 15 191 48 227 11 12 17 12 31 3 41 -29
129 -78 147 -83 10 -3 22 -17 25 -30 5 -18 12 -24 26 -22 34 6 44 32 43 108
-1 74 15 129 32 103 5 -8 9 -35 9 -61 0 -68 16 -59 23 12 4 36 15 72 26 88 19
25 19 33 9 112 -6 47 -14 87 -17 90 -10 9 -61 107 -61 119 0 6 4 11 8 11 9 0
22 -24 42 -77 16 -43 45 -45 37 -3 -7 33 8 42 16 10 5 -21 27 -28 27 -9 0 16
-60 102 -81 117 -11 7 -19 19 -19 25 0 7 -9 18 -20 25 -11 7 -20 22 -20 33 0
20 -8 33 -77 120 -38 47 -41 59 -13 59 23 0 26 13 6 29 -17 14 -26 105 -15
144 7 25 28 54 100 134 39 44 116 207 122 260 6 51 5 54 -26 76 -43 31 -168
92 -242 118 -130 45 -246 58 -439 48 -201 -10 -283 -33 -403 -115 -41 -28 -82
-27 -113 1 -9 8 -32 20 -51 26 -19 7 -41 17 -49 24 -8 7 -35 16 -60 19 -25 3
-65 8 -88 12 -27 4 -48 2 -55 -5 -14 -14 -64 -14 -69 0 -2 7 -27 2 -68 -15
-35 -14 -69 -26 -75 -26 -7 0 -22 -9 -34 -19 -22 -19 -25 -19 -59 -4 -96 43
-132 62 -158 86 -16 15 -34 27 -40 27 -5 0 -19 8 -30 18 -10 9 -46 27 -79 40
-33 13 -67 27 -75 33 -40 24 -87 39 -157 50 -43 6 -100 16 -128 21 -72 14
-273 18 -321 7z m1216 -1387 c0 -5 -26 -13 -57 -19 -54 -10 -153 -41 -198 -63
-11 -6 -65 -26 -120 -44 -55 -19 -131 -46 -170 -61 -132 -50 -202 -73 -242
-80 -47 -7 -83 -39 -66 -56 8 -8 21 -8 47 1 19 6 56 13 81 15 25 2 54 7 65 10
27 9 26 -12 -5 -57 -29 -43 -49 -155 -43 -237 8 -107 71 -201 163 -245 22 -10
54 -26 70 -35 23 -12 59 -16 155 -16 131 1 195 16 278 67 41 25 57 14 66 -45
24 -148 209 -218 372 -141 35 17 74 69 74 98 0 29 28 29 86 1 49 -24 64 -27
123 -22 37 3 84 14 108 26 23 12 44 21 46 21 2 0 25 -31 50 -69 26 -37 58 -76
73 -86 14 -9 40 -33 58 -53 17 -20 41 -47 53 -59 55 -57 124 -171 143 -238 39
-135 22 -300 -46 -442 -19 -40 -34 -75 -34 -79 0 -20 -101 -120 -169 -168 -97
-69 -243 -143 -307 -157 -27 -5 -67 -15 -89 -20 -115 -30 -475 -33 -735 -5
-106 12 -296 58 -352 87 -9 5 -36 11 -60 15 -24 3 -52 12 -63 19 -11 6 -38 18
-60 25 -22 7 -46 17 -52 23 -19 14 -16 45 7 74 15 19 20 41 20 82 0 31 7 67
15 81 8 14 18 33 21 43 13 35 25 16 23 -35 -2 -31 1 -53 8 -55 15 -5 27 34 24
82 -6 107 -6 118 9 126 30 17 127 57 190 78 36 12 74 26 85 31 26 11 168 44
306 70 132 24 452 3 525 -35 16 -8 36 -15 45 -15 9 0 38 -9 65 -21 69 -30 236
-108 254 -119 8 -5 48 -28 88 -51 61 -36 76 -50 95 -90 25 -55 39 -60 63 -23
17 25 16 26 -27 70 -24 25 -71 59 -104 76 -33 16 -67 36 -75 42 -32 27 -309
154 -353 163 -18 3 -36 9 -42 13 -30 21 -252 50 -382 50 -158 0 -503 -83 -670
-161 -77 -36 -91 -36 -99 -1 -4 15 -10 32 -14 37 -7 10 -30 150 -30 183 1 35
40 -46 51 -104 11 -64 23 -84 39 -68 9 9 -2 77 -20 119 -5 11 -12 40 -16 65
-3 25 -15 61 -25 80 -11 19 -19 47 -19 61 0 15 -21 59 -48 100 -50 77 -112
200 -112 222 0 30 14 23 44 -22 18 -26 38 -61 45 -79 8 -20 20 -32 32 -32 26
0 24 15 -9 58 -16 20 -42 71 -57 112 -16 41 -41 91 -56 110 -34 45 -71 118
-67 132 2 6 21 -19 42 -55 50 -86 103 -144 117 -130 8 8 2 23 -18 53 -50 76
-60 97 -138 313 -19 55 -16 169 7 247 20 69 77 160 106 171 14 5 167 13 341
16 217 4 327 10 351 19 39 14 120 18 120 6z m303 -12 c49 -5 94 -13 100 -17 6
-3 54 -10 107 -14 90 -7 109 -13 251 -74 162 -70 259 -126 259 -150 0 -7 -9
-29 -19 -47 -10 -18 -46 -116 -80 -217 -44 -132 -60 -192 -56 -215 8 -44 -22
-86 -84 -119 -108 -56 -257 -23 -300 67 -12 23 -21 47 -21 53 0 17 -60 64
-115 89 -93 44 -182 28 -272 -47 -66 -55 -139 -96 -233 -130 -51 -18 -86 -23
-166 -23 -99 -1 -101 -1 -190 44 l-89 45 -44 87 -44 87 18 93 c10 51 24 107
33 123 25 51 93 134 115 141 12 3 46 17 75 30 29 13 56 24 61 24 5 0 19 8 32
19 13 10 42 21 64 25 22 3 65 10 96 15 31 5 67 16 80 24 59 37 265 106 304
101 17 -2 70 -8 118 -14z m3711 -669 c41 -7 56 -16 88 -52 20 -24 38 -48 38
-52 0 -5 25 -39 55 -75 30 -37 55 -72 55 -79 0 -7 4 -13 8 -13 5 0 19 -19 32
-42 13 -24 37 -58 53 -77 16 -19 38 -52 48 -75 54 -114 119 -205 119 -167 0
14 -68 130 -97 164 -12 16 -23 32 -23 37 0 9 -73 123 -115 179 -31 42 -35 79
-4 41 11 -14 36 -43 55 -65 20 -22 43 -52 52 -67 15 -26 42 -39 42 -20 0 8
-144 191 -168 212 -10 8 -34 38 -55 66 -20 29 -44 55 -52 58 -13 5 -22 36 -11
36 2 0 27 -12 55 -26 l51 -27 40 28 c35 24 45 27 87 20 25 -4 63 -18 82 -31
20 -13 43 -24 52 -24 27 0 191 -167 260 -265 101 -142 116 -167 129 -210 7
-22 25 -67 41 -100 15 -33 32 -80 39 -105 6 -25 16 -61 21 -80 13 -48 42 -187
56 -270 3 -19 16 -48 29 -63 21 -25 24 -39 24 -116 0 -56 5 -93 14 -106 13
-19 20 -59 32 -170 3 -27 8 -57 11 -65 7 -17 15 -91 14 -130 -2 -98 -10 -172
-20 -184 -9 -11 -9 -19 0 -35 10 -15 10 -33 1 -83 -6 -35 -15 -100 -18 -146
-4 -45 -11 -85 -15 -88 -5 -3 -9 -31 -9 -62 -1 -55 -20 -168 -33 -189 -3 -5
-11 -41 -17 -79 -13 -83 -47 -241 -59 -269 -5 -11 -14 -49 -21 -85 -6 -36 -18
-76 -25 -90 -7 -14 -30 -68 -50 -120 -21 -52 -48 -109 -61 -127 -13 -17 -24
-40 -24 -50 0 -24 -45 -118 -76 -160 -13 -17 -24 -38 -24 -45 -1 -41 -135
-208 -167 -208 -33 0 -29 18 31 143 29 62 56 124 59 138 4 14 18 42 32 63 14
20 25 44 25 53 0 30 32 138 45 153 7 8 17 29 21 45 4 17 13 39 20 50 17 26 31
114 16 100 -6 -5 -19 -35 -30 -65 -26 -70 -56 -148 -69 -180 -6 -14 -25 -63
-43 -110 -60 -161 -161 -364 -184 -368 -9 -2 -16 3 -16 12 0 16 41 126 95 251
19 44 37 94 41 110 4 17 13 40 21 51 7 12 23 55 34 95 50 180 92 348 99 394
18 115 32 193 41 233 6 28 6 49 -1 60 -5 9 -10 15 -11 12 -1 -3 -7 -43 -14
-90 -7 -47 -20 -111 -29 -143 -9 -32 -16 -80 -16 -108 0 -27 -6 -60 -14 -72
-7 -12 -28 -83 -46 -157 -19 -74 -36 -142 -40 -150 -4 -8 -17 -40 -29 -70
-127 -321 -177 -441 -190 -459 -13 -17 -23 -20 -47 -15 l-31 6 14 56 c8 32 20
94 28 138 7 45 25 116 40 159 14 44 29 108 32 144 3 36 11 72 17 80 10 13 27
89 57 261 6 36 16 76 23 89 14 31 12 211 -5 490 -11 173 -17 215 -29 219 -23
7 -30 23 -30 67 0 22 -7 50 -15 62 -8 12 -20 45 -25 75 -6 29 -15 63 -21 76
-5 13 -16 57 -24 98 -9 41 -31 126 -50 188 -19 63 -35 126 -35 141 0 31 -103
287 -132 327 -10 15 -25 49 -33 75 -8 27 -46 112 -85 190 -38 77 -70 145 -70
151 0 6 -16 31 -36 57 -19 26 -40 58 -46 71 -6 13 -14 24 -18 24 -4 0 -27 28
-50 63 -24 34 -84 104 -132 155 -49 52 -100 110 -113 130 -14 20 -41 48 -60
62 -42 31 -44 40 -6 40 19 0 53 -19 106 -60 43 -33 81 -60 85 -60 4 0 10 -9
13 -20 3 -11 16 -24 29 -29 12 -4 22 -11 21 -15 -8 -18 -1 -34 20 -45 12 -7
47 -46 77 -86 30 -41 58 -74 63 -75 20 -1 0 40 -60 121 -117 155 -168 214
-189 215 -30 2 -75 35 -72 52 2 8 15 24 30 35 25 19 33 20 75 10 27 -7 59 -14
73 -17 15 -4 36 -23 52 -48 15 -24 53 -79 83 -123 95 -137 121 -178 153 -240
41 -77 60 -102 71 -89 8 8 -36 94 -84 161 -8 12 -15 28 -15 35 1 14 90 -80 90
-95 0 -14 43 -66 51 -61 8 5 1 31 -13 49 -39 50 -83 109 -113 153 -24 34 -43
52 -56 52 -12 0 -23 8 -26 20 -3 11 -9 20 -14 20 -5 0 -9 7 -9 16 0 8 -15 30
-32 48 -54 55 -97 116 -92 130 13 33 80 43 178 27z m-3700 -12 c85 -21 132
-88 121 -171 -11 -74 -45 -109 -121 -119 -117 -16 -201 13 -230 80 -32 76 -6
151 69 196 46 27 93 31 161 14z m3171 -172 c27 -17 51 -39 53 -48 3 -16 -36
-39 -66 -39 -9 0 -38 -11 -64 -25 -26 -14 -60 -25 -77 -25 -39 0 -151 49 -151
66 0 17 67 52 135 71 57 17 108 30 115 32 3 1 28 -14 55 -32z m1659 -71 c39
-19 55 -22 75 -15 33 13 74 -2 125 -47 22 -19 86 -71 141 -115 103 -83 215
-186 215 -197 0 -21 -59 -147 -68 -147 -7 0 -53 45 -104 100 -50 55 -101 107
-114 115 -12 8 -35 29 -52 45 -70 69 -241 205 -257 205 -22 0 -47 37 -40 59 8
27 19 26 79 -3z m900 -61 c44 -95 55 -122 62 -150 4 -16 16 -47 26 -67 23 -44
37 -181 19 -192 -6 -4 -11 -19 -11 -34 0 -28 -51 -145 -67 -155 -5 -3 -37 33
-71 80 -76 106 -77 123 -22 234 27 52 39 87 35 100 -12 38 -33 9 -94 -133 -11
-27 -24 -48 -29 -48 -14 0 -92 97 -92 114 0 8 4 17 9 21 11 6 71 93 71 102 0
3 22 39 50 79 27 40 57 88 67 106 l17 33 6 -25 c3 -14 14 -43 24 -65z m-1195
31 c8 -10 8 -16 -2 -25 -17 -13 -54 10 -43 27 10 16 31 15 45 -2z m-1674 -25
c22 -10 49 -28 59 -40 19 -21 19 -21 0 -42 -10 -12 -35 -28 -54 -36 -43 -19
-157 -100 -169 -120 -14 -26 -39 -7 -46 36 -6 39 6 81 25 81 5 0 24 28 41 63
17 34 37 65 43 69 19 13 59 8 101 -11z m471 -28 c48 -49 94 -112 94 -129 0
-16 -51 -44 -78 -44 -16 0 -93 38 -214 106 -38 22 -40 31 -12 53 15 11 34 21
43 21 10 0 21 4 27 9 9 9 41 17 81 20 13 0 36 -14 59 -36z m-656 -10 c0 -4
-18 -28 -40 -54 -37 -44 -40 -52 -40 -107 0 -49 -5 -66 -31 -105 -33 -50 -58
-64 -88 -48 -11 6 -33 11 -50 11 -31 0 -71 38 -71 68 0 28 175 179 233 201 13
5 28 15 34 23 12 14 53 22 53 11z m2023 -59 c35 -62 48 -114 28 -114 -11 0
-21 25 -21 51 0 10 -4 19 -8 19 -5 0 -15 15 -24 33 -14 29 -20 33 -49 29 -42
-4 -83 22 -59 38 8 5 33 10 55 10 39 0 41 -2 78 -66z m-2460 -14 c14 -16 33
-52 42 -80 20 -61 10 -80 -42 -80 -88 0 -142 -55 -168 -170 -28 -123 -37 -142
-74 -157 -31 -13 -33 -13 -26 4 20 46 17 79 -11 112 -19 23 -25 37 -18 47 5 7
22 31 38 54 20 28 30 55 31 83 2 52 22 116 44 141 27 32 103 76 132 76 18 0
36 -10 52 -30z m874 -21 c32 -17 69 -41 83 -53 14 -12 37 -30 53 -39 35 -23
34 -31 -8 -57 -37 -23 -55 -19 -78 17 -4 7 -28 24 -52 38 -41 25 -45 25 -73
11 -43 -22 -80 -71 -87 -114 -11 -63 -14 -68 -50 -81 -19 -7 -35 -15 -35 -19
0 -12 -77 -92 -89 -92 -20 0 -13 92 9 120 11 14 20 34 20 45 0 27 -27 64 -53
74 -19 7 -13 14 53 56 126 81 204 124 227 124 13 1 49 -13 80 -30z m1683 -26
c0 -7 -6 -10 -14 -7 -15 6 -27 39 -18 49 8 8 32 -24 32 -42z m-154 12 c13 -9
24 -30 28 -57 13 -81 27 -108 58 -108 21 0 28 -5 28 -20 0 -21 -22 -26 -55
-14 -9 4 -32 41 -51 83 -19 42 -39 84 -45 94 -10 18 -5 37 9 37 4 0 17 -7 28
-15z m332 -95 c23 -19 42 -42 42 -51 0 -22 -28 -45 -40 -33 -23 23 -87 130
-83 137 5 8 10 5 81 -53z m-1455 -29 c31 -41 46 -71 34 -71 -10 0 -79 40 -111
65 -35 27 -37 30 -20 42 33 24 58 15 97 -36z m-430 -13 c10 -8 23 -43 32 -88
9 -41 18 -83 21 -92 3 -10 1 -18 -5 -18 -6 0 -11 7 -11 15 0 21 -19 19 -27 -2
-14 -36 -63 -58 -63 -28 0 9 12 20 26 25 30 12 27 34 -4 38 -23 3 -30 26 -12
37 17 11 11 32 -11 38 -19 5 -21 11 -15 38 9 47 36 61 69 37z m325 -25 c22
-16 71 -53 111 -83 65 -49 70 -56 55 -67 -10 -7 -28 -13 -40 -13 -26 0 -40
-15 -49 -53 -8 -30 -29 -36 -39 -11 -3 8 -4 39 -1 67 3 29 2 58 -3 66 -12 17
-79 30 -154 31 -66 0 -78 19 -30 44 16 8 34 22 41 30 20 24 66 19 109 -11z
m1447 -24 c8 -15 38 -51 65 -78 46 -46 64 -81 41 -81 -5 0 -38 17 -72 39 -67
40 -75 54 -78 128 -1 25 2 31 14 26 9 -3 22 -18 30 -34z m-2198 -27 c-16 -36
-39 -62 -49 -56 -16 10 -8 45 17 70 31 31 49 24 32 -14z m-361 9 c50 -30 71
-76 79 -167 7 -80 7 -81 -35 -168 -23 -48 -52 -99 -65 -114 -12 -15 -28 -38
-35 -52 -13 -23 -14 -20 -28 60 -15 92 -47 160 -87 186 -29 19 -31 38 -9 113
24 83 44 119 78 140 40 25 64 25 102 2z m428 -61 c-18 -58 -38 -76 -50 -45 -8
20 28 104 46 108 24 5 24 0 4 -63z m2411 13 c24 -27 47 -59 50 -72 4 -14 15
-37 26 -52 13 -18 19 -44 19 -77 0 -45 3 -50 25 -56 14 -4 25 -11 25 -16 0
-14 -32 -12 -55 4 -11 7 -31 17 -44 21 -13 4 -49 27 -80 50 -60 45 -73 73 -88
177 -4 32 -2 38 24 52 42 23 50 20 98 -31z m344 -10 c51 -59 58 -83 36 -125
-9 -18 -20 -73 -25 -123 -4 -49 -11 -98 -15 -108 -11 -28 -63 -18 -89 16 -36
49 -38 241 -2 307 7 14 16 37 20 53 9 39 29 34 75 -20z m-3714 -31 c62 -10 85
-23 120 -63 32 -39 28 -69 -16 -115 -24 -25 -50 -36 -117 -53 -48 -13 -103
-27 -122 -32 -19 -5 -48 -10 -65 -11 -35 -3 -44 -28 -18 -53 11 -12 19 -38 21
-80 5 -79 -8 -105 -51 -105 -39 0 -157 -34 -215 -64 -24 -11 -57 -35 -74 -53
-26 -27 -29 -35 -18 -48 18 -21 26 -19 80 20 79 58 118 68 270 69 136 2 225
-8 247 -25 19 -17 70 -27 84 -18 15 9 17 62 4 169 -9 78 4 132 42 183 30 39
53 52 105 62 29 5 37 2 68 -29 30 -32 35 -44 41 -110 4 -41 3 -89 -2 -108 -32
-124 -97 -257 -172 -357 -44 -57 -186 -174 -227 -186 -14 -4 -39 -16 -56 -26
-17 -11 -39 -19 -49 -19 -9 0 -29 -6 -43 -14 -57 -29 -164 -66 -193 -66 -16 0
-61 -7 -98 -16 -40 -8 -97 -13 -137 -11 l-69 3 -7 40 c-5 21 -13 59 -18 84
-13 64 -11 320 3 361 7 19 22 44 35 57 12 12 22 29 22 38 0 9 6 30 14 47 8 18
19 73 26 122 7 50 19 106 27 125 13 34 13 33 8 -30 -3 -36 -8 -95 -11 -132 -5
-45 -3 -68 3 -68 15 0 26 44 28 110 3 72 17 168 22 153 3 -7 9 -13 15 -13 7 0
9 17 5 46 -4 38 -1 50 22 77 32 40 83 87 94 87 5 0 20 9 33 19 14 11 50 23 82
27 31 4 66 11 77 15 21 9 95 5 180 -9z m1635 3 c8 -5 6 -105 -6 -212 -6 -54
-4 -63 9 -63 27 0 86 60 97 98 6 21 19 48 29 61 16 22 26 24 77 22 33 -1 65
-8 73 -15 20 -20 4 -73 -29 -98 -16 -11 -42 -42 -59 -68 -17 -26 -51 -68 -76
-93 -25 -26 -45 -51 -45 -56 0 -6 -11 -18 -24 -26 -23 -15 -28 -15 -79 9 -29
13 -60 30 -68 38 -8 7 -26 19 -41 25 -26 12 -28 17 -28 68 0 60 3 62 57 40 27
-11 39 -12 49 -4 20 16 18 25 -16 75 -26 37 -36 44 -63 44 -48 0 -57 15 -57
91 l0 68 38 4 c41 5 149 0 162 -8z m1338 3 c12 -15 4 -68 -9 -68 -13 0 -30 47
-23 65 7 18 18 19 32 3z m-1798 -69 c0 -11 -11 -35 -25 -53 -23 -31 -34 -35
-77 -27 -5 0 -8 11 -8 24 0 14 14 32 38 49 45 33 72 36 72 7z m1918 2 c15 -10
43 -25 62 -34 52 -22 91 -68 97 -116 6 -41 -2 -48 -40 -42 -22 4 -47 -24 -62
-68 -18 -55 -35 -74 -61 -69 -37 7 -39 34 -6 76 26 33 32 49 32 90 0 53 -8 62
-55 62 -26 0 -35 17 -35 64 0 31 15 56 33 56 5 0 21 -8 35 -19z m-2359 -12 c4
-12 3 -44 -2 -70 -12 -62 -5 -79 32 -79 38 0 65 34 81 99 9 37 16 48 28 46 13
-2 16 -10 13 -31 -12 -77 5 -208 30 -230 11 -10 19 -27 19 -38 0 -26 -94 -175
-116 -183 -9 -3 -41 7 -73 24 -55 30 -170 98 -178 106 -4 4 33 86 61 137 34
60 49 114 48 165 -1 42 3 57 16 64 25 15 32 13 41 -10z m81 6 c0 -8 -7 -15
-15 -15 -8 0 -15 7 -15 15 0 8 7 15 15 15 8 0 15 -7 15 -15z m578 -165 c7 -58
13 -114 14 -124 2 -10 -2 -21 -8 -23 -12 -4 -19 38 -30 187 -9 122 11 90 24
-40z m2442 112 c0 -5 16 -34 35 -66 19 -32 35 -64 35 -72 0 -7 -20 -29 -44
-48 -49 -41 -91 -47 -101 -15 -16 50 30 209 60 209 8 0 15 -4 15 -8z m-2503
-18 c2 -6 -9 -11 -27 -12 -20 0 -30 4 -30 14 0 18 51 16 57 -2z m-356 -33 c4
-18 12 -38 18 -44 17 -17 14 -87 -4 -93 -32 -13 -65 53 -65 128 0 57 40 64 51
9z m209 -11 c0 -5 -4 -10 -10 -10 -5 0 -10 5 -10 10 0 6 5 10 10 10 6 0 10 -4
10 -10z m-125 -18 c0 -18 -20 -15 -23 4 -3 10 1 15 10 12 7 -3 13 -10 13 -16z
m275 -2 c0 -16 -7 -20 -30 -20 -37 0 -39 13 -2 27 15 6 28 11 30 12 1 1 2 -8
2 -19z m2000 -5 c7 -8 16 -15 21 -15 12 0 49 -33 49 -44 0 -12 -32 -35 -50
-35 -8 0 -23 15 -32 35 -29 56 -20 98 12 59z m-1360 -19 c0 -8 9 -30 19 -48
11 -18 43 -91 71 -163 28 -71 60 -152 72 -180 27 -65 32 -106 16 -127 -11 -15
-19 -16 -53 -7 -22 6 -51 21 -65 34 -14 12 -43 32 -66 43 -22 11 -47 28 -55
38 -8 9 -30 24 -49 33 -19 9 -59 34 -87 55 -66 47 -70 77 -18 119 19 15 35 34
35 41 0 7 25 39 55 71 30 32 55 64 55 70 0 18 22 35 47 35 13 0 23 -6 23 -14z
m1078 -21 c-2 -14 -7 -26 -13 -26 -5 0 -11 12 -13 26 -2 18 1 25 13 25 12 0
15 -7 13 -25z m-1875 -25 c18 -21 27 -46 31 -87 3 -32 10 -97 16 -144 13 -112
13 -249 0 -249 -21 0 -50 41 -50 72 0 17 -7 39 -16 49 -9 10 -19 40 -21 66 -3
26 -9 53 -13 58 -5 6 -12 28 -16 50 -4 22 -13 49 -19 60 -19 30 -26 84 -15
105 30 57 67 64 103 20z m-1092 -31 c-6 -18 -11 -79 -11 -135 0 -63 -4 -104
-10 -104 -5 0 -10 15 -10 33 -1 17 -7 50 -15 72 -8 22 -15 60 -15 85 0 40 4
48 33 66 17 12 34 20 36 18 2 -2 -2 -17 -8 -35z m1259 6 c0 -18 -5 -25 -19
-25 -67 0 -70 47 -3 49 17 1 22 -5 22 -24z m-1380 -34 c5 -11 10 -38 10 -61 0
-22 7 -52 16 -65 21 -32 11 -80 -14 -69 -9 4 -37 8 -62 9 l-45 1 0 75 c-1 41
-4 82 -9 91 -6 14 -1 19 26 27 51 14 66 13 78 -8z m3300 4 c7 -8 13 -54 14
-112 2 -54 6 -106 10 -115 5 -12 0 -21 -18 -33 -23 -16 -27 -16 -58 2 -18 10
-39 24 -46 31 -7 6 -21 12 -31 12 -20 0 -48 27 -51 50 -5 37 1 49 30 55 32 7
60 38 60 67 0 49 61 78 90 43z m275 -11 c14 -15 25 -32 25 -39 0 -16 -50 -61
-78 -70 -28 -8 -45 -48 -37 -86 7 -32 -15 -49 -65 -49 -28 0 -30 2 -19 21 8
16 8 28 0 46 -6 13 -11 41 -11 61 0 21 -5 43 -12 50 -15 15 -4 26 45 42 20 6
42 20 47 31 16 30 75 26 105 -7z m438 -26 c12 -29 34 -77 49 -107 34 -64 46
-125 27 -137 -7 -4 -14 -3 -16 3 -2 6 -12 21 -23 33 -13 16 -17 31 -13 56 7
44 -34 110 -83 130 -40 17 -41 20 -12 51 32 34 47 28 71 -29z m-2623 -13 c0
-9 -9 -15 -25 -15 -26 0 -34 15 -12 23 23 10 37 7 37 -8z m-303 -27 c10 -18
19 -46 20 -63 2 -39 18 -113 42 -198 13 -46 29 -80 50 -101 63 -65 27 -69 -47
-5 -24 20 -72 52 -107 71 -63 32 -82 59 -51 71 7 3 28 31 45 63 34 60 36 79
10 142 -12 28 -12 34 1 42 8 5 16 10 17 10 1 0 10 -15 20 -32z m2767 -23 c61
-29 106 -67 106 -90 0 -17 -20 -19 -70 -6 -44 11 -188 21 -206 14 -8 -3 -14
-11 -14 -19 0 -10 16 -14 63 -15 72 -1 164 -12 174 -22 12 -13 -5 -19 -73 -27
-37 -5 -81 -15 -98 -23 -17 -8 -43 -20 -58 -26 -33 -12 -38 -41 -8 -41 12 0
44 12 73 27 42 22 69 27 145 31 59 3 92 1 92 -6 0 -17 -98 -72 -128 -72 -15 0
-45 -6 -67 -14 -22 -7 -65 -17 -96 -20 l-56 -7 -37 45 c-49 61 -60 130 -26
178 34 51 111 99 172 108 29 4 54 8 56 9 2 0 27 -10 56 -24z m-2282 -29 c7 -8
21 -23 30 -35 10 -11 29 -21 43 -21 33 0 32 -15 -5 -49 -17 -15 -35 -43 -40
-62 -14 -47 -26 -63 -43 -56 -18 7 -30 56 -31 127 -1 30 -5 67 -10 83 -7 24
-6 27 17 27 14 0 32 -6 39 -14z m-560 -8 c6 -16 -14 -98 -23 -98 -4 0 -20 -11
-36 -24 -43 -37 -57 -19 -25 31 15 22 35 55 44 72 18 32 33 40 40 19z m383 2
c-3 -5 -15 -10 -25 -10 -10 0 -22 5 -25 10 -4 6 7 10 25 10 18 0 29 -4 25 -10z
m70 -121 c4 -47 3 -79 -3 -83 -10 -6 -17 32 -27 154 -4 61 -4 63 9 35 7 -16
17 -64 21 -106z m-855 91 c16 -11 41 -26 57 -33 72 -32 143 -80 143 -97 0 -34
-39 -68 -105 -90 -36 -12 -65 -25 -65 -29 0 -4 -11 -13 -24 -20 -13 -7 -29
-25 -37 -40 -8 -15 -27 -53 -42 -84 -29 -58 -47 -68 -76 -44 -9 8 -38 22 -66
32 -27 10 -56 22 -62 28 -17 13 -16 42 2 57 8 7 26 35 40 64 15 28 38 75 53
103 26 51 128 172 145 173 5 0 22 -9 37 -20z m790 -30 c0 -15 -7 -20 -25 -20
-29 0 -33 15 -7 29 25 15 32 13 32 -9z m339 -44 c6 -8 33 -23 59 -34 26 -12
56 -30 66 -40 9 -11 30 -23 44 -27 15 -3 43 -19 62 -34 19 -15 60 -41 91 -59
30 -17 64 -40 74 -52 17 -19 17 -21 -9 -60 -14 -22 -26 -47 -26 -55 0 -20 -17
-26 -176 -64 -73 -17 -146 -38 -163 -47 -46 -23 -73 -15 -83 23 -5 18 -21 41
-36 50 -48 32 -81 76 -82 109 0 38 39 139 74 190 14 21 26 43 26 48 0 11 50
66 61 66 3 0 12 -6 18 -14z m-329 -25 c0 -14 -6 -17 -25 -13 -39 7 -30 24 18
31 4 0 7 -7 7 -18z m1760 -6 c40 -21 38 -35 -5 -35 -31 0 -35 3 -35 25 0 29 2
30 40 10z m1360 -19 c30 -9 78 -24 106 -32 28 -9 82 -38 120 -65 38 -26 89
-60 114 -75 25 -15 62 -39 84 -53 21 -14 58 -37 82 -51 25 -14 45 -29 46 -35
4 -18 -46 -33 -152 -45 -58 -7 -139 -16 -180 -22 -102 -13 -266 -10 -380 8
-131 21 -199 55 -289 144 -40 39 -71 74 -68 77 3 2 25 -2 49 -10 23 -8 72 -18
108 -22 36 -4 73 -11 82 -16 10 -5 66 -16 125 -25 59 -8 112 -19 117 -24 11
-11 118 -13 154 -4 12 4 22 11 22 18 0 7 -34 11 -104 12 -58 0 -111 5 -118 11
-7 6 -47 16 -88 22 -86 13 -245 48 -275 61 -11 5 -31 12 -45 16 -27 7 -50 22
-50 34 0 3 24 12 53 19 28 6 81 24 117 38 36 15 88 30 115 34 75 11 193 4 255
-15z m-3110 -41 c0 -9 -9 -15 -25 -15 -29 0 -34 16 -7 23 30 8 32 7 32 -8z
m-4270 -45 c22 -22 52 -45 65 -52 95 -52 213 -105 285 -130 47 -16 117 -40
155 -53 76 -26 228 -55 288 -55 44 0 45 -8 12 -63 -29 -51 -94 -114 -155 -152
-201 -127 -288 -160 -390 -148 -75 8 -101 23 -184 107 -104 104 -120 143 -141
341 -4 33 -13 76 -22 96 -11 28 -12 42 -4 57 6 11 11 32 11 46 0 19 18 42 37
46 1 0 20 -18 43 -40z m6240 -2 c-58 -61 -52 -76 14 -37 20 11 41 19 47 17 12
-4 -25 -35 -158 -133 -37 -27 -75 -58 -85 -67 -36 -36 -46 -23 -51 65 -3 45
-8 96 -12 114 -7 29 -5 33 21 38 16 4 40 11 54 16 28 10 128 26 178 28 l33 1
-41 -42z m-2381 -35 c29 -21 74 -51 100 -68 76 -48 168 -128 186 -160 12 -22
16 -48 13 -95 l-3 -65 -89 -23 -89 -23 -106 22 c-58 12 -126 25 -151 30 -113
19 -180 45 -180 68 1 22 34 117 47 133 6 7 14 24 18 37 4 14 20 53 36 88 22
50 36 67 61 78 57 25 98 19 157 -22z m416 8 c6 -11 -12 -24 -37 -28 -12 -2
-18 4 -18 17 0 15 7 20 24 20 14 0 27 -4 31 -9z m60 -18 c11 -31 18 -213 7
-213 -12 0 -19 37 -28 148 -4 53 -3 82 4 82 5 0 13 -8 17 -17z m-5473 -23
c168 -79 271 -116 383 -136 l40 -7 -40 -8 c-52 -11 -99 -3 -200 31 -97 33
-265 120 -265 138 0 18 13 15 82 -18z m7933 -41 l60 -60 -30 -25 c-45 -36 -86
-32 -130 12 -60 60 -68 105 -23 124 45 18 63 10 123 -51z m-3191 43 c2 -4 -2
-21 -9 -37 -19 -40 -75 -175 -82 -197 -7 -24 -51 -23 -80 1 -19 16 -21 25 -16
75 5 48 11 61 34 79 16 11 29 26 29 33 0 26 111 67 124 46z m2746 -4 c0 -14
-74 -83 -124 -115 -21 -14 -76 -58 -121 -98 -46 -41 -86 -71 -89 -68 -10 10
-7 53 5 75 6 11 35 31 65 44 30 13 54 29 55 36 0 14 176 136 197 137 6 1 12
-4 12 -11z m133 -13 c15 -1 32 -3 37 -4 6 0 10 -26 10 -56 l0 -55 -49 24 c-35
18 -52 34 -60 57 -16 46 -14 52 12 44 12 -4 34 -8 50 -10z m-7268 -25 c22 -5
90 -14 150 -20 61 -6 114 -15 119 -20 14 -14 -2 -29 -44 -41 -31 -9 -47 -9
-87 4 -26 9 -79 25 -118 37 -96 29 -125 41 -125 51 0 9 31 5 105 -11z m5065 0
c0 -15 -27 -23 -47 -16 -15 6 -15 8 -3 16 20 13 50 12 50 0z m2334 -23 c3 -13
21 -40 41 -60 19 -20 35 -39 35 -43 0 -15 -94 5 -107 22 -14 19 -18 86 -6 97
13 14 31 6 37 -16z m-5001 -64 c16 -43 36 -94 46 -113 10 -19 22 -55 25 -80 4
-25 12 -57 17 -71 8 -21 5 -37 -14 -81 -33 -73 -73 -100 -209 -141 -38 -11
-92 -5 -203 25 -47 12 -65 23 -175 105 -52 39 -110 107 -148 172 -14 26 -30
48 -34 49 -17 7 -8 42 10 42 44 0 241 22 277 31 22 6 69 25 105 42 64 32 232
94 260 96 10 1 24 -24 43 -76z m-1073 37 c140 -27 342 -44 523 -45 81 0 147
-3 147 -6 0 -24 -382 -43 -520 -26 -56 6 -224 58 -270 82 -22 12 -22 14 -5 14
11 1 67 -8 125 -19z m3743 -15 c-3 -13 -53 -20 -53 -7 0 15 13 23 35 20 11 -2
19 -7 18 -13z m796 -9 c26 -28 20 -34 -43 -42 -43 -6 -46 -5 -40 12 10 26 35
54 49 54 6 0 22 -11 34 -24z m1379 -69 c26 -25 60 -56 75 -69 35 -29 40 -76
13 -132 -10 -22 -18 -65 -19 -107 -2 -64 -5 -73 -30 -95 -37 -32 -52 -30 -103
11 -23 19 -62 44 -86 54 -24 11 -56 31 -73 44 -26 22 -28 28 -18 48 6 13 14
47 17 74 3 28 18 87 33 132 26 81 27 82 62 85 67 6 83 1 129 -45z m-3213 -3
c55 -27 75 -43 75 -57 0 -22 -19 -21 -126 7 -90 22 -114 36 -114 62 0 46 58
42 165 -12z m1046 11 c0 -5 -12 -11 -26 -13 -18 -2 -25 1 -25 13 0 12 7 15 25
13 14 -2 26 -7 26 -13z m2644 5 c4 -6 24 -18 45 -26 57 -23 64 -49 56 -212
-11 -228 -33 -363 -75 -458 -12 -26 -21 -54 -21 -63 0 -66 -173 -461 -202
-461 -4 0 -8 -6 -8 -12 -1 -24 -99 -163 -172 -245 -21 -24 -38 -46 -38 -51 0
-5 -38 -49 -85 -98 -47 -49 -88 -93 -93 -97 -16 -18 -141 -122 -192 -161 -86
-66 -347 -206 -384 -206 -6 0 -17 -5 -23 -11 -14 -14 -220 -68 -303 -79 -36
-5 -103 -17 -150 -27 -72 -15 -126 -18 -360 -16 -361 3 -406 8 -426 39 -10 15
-26 24 -42 24 -16 0 -22 4 -16 9 5 5 36 5 74 -1 36 -6 160 -10 275 -10 116 0
215 -4 222 -10 25 -20 78 -28 126 -18 26 5 71 15 100 21 77 16 178 58 208 85
33 31 155 71 239 77 104 9 156 24 211 62 28 19 57 35 64 35 23 0 92 58 105 89
7 18 22 34 36 37 13 3 35 22 50 42 35 47 111 122 124 122 12 0 26 14 99 98 41
46 60 80 78 133 14 40 35 86 48 103 12 17 30 46 39 64 12 22 31 39 61 52 24
10 51 31 61 47 9 15 28 44 41 64 17 26 23 49 23 89 0 44 5 59 26 81 35 36 44
84 26 129 -14 34 -13 35 17 61 19 15 31 35 31 50 0 13 7 43 15 67 16 47 11
116 -10 142 -10 11 -12 64 -11 204 2 178 3 189 21 196 11 4 29 17 39 29 21 23
41 27 51 11z m-7732 -38 c10 -2 17 -14 17 -28 0 -12 5 -26 10 -29 14 -9 12
-25 -3 -25 -7 0 -23 -11 -35 -25 -12 -14 -26 -25 -31 -25 -5 0 -13 -9 -16 -20
-3 -11 -17 -23 -30 -26 -13 -3 -27 -15 -30 -25 -17 -54 -83 -87 -113 -57 -17
17 -46 -13 -38 -40 5 -15 15 -20 38 -18 38 1 49 -21 14 -30 -22 -5 -26 -12
-26 -41 0 -52 -48 -133 -83 -140 -36 -7 -42 -19 -27 -49 11 -20 11 -27 -3 -42
-10 -10 -17 -34 -17 -53 0 -19 -4 -39 -9 -45 -5 -5 -11 -27 -13 -49 -2 -32 -7
-40 -28 -45 -36 -8 -40 -47 -5 -56 31 -8 28 -24 -9 -42 -36 -18 -33 -57 4 -57
18 0 26 -6 28 -22 3 -17 -3 -22 -25 -25 -29 -3 -45 -35 -21 -42 53 -16 51 -14
29 -41 -14 -19 -18 -35 -14 -59 4 -28 2 -35 -16 -41 -11 -3 -21 -13 -21 -20 0
-35 -24 -65 -51 -65 -34 0 -45 -26 -23 -52 10 -10 15 -19 13 -21 -33 -20 -52
-27 -68 -27 -10 0 -24 -7 -31 -15 -10 -13 -9 -19 5 -35 10 -11 16 -21 14 -23
-2 -1 -13 -7 -24 -13 -11 -6 -22 -21 -25 -33 -5 -23 -58 -63 -72 -55 -14 9 -8
21 17 32 29 13 34 42 7 42 -31 0 -42 22 -42 81 0 56 14 86 26 55 8 -20 28 -21
43 -2 25 30 -18 63 -46 35 -20 -20 -25 46 -19 247 4 104 7 200 7 214 1 14 0
156 0 315 -1 519 -1 524 17 535 17 10 687 12 725 2z m5927 -7 c6 -8 14 -32 17
-54 6 -45 14 -39 -104 -83 -35 -12 -73 -31 -85 -41 l-23 -18 36 5 c19 4 69 17
109 30 54 18 78 22 87 14 19 -16 16 -29 -14 -60 l-27 -28 32 0 c33 0 32 1 47
-73 2 -9 -4 -24 -12 -33 -14 -13 -34 -15 -132 -9 -64 3 -152 12 -196 20 -44 7
-111 13 -150 14 -38 0 -112 8 -163 18 -92 17 -92 17 -103 52 -6 20 -9 52 -7
71 3 32 6 36 43 43 22 5 78 19 125 32 47 13 128 33 180 45 52 12 136 32 185
44 109 28 139 30 155 11z m-6736 -3 c11 -18 9 -477 -3 -505 -6 -16 -9 -33 -5
-38 3 -5 7 -246 9 -537 l4 -527 -25 -20 c-15 -13 -26 -35 -30 -62 -6 -40 -5
-43 17 -44 13 -1 28 -1 33 0 21 4 38 -9 28 -22 -15 -17 -35 -650 -22 -702 11
-46 13 -187 4 -235 -6 -27 -10 -31 -28 -25 -12 4 -34 10 -51 14 l-30 7 -6 149
c-3 83 -2 202 3 265 5 63 9 122 9 130 1 33 -12 421 -17 510 -14 232 -15 586
-3 638 10 42 10 57 -1 77 -10 19 -10 30 0 54 8 21 10 54 6 103 -7 71 -7 83 -7
158 0 190 4 412 11 613 0 10 98 9 104 -1z m896 -2 c0 -5 -4 -10 -10 -10 -5 0
-10 5 -10 10 0 6 5 10 10 10 6 0 10 -4 10 -10z m5168 -11 c12 -11 20 -24 17
-29 -9 -15 -55 12 -55 32 0 23 11 23 38 -3z m-1371 -21 c32 -9 165 -44 213
-55 14 -3 32 -11 40 -18 8 -7 33 -15 55 -18 78 -11 304 -62 359 -81 62 -21
132 -36 169 -36 17 0 52 -7 76 -15 24 -9 64 -18 90 -22 25 -3 51 -9 56 -13 13
-11 145 -31 225 -35 99 -5 350 -33 395 -44 22 -6 63 -11 92 -11 28 0 73 -4
100 -10 26 -5 101 -17 166 -26 l117 -17 0 -37 c0 -21 3 -52 6 -69 6 -27 4 -31
-15 -31 -12 0 -21 -6 -21 -15 0 -17 -42 -19 -105 -5 -48 10 -220 55 -254 66
-18 5 -23 4 -19 -7 4 -13 81 -39 178 -61 25 -5 67 -16 94 -24 26 -8 65 -14 85
-14 45 0 64 -12 60 -36 -2 -11 1 -26 6 -34 16 -24 35 -83 35 -108 0 -31 -24
-38 -68 -19 -20 9 -62 18 -92 21 -30 3 -75 10 -100 15 -25 5 -74 14 -110 20
-72 13 -131 25 -235 52 -38 10 -95 21 -125 25 -30 4 -71 14 -90 24 -31 15 -88
28 -155 34 -11 2 -29 7 -40 13 -11 6 -47 16 -79 23 -33 7 -67 16 -75 21 -25
13 -114 39 -167 49 -46 8 -314 98 -359 120 -11 5 -40 14 -64 20 -29 8 -45 18
-48 31 -6 21 -18 25 -29 8 -8 -14 -65 -4 -119 20 -66 30 -106 43 -185 60 -41
9 -85 22 -97 29 -12 6 -28 12 -35 12 -7 0 -30 9 -51 20 -21 12 -63 30 -93 41
-55 21 -62 33 -31 53 13 8 25 7 48 -6 17 -10 35 -18 41 -18 10 0 43 -14 143
-61 22 -10 69 -30 105 -44 36 -14 83 -34 105 -45 41 -19 132 -50 147 -50 4 0
8 4 8 9 0 11 -50 38 -105 56 -67 22 -226 91 -308 134 -43 23 -84 41 -92 41
-14 0 -30 18 -22 26 2 2 17 -2 33 -11 16 -8 37 -15 47 -15 9 0 25 -4 35 -10
23 -13 145 -58 205 -75 26 -7 53 -18 60 -23 7 -5 25 -12 42 -16 16 -4 48 -16
70 -26 22 -10 76 -25 120 -34 44 -8 96 -20 115 -26 43 -12 80 -13 80 -1 0 13
-113 49 -175 57 -50 6 -102 21 -225 68 -36 13 -108 40 -161 59 -53 19 -105 40
-117 46 -11 6 -29 11 -39 11 -11 0 -28 7 -39 15 -19 15 -19 15 1 30 20 16 56
14 122 -7z m3113 -24 c0 -29 -10 -68 -27 -106 -26 -57 -29 -59 -57 -54 -35 7
-75 32 -82 50 -3 8 8 28 25 46 32 35 121 108 134 109 4 1 7 -20 7 -45z m-1898
21 c11 -16 0 -22 -32 -17 -33 5 -40 18 -12 25 24 5 36 3 44 -8z m68 -71 c12
-74 13 -144 1 -144 -5 0 -12 30 -15 68 -4 37 -9 87 -13 112 -8 69 15 37 27
-36z m-60 -8 c0 -14 -37 -29 -52 -20 -20 13 -7 34 22 34 19 0 30 -5 30 -14z
m2428 -67 c3 -66 -8 -83 -65 -93 -21 -4 -46 -17 -55 -29 -25 -32 -33 -14 -20
44 24 100 58 140 117 136 17 -2 20 -10 23 -58z m-5863 26 c0 -13 -8 -21 -22
-23 -17 -3 -23 2 -23 16 0 10 3 22 7 26 13 13 38 1 38 -19z m3445 -30 c0 -10
-10 -15 -30 -15 -20 0 -30 5 -30 15 0 10 10 15 30 15 20 0 30 -5 30 -15z
m-1414 -60 c10 -8 29 -15 40 -15 12 0 27 -6 33 -14 7 -8 46 -31 89 -51 137
-66 216 -103 262 -123 25 -11 90 -40 145 -65 55 -25 111 -48 125 -52 14 -4 34
-14 45 -21 11 -8 28 -14 38 -14 10 0 31 -8 45 -18 15 -10 47 -26 72 -34 67
-23 111 -40 147 -55 17 -7 38 -13 46 -13 9 0 18 -4 21 -9 3 -5 16 -11 28 -14
94 -23 118 -30 154 -43 42 -16 42 -16 46 -75 3 -46 10 -66 35 -96 22 -28 31
-53 36 -93 4 -30 11 -84 18 -120 6 -36 14 -87 18 -115 4 -27 13 -60 20 -73 24
-45 109 -57 135 -20 18 26 21 133 5 213 -19 96 -22 158 -10 211 7 30 17 56 22
59 5 3 23 0 41 -8 51 -21 134 -47 152 -47 9 0 24 -4 34 -9 51 -26 135 -54 192
-66 74 -15 115 -30 124 -43 3 -5 23 -9 44 -9 34 0 78 -11 140 -34 27 -10 28
-33 7 -144 -8 -44 -22 -118 -30 -165 -48 -265 -53 -284 -71 -297 -10 -7 -22
-13 -26 -13 -5 0 -6 -11 -2 -25 8 -33 -1 -32 -99 10 -44 19 -85 35 -91 35 -6
0 -27 8 -46 19 -19 10 -46 21 -60 25 -14 4 -52 20 -85 36 -33 15 -85 39 -115
52 -68 29 -301 149 -355 183 -22 14 -53 32 -70 40 -16 9 -37 19 -45 24 -30 19
-186 108 -225 130 -23 12 -45 32 -50 44 -7 14 -19 22 -36 23 -29 1 -102 43
-184 103 -27 21 -86 60 -130 87 -44 28 -91 59 -104 69 -13 11 -38 31 -55 45
-17 14 -58 46 -91 70 -33 25 -78 62 -100 82 -22 21 -43 38 -46 38 -13 0 -219
219 -219 232 0 16 20 7 35 -16 17 -26 203 -172 233 -183 9 -4 33 -20 52 -36
18 -17 36 -25 37 -20 5 14 -58 76 -93 92 -16 7 -36 19 -44 27 -8 7 -43 36 -77
64 -35 28 -63 58 -63 66 0 17 31 1 119 -60 91 -65 157 -107 196 -128 22 -11
56 -33 75 -48 28 -22 173 -102 266 -148 11 -5 35 -17 54 -27 144 -73 332 -166
354 -174 19 -8 26 -7 26 2 -1 6 -101 61 -223 121 -271 133 -237 116 -327 168
-41 24 -92 51 -112 61 -21 9 -38 20 -38 25 0 5 -15 16 -32 25 -34 18 -53 30
-207 132 -50 33 -107 70 -128 83 -21 13 -58 41 -82 63 -23 21 -52 46 -63 53
-11 8 -17 19 -13 25 8 15 17 14 41 -4z m3155 -25 c41 -21 44 -40 6 -40 -23 0
-71 43 -60 54 9 8 9 8 54 -14z m-3191 -41 c0 -5 -4 -9 -10 -9 -5 0 -10 7 -10
16 0 8 5 12 10 9 6 -3 10 -10 10 -16z m-1846 -205 c-1 -125 -6 -220 -13 -237
-21 -53 -112 -70 -234 -46 -55 11 -57 13 -57 43 0 17 5 49 10 71 9 37 21 187
24 297 1 26 7 53 14 60 11 11 19 7 41 -19 24 -29 33 -33 77 -33 51 1 94 26
107 63 4 10 13 17 20 14 9 -3 12 -54 11 -213z m5714 164 c-3 -30 -6 -33 -40
-36 -48 -4 -50 15 -5 45 43 29 49 28 45 -9z m-658 -8 c36 0 17 -25 -22 -28
-26 -2 -37 2 -42 13 -9 25 2 37 24 25 10 -5 28 -10 40 -10z m-2639 -60 c24
-11 53 -20 63 -20 10 0 37 -8 60 -19 52 -23 92 -37 191 -66 44 -12 114 -34
155 -48 126 -43 239 -77 253 -77 18 0 53 -39 62 -67 5 -17 2 -23 -10 -23 -24
0 -108 22 -120 31 -6 4 -58 24 -115 43 -58 19 -139 48 -180 66 -41 17 -88 36
-104 42 -16 6 -60 26 -98 44 -37 19 -71 34 -74 34 -3 0 -20 7 -37 15 -18 8
-50 21 -71 28 -40 14 -61 37 -33 37 8 0 34 -9 58 -20z m3008 -55 c178 -6 243
-4 260 5 34 17 61 -11 61 -63 0 -57 -45 -99 -125 -116 -110 -24 -150 -30 -205
-31 -61 0 -100 -8 -100 -20 0 -16 226 1 337 25 29 7 34 4 43 -19 25 -66 23
-72 -19 -111 -49 -45 -55 -63 -42 -111 8 -27 7 -45 -3 -68 -22 -53 -43 -64
-116 -61 -84 3 -297 23 -333 31 -15 3 -65 10 -110 15 -45 5 -100 12 -122 17
l-40 8 3 64 c1 36 10 85 19 108 l15 44 47 -6 c25 -4 66 -9 90 -13 31 -4 42 -2
37 6 -4 6 -17 11 -29 11 -35 0 -137 34 -133 45 2 6 11 9 20 8 9 -2 24 -4 34
-5 11 -2 17 4 17 17 0 16 -8 21 -39 23 l-38 3 7 102 c4 56 8 104 10 107 2 3
51 2 110 -1 58 -4 213 -10 344 -14z m-3507 -37 c22 -18 74 -68 116 -111 43
-43 119 -113 171 -155 52 -42 126 -104 164 -137 112 -97 192 -157 345 -262 45
-31 82 -59 82 -62 0 -4 -21 -13 -47 -20 -27 -7 -76 -22 -111 -32 -35 -10 -89
-23 -120 -29 -31 -5 -97 -18 -147 -29 -133 -28 -196 -33 -223 -18 -29 16 -97
100 -117 145 -25 54 -8 72 69 72 54 0 66 3 87 26 l24 26 -65 -9 c-36 -4 -92
-8 -125 -8 l-59 0 -33 65 c-18 36 -33 80 -33 99 0 20 -12 53 -31 83 -41 67
-36 90 21 105 126 34 144 40 148 52 4 11 -1 12 -19 7 -55 -18 -183 -44 -190
-40 -16 10 -46 112 -52 175 l-6 66 52 10 c29 5 53 11 55 11 2 1 21 -13 44 -30z
m-2628 -245 c20 -18 46 -33 57 -33 20 0 109 -57 109 -69 0 -3 16 -24 36 -46
58 -65 67 -96 67 -218 -1 -85 -5 -113 -20 -139 -32 -55 -114 -61 -171 -13 -29
24 -29 26 -34 149 -5 126 -14 156 -46 156 -13 0 -14 -13 -9 -82 8 -116 -14
-219 -59 -271 -36 -42 -134 -60 -181 -34 -12 7 -36 34 -54 60 -28 43 -32 56
-30 110 2 74 -17 193 -34 207 -7 6 -20 7 -30 4 -13 -6 -16 -14 -10 -43 13 -74
16 -169 6 -207 -6 -21 -29 -58 -51 -81 -36 -39 -43 -43 -88 -43 -88 0 -110 9
-144 59 -27 38 -32 55 -33 103 0 73 -12 85 -68 72 -63 -15 -217 -6 -217 12 0
8 14 23 32 32 17 9 60 43 95 75 34 31 67 57 72 57 5 0 31 16 57 36 51 39 130
84 148 84 6 0 28 9 48 20 77 41 283 79 419 77 93 -2 97 -3 133 -34z m4060 6
c-7 -12 -64 -12 -64 0 0 11 38 19 57 13 7 -2 10 -8 7 -13z m241 -9 c33 -7 68
-20 79 -29 10 -9 28 -15 40 -13 11 1 -8 -11 -43 -28 -72 -34 -88 -36 -136 -16
-40 17 -59 48 -50 83 5 20 11 24 28 20 12 -3 49 -11 82 -17z m-188 -37 c-3
-10 -5 -2 -5 17 0 19 2 27 5 18 2 -10 2 -26 0 -35z m-47 -13 c0 -5 -10 -10
-22 -10 -19 0 -20 2 -8 10 19 13 30 13 30 0z m654 -35 c11 -8 37 -15 57 -15
57 0 85 -15 98 -50 6 -18 8 -36 5 -41 -9 -15 -48 -10 -79 11 -16 11 -40 20
-51 20 -12 0 -27 7 -34 15 -7 8 -23 15 -36 15 -23 0 -41 30 -29 50 9 15 47 12
69 -5z m-193 -27 c32 -15 48 -29 49 -42 0 -14 3 -16 14 -7 10 8 21 8 40 1 15
-5 37 -10 49 -10 19 0 77 -48 77 -64 0 -14 -62 -4 -92 14 -18 11 -53 22 -78
26 -75 11 -140 51 -140 86 0 24 23 23 81 -4z m-414 4 c9 -6 12 -39 12 -113 -1
-57 5 -158 14 -224 16 -121 12 -145 -19 -145 -27 0 -47 63 -55 175 -4 61 -11
128 -15 151 -5 34 -2 48 20 82 14 23 26 44 26 47 0 3 -20 5 -44 5 -44 0 -68
13 -44 23 21 8 92 7 105 -1z m853 -48 c0 -3 -5 -15 -11 -26 -8 -16 -13 -18
-19 -8 -11 17 -1 40 16 40 8 0 14 -3 14 -6z m0 -100 c0 -14 -4 -23 -10 -19 -5
3 -10 15 -10 26 0 10 5 19 10 19 6 0 10 -12 10 -26z m-3562 -55 c2 -4 18 -1
36 7 29 14 39 14 106 -1 41 -9 84 -17 95 -18 26 -3 133 -69 167 -105 15 -15
46 -62 69 -102 38 -67 44 -85 52 -170 12 -126 15 -357 6 -395 -4 -16 -15 -61
-24 -100 -27 -114 -28 -115 -82 -115 -66 0 -184 24 -213 42 -14 9 -45 19 -70
23 -60 10 -130 34 -147 51 -8 8 -26 17 -41 20 -15 3 -43 12 -63 19 -34 13
-156 44 -239 60 -19 4 -51 16 -70 25 -126 65 -182 90 -189 85 -5 -3 -19 4 -32
14 -22 18 -22 20 -9 62 8 24 20 53 27 64 7 11 13 26 13 34 0 8 6 22 14 30 18
20 96 168 96 182 0 5 17 29 38 52 146 162 168 180 282 228 54 23 74 27 120 22
30 -3 56 -9 58 -14z m4472 3 c53 -11 53 -48 1 -117 -56 -74 -102 -89 -169 -56
-26 13 -58 29 -72 35 -35 16 -36 47 -3 107 l28 52 90 -7 c49 -4 106 -10 125
-14z m196 -33 c4 -7 24 -9 50 -6 53 6 58 -9 17 -58 -16 -17 -40 -53 -55 -78
-25 -42 -32 -47 -65 -49 -50 -2 -84 0 -90 6 -3 3 11 31 31 64 20 32 41 75 47
95 8 30 15 37 34 37 13 0 27 -5 31 -11z m-6845 -139 c4 -8 10 -26 13 -40 9
-40 81 -108 129 -121 69 -19 161 1 206 45 20 20 42 36 48 36 6 0 25 -18 42
-39 38 -48 118 -78 177 -66 60 11 123 45 150 81 l25 32 45 -29 c24 -17 44 -36
44 -42 0 -7 5 -50 10 -97 5 -47 6 -106 2 -130 -7 -42 -10 -45 -57 -62 -28 -10
-68 -27 -91 -38 -23 -11 -47 -20 -53 -20 -6 0 -29 -9 -51 -20 -21 -11 -55 -24
-77 -29 -21 -5 -86 -23 -144 -39 -59 -16 -131 -33 -160 -36 -30 -4 -101 -14
-158 -23 -125 -18 -397 -16 -409 5 -5 6 -9 69 -11 138 -3 156 -14 195 -58 206
-35 9 -39 17 -24 46 5 9 14 29 20 44 5 15 30 41 53 57 24 17 61 44 83 60 58
43 186 102 214 99 13 -2 28 -10 32 -18z m6379 -40 c30 -5 98 -17 150 -26 52
-9 109 -22 125 -30 17 -8 62 -17 100 -21 99 -11 99 -28 0 -121 -74 -71 -76
-72 -129 -72 -51 0 -54 -1 -48 -22 5 -19 2 -21 -24 -15 -33 6 -60 -5 -51 -21
4 -5 18 -8 31 -7 61 7 53 -54 -11 -80 -19 -8 -53 -31 -74 -50 -34 -30 -46 -35
-89 -35 -56 0 -67 -15 -18 -25 l31 -7 -24 -19 c-13 -10 -43 -23 -67 -30 -23
-6 -45 -16 -48 -20 -7 -13 -231 -11 -239 1 -3 6 2 23 12 38 32 48 42 66 73
124 16 32 30 62 30 68 0 11 67 160 96 215 9 17 23 55 31 85 17 65 38 92 67 85
12 -3 46 -9 76 -15z m-2032 -47 c-3 -30 -25 -42 -34 -19 -9 22 2 46 21 46 12
0 15 -8 13 -27z m-118 -2 c0 -16 -27 -31 -44 -25 -30 12 -14 31 27 33 9 1 17
-3 17 -8z m274 -56 c38 -14 71 -25 72 -25 2 0 4 -11 4 -24 0 -14 -10 -30 -25
-40 -14 -9 -25 -23 -25 -31 0 -19 -24 -19 -40 0 -8 9 -30 15 -56 15 -37 0 -44
3 -44 19 0 10 7 22 16 25 12 4 14 14 9 36 -6 29 -1 50 13 50 4 0 38 -11 76
-25z m-464 -15 c32 -17 65 -100 40 -100 -5 0 -10 -7 -10 -15 0 -13 12 -19 32
-16 4 0 34 -8 68 -19 46 -15 67 -17 81 -10 25 14 24 22 -6 50 -28 27 -33 50
-10 50 23 0 72 -27 78 -43 3 -7 -3 -49 -13 -91 -28 -117 -63 -145 -101 -82
-12 21 -30 36 -47 39 -17 3 -33 16 -40 31 -7 16 -21 26 -39 28 -37 4 -67 63
-68 135 -1 55 4 60 35 43z m286 -1 c8 -13 -15 -30 -36 -26 -8 1 -16 10 -18 20
-3 12 3 17 22 17 14 0 28 -5 32 -11z m-172 -15 c10 -25 -4 -37 -20 -17 -17 23
-17 33 0 33 8 0 17 -7 20 -16z m-223 -16 c7 -13 16 -41 20 -63 4 -22 10 -50
14 -63 l8 -23 -34 20 c-19 11 -54 40 -78 65 l-44 45 24 20 c33 28 75 27 90 -1z
m753 -53 c6 -9 29 -18 51 -22 22 -3 52 -14 67 -24 14 -11 31 -19 37 -19 6 0
11 -9 11 -20 0 -23 -78 -80 -110 -80 -38 0 -159 75 -160 98 0 16 65 82 82 82
6 0 16 -7 22 -15z m-224 -93 l33 -29 -30 -31 c-17 -18 -35 -32 -41 -32 -20 0
-24 21 -7 40 19 21 14 53 -7 45 -18 -7 -42 10 -34 24 12 20 51 12 86 -17z
m544 -58 c139 -45 186 -65 186 -79 0 -18 -52 -55 -77 -55 -10 0 -29 -7 -42
-16 -28 -20 -85 -13 -115 15 -12 10 -39 26 -61 35 -37 16 -54 31 -55 49 0 11
63 76 75 76 6 1 46 -11 89 -25z m-414 -21 c65 -36 69 -50 22 -69 -20 -8 -51
-22 -69 -32 -30 -15 -33 -15 -52 3 -26 23 -26 43 -1 75 11 14 20 31 20 38 0
19 26 14 80 -15z m-4982 -46 l-3 -62 -105 3 c-58 1 -143 6 -190 9 -47 4 -101
6 -120 5 -113 -6 -206 -7 -215 -3 -5 3 -22 4 -37 2 -14 -1 -29 2 -33 8 -3 7 2
11 14 11 11 0 23 5 26 10 3 6 18 10 33 10 15 0 40 7 56 15 15 8 43 15 61 15
18 0 38 7 45 15 14 16 48 19 293 22 l178 3 -3 -63z m1829 48 c6 -18 -23 -55
-44 -55 -18 0 -17 35 3 54 20 20 33 20 41 1z m-257 -87 c0 -43 -13 -69 -27
-54 -8 7 -4 106 4 119 10 17 23 -18 23 -65z m70 7 c0 -51 -3 -65 -15 -65 -12
0 -15 14 -15 65 0 51 3 65 15 65 12 0 15 -14 15 -65z m88 -8 c3 -61 1 -67 -16
-67 -16 0 -21 9 -26 43 -7 49 7 101 27 95 7 -3 13 -29 15 -71z m3027 12 c5
-30 3 -44 -6 -50 -21 -12 -29 -1 -29 40 0 64 25 71 35 10z m-3450 19 c13 -13
-26 -68 -53 -74 -15 -3 -38 -10 -52 -14 -14 -5 -43 -12 -65 -16 -22 -4 -63
-15 -91 -24 -65 -23 -98 -9 -39 16 56 23 237 103 255 113 16 9 36 8 45 -1z
m3852 -42 c11 -18 47 -36 73 -36 24 0 44 -40 26 -52 -6 -4 -28 -8 -50 -8 -21
0 -67 -5 -102 -12 -56 -10 -66 -9 -77 4 -6 9 -21 18 -32 20 -45 8 -15 40 80
87 29 14 73 13 82 -3z m-3222 -25 c83 -40 135 -62 170 -72 17 -4 66 -22 110
-39 44 -18 105 -36 135 -40 30 -4 90 -24 133 -44 42 -20 103 -42 135 -47 62
-11 91 -24 80 -35 -10 -10 -197 -5 -243 7 -63 16 -204 60 -272 86 -34 12 -67
23 -74 23 -12 0 -112 43 -135 58 -115 74 -144 98 -144 119 0 22 41 15 105 -16z
m3851 -11 c32 -11 63 -25 68 -30 6 -6 27 -10 47 -10 47 0 59 -16 22 -31 -15
-6 -41 -17 -56 -25 -16 -8 -41 -14 -55 -14 -15 -1 -38 -7 -52 -15 -14 -8 -52
-14 -85 -15 -48 0 -64 4 -77 20 -10 11 -30 22 -45 26 -28 7 -63 31 -63 44 0 8
29 15 135 32 39 6 74 17 78 25 10 17 13 17 83 -7z m-4463 -37 c3 -5 8 -47 12
-95 l7 -87 -154 -4 c-237 -8 -302 -24 -462 -113 -139 -78 -235 -145 -300 -208
-55 -53 -56 -54 -127 -58 -61 -3 -74 -7 -88 -27 -9 -12 -26 -34 -37 -49 l-22
-26 -30 32 c-16 17 -35 32 -41 32 -7 0 -22 10 -35 23 -22 22 -23 28 -20 178 3
152 3 154 29 177 21 17 38 22 84 22 31 0 81 7 110 16 64 19 238 50 381 69 58
7 132 18 165 24 33 6 105 16 160 22 64 7 104 15 111 25 7 9 40 16 88 20 44 4
81 13 87 20 12 15 75 19 82 7z m397 -42 c0 -6 -4 -13 -10 -16 -5 -3 -10 -29
-10 -57 0 -33 -6 -59 -19 -76 -10 -15 -27 -46 -38 -70 l-20 -43 -50 45 c-28
26 -58 46 -67 46 -26 0 -93 37 -100 55 -3 9 -6 36 -6 61 0 46 -3 43 65 57 41
9 255 7 255 -2z m3700 -20 c19 -11 50 -27 68 -36 32 -15 43 -34 20 -36 -16 -1
-55 -1 -230 1 -105 1 -140 5 -149 16 -9 11 -24 13 -60 8 -40 -5 -49 -4 -49 8
0 12 23 16 123 21 70 3 139 12 162 21 54 20 74 19 115 -3z m-3418 -64 c80 -35
158 -73 173 -85 15 -12 36 -22 47 -22 11 0 44 -11 75 -26 31 -14 70 -28 87
-31 17 -3 51 -15 76 -26 141 -61 192 -78 251 -87 37 -5 77 -14 91 -19 13 -5
59 -12 102 -16 73 -7 79 -9 90 -36 9 -21 9 -47 1 -106 l-11 -78 -49 -6 c-55
-6 -144 -44 -152 -66 -9 -24 -27 -14 -73 42 -66 81 -215 211 -289 253 -35 19
-78 48 -95 62 -35 31 -193 83 -302 100 -75 12 -258 -1 -294 -20 -10 -5 -21
-10 -24 -10 -10 0 -6 39 4 45 18 11 60 103 60 131 0 36 26 64 59 64 15 0 92
-28 173 -63z m-1450 47 c18 -11 -44 -31 -132 -44 -47 -6 -152 -10 -235 -8
-129 3 -150 5 -153 19 -3 15 18 17 206 17 114 1 218 5 230 9 30 11 72 14 84 7z
m4188 -24 c0 -5 -2 -10 -4 -10 -3 0 -8 5 -11 10 -3 6 -1 10 4 10 6 0 11 -4 11
-10z m-5350 -50 c0 -27 5 -42 18 -49 16 -9 16 -11 0 -39 -16 -26 -16 -31 -3
-42 21 -17 19 -30 -4 -30 -11 0 -23 -4 -26 -10 -11 -18 -25 -10 -25 14 0 13 7
26 15 30 17 6 21 46 4 46 -7 0 -9 11 -6 27 3 15 1 36 -5 46 -12 23 -4 47 17
47 11 0 15 -11 15 -40z m5433 26 c18 -8 56 -22 85 -31 54 -17 59 -24 42 -56
-14 -24 -29 -24 -107 2 -65 22 -84 46 -69 84 7 18 10 19 49 1z m1067 -30 c0
-31 -5 -46 -16 -50 -26 -10 -33 2 -32 49 0 40 3 45 24 45 22 0 24 -4 24 -44z
m-80 17 c-1 -13 -27 -43 -36 -43 -11 1 -54 36 -54 44 0 3 20 6 45 6 25 0 45
-3 45 -7z m-301 -39 c11 -10 -12 -34 -33 -34 -31 0 -42 16 -25 36 10 12 43 12
58 -2z m89 -4 c9 -16 23 -20 61 -20 72 0 75 -20 4 -21 -108 -2 -122 3 -123 44
0 24 42 22 58 -3z m-228 0 c18 -5 21 -9 10 -13 -25 -10 -70 -3 -70 11 0 13 21
14 60 2z m-3015 -40 c89 -24 195 -41 319 -50 76 -6 146 -15 155 -19 9 -5 55
-12 103 -16 101 -8 120 -20 94 -60 -28 -42 -57 -50 -134 -37 -174 31 -260 49
-292 64 -19 9 -71 28 -115 43 -225 77 -303 122 -130 75z m2700 4 c20 -8 35
-18 32 -21 -8 -8 -77 17 -77 28 0 12 1 12 45 -7z m115 -24 c0 -5 -2 -10 -4
-10 -3 0 -8 5 -11 10 -3 6 -1 10 4 10 6 0 11 -4 11 -10z m-3791 -31 c36 -6 80
-18 98 -25 17 -8 34 -14 37 -14 3 0 32 -17 64 -39 31 -21 71 -46 89 -55 47
-23 153 -125 153 -146 0 -14 -9 -20 -32 -22 -23 -2 -36 -11 -48 -32 -18 -34
-13 -31 -155 -95 -135 -60 -173 -73 -300 -101 -55 -12 -118 -28 -140 -36 -36
-12 -161 -27 -335 -41 -74 -6 -319 15 -337 30 -10 7 -9 15 2 38 11 20 14 54
13 118 -3 103 -9 94 122 208 95 84 226 154 325 173 33 7 67 15 75 18 71 28
263 39 369 21z m-1975 -88 c3 -5 -1 -12 -10 -15 -25 -10 -34 -7 -34 9 0 16 35
21 44 6z m2691 -27 c55 -15 116 -37 135 -49 20 -13 65 -37 100 -55 84 -42 150
-93 231 -177 64 -67 169 -204 169 -222 0 -4 -27 -20 -61 -35 -45 -20 -77 -26
-128 -26 -37 0 -90 -7 -117 -15 -58 -17 -342 -20 -414 -4 -25 6 -57 10 -72 9
-14 0 -38 4 -53 10 -23 9 -25 13 -15 25 7 8 17 15 23 15 28 0 175 125 183 155
10 41 -99 181 -173 223 -37 21 -157 148 -150 159 3 4 58 9 124 11 103 3 131 0
218 -24z m-2697 -30 c25 -7 31 -44 7 -44 -21 0 -19 -47 3 -59 9 -6 12 -11 5
-11 -6 0 -19 -7 -28 -16 -15 -15 -14 -18 7 -41 15 -16 22 -34 19 -51 -4 -37
-16 -49 -50 -50 -27 -1 -29 2 -34 46 -3 26 -1 53 5 59 6 7 8 22 5 32 -3 11 2
29 9 40 11 15 12 25 3 45 -9 20 -9 29 1 41 14 17 16 17 48 9z m2 -324 c0 -5
-6 -10 -14 -10 -24 0 -29 -20 -10 -41 16 -18 17 -21 1 -36 -15 -16 -18 -15
-36 1 -15 14 -18 23 -11 41 5 13 6 25 3 28 -3 3 -2 10 2 16 8 14 65 14 65 1z"/>
<path d="M3930 6190 c-27 -27 -28 -113 -1 -154 42 -63 118 -75 170 -27 53 50
40 120 -33 170 -53 37 -106 41 -136 11z"/>
<path d="M4594 6169 c-81 -23 -69 -165 18 -219 58 -36 77 -36 110 -2 24 23 32
42 35 79 4 41 1 52 -21 76 -14 15 -26 32 -26 37 0 11 -54 40 -72 39 -7 0 -27
-5 -44 -10z"/>
<path d="M8416 5242 c-7 -12 22 -38 31 -28 4 3 0 14 -9 22 -9 10 -18 12 -22 6z"/>
<path d="M8470 5167 c0 -27 18 -57 35 -57 21 0 19 10 -10 45 -19 24 -24 26
-25 12z"/>
<path d="M8137 5054 c-7 -8 21 -66 37 -76 17 -11 29 8 18 29 -14 26 -47 54
-55 47z"/>
<path d="M8230 5037 c0 -8 7 -18 16 -21 11 -4 14 -1 12 11 -4 21 -28 30 -28
10z"/>
<path d="M8552 5028 c6 -18 28 -21 28 -4 0 9 -7 16 -16 16 -9 0 -14 -5 -12
-12z"/>
<path d="M8470 5016 c0 -8 5 -18 10 -21 6 -3 10 1 10 9 0 8 -4 18 -10 21 -5 3
-10 -1 -10 -9z"/>
<path d="M8500 4961 c0 -19 12 -41 20 -36 10 6 1 45 -11 45 -5 0 -9 -4 -9 -9z"/>
<path d="M8550 4850 c0 -13 7 -20 20 -20 11 0 20 4 20 10 0 5 -9 14 -20 20
-17 9 -20 8 -20 -10z"/>
<path d="M8255 4841 c-3 -5 -1 -12 5 -16 5 -3 10 1 10 9 0 18 -6 21 -15 7z"/>
<path d="M8600 4745 c0 -8 7 -15 15 -15 8 0 15 4 15 9 0 5 -7 11 -15 15 -9 3
-15 0 -15 -9z"/>
<path d="M8465 4671 c-3 -5 -1 -12 5 -16 5 -3 10 1 10 9 0 18 -6 21 -15 7z"/>
<path d="M8660 4631 c0 -6 5 -13 10 -16 6 -3 10 1 10 9 0 9 -4 16 -10 16 -5 0
-10 -4 -10 -9z"/>
<path d="M8867 3127 c-3 -8 -8 -40 -12 -73 -5 -32 -14 -77 -22 -99 -25 -71
-44 -178 -33 -189 7 -7 10 -4 10 7 0 9 11 49 24 89 36 111 62 256 49 269 -7 7
-12 6 -16 -4z"/>
<path d="M7662 4558 c2 -12 11 -24 21 -26 14 -3 18 1 15 20 -2 12 -11 24 -21
26 -14 3 -18 -1 -15 -20z"/>
<path d="M10713 4083 c-41 -8 -27 -33 18 -33 33 0 40 3 37 17 -3 19 -19 23
-55 16z"/>
<path d="M9253 4128 c-39 -27 -55 -48 -35 -48 15 0 112 61 112 70 0 18 -35 9
-77 -22z"/>
<path d="M1757 3943 c-10 -9 -8 -51 2 -57 15 -9 33 22 26 44 -6 20 -16 25 -28
13z"/>
<path d="M1654 3934 c-7 -3 -10 -14 -7 -25 7 -25 38 -21 38 5 0 20 -12 28 -31
20z"/>
<path d="M1850 3921 c0 -27 13 -33 35 -17 21 15 12 36 -16 36 -12 0 -19 -7
-19 -19z"/>
<path d="M1963 3925 c-7 -19 -4 -22 22 -27 14 -2 21 3 23 20 3 17 -2 22 -18
22 -11 0 -23 -7 -27 -15z"/>
<path d="M2075 3930 c-8 -14 13 -50 30 -50 15 0 30 35 20 50 -8 13 -42 13 -50
0z"/>
<path d="M2179 3924 c-11 -14 -11 -18 6 -30 22 -16 39 -5 33 22 -4 24 -22 28
-39 8z"/>
<path d="M2277 3934 c-4 -4 -7 -16 -7 -26 0 -14 6 -19 23 -16 14 2 22 10 22
23 0 20 -25 32 -38 19z"/>
<path d="M1739 3864 c-9 -11 -10 -20 -2 -32 16 -25 38 -20 41 9 4 31 -20 45
-39 23z"/>
<path d="M1840 3841 c0 -24 3 -28 20 -24 13 3 20 14 20 29 0 17 -6 24 -20 24
-15 0 -20 -7 -20 -29z"/>
<path d="M1944 3855 c-9 -22 22 -53 37 -38 15 15 7 47 -14 51 -9 2 -20 -4 -23
-13z"/>
<path d="M2074 3846 c-9 -23 13 -45 37 -39 14 4 19 12 17 27 -4 26 -45 35 -54
12z"/>
<path d="M2184 3846 c-9 -24 3 -46 26 -46 17 0 21 5 18 27 -3 31 -34 44 -44
19z"/>
<path d="M2270 3841 c0 -27 13 -33 35 -17 21 15 12 36 -16 36 -12 0 -19 -7
-19 -19z"/>
<path d="M1652 3826 c2 -15 8 -26 13 -26 15 0 12 43 -3 48 -10 3 -13 -4 -10
-22z"/>
<path d="M1875 3776 c-21 -15 -14 -46 10 -46 10 0 15 10 15 30 0 34 0 34 -25
16z"/>
<path d="M1764 3756 c-8 -21 3 -36 27 -36 15 0 20 6 17 22 -4 27 -35 37 -44
14z"/>
<path d="M1944 3759 c-3 -6 1 -18 10 -27 15 -15 17 -15 32 0 19 19 11 38 -16
38 -10 0 -22 -5 -26 -11z"/>
<path d="M2062 3748 c2 -13 10 -23 18 -23 8 0 16 10 18 23 3 17 -2 22 -18 22
-16 0 -21 -5 -18 -22z"/>
<path d="M2150 3746 c0 -28 24 -41 40 -21 16 20 5 45 -20 45 -14 0 -20 -7 -20
-24z"/>
<path d="M1664 3745 c-7 -18 2 -45 15 -45 12 0 24 37 16 50 -9 15 -25 12 -31
-5z"/>
<path d="M2014 3678 c-12 -39 45 -60 60 -22 3 8 -6 20 -24 29 -27 14 -29 14
-36 -7z"/>
<path d="M1854 3675 c-7 -18 2 -45 15 -45 6 0 15 9 21 20 8 15 6 21 -10 30
-16 9 -22 8 -26 -5z"/>
<path d="M1921 3666 c-16 -19 -6 -36 20 -36 15 0 20 6 17 22 -4 27 -21 33 -37
14z"/>
<path d="M1657 3663 c-15 -15 -7 -43 13 -43 15 0 20 7 20 25 0 24 -18 34 -33
18z"/>
<path d="M1750 3645 c0 -28 24 -34 34 -9 8 20 -1 34 -20 34 -8 0 -14 -10 -14
-25z"/>
<path d="M1773 3593 c-7 -3 -13 -15 -13 -28 0 -18 4 -22 20 -18 11 3 20 14 20
24 0 21 -10 28 -27 22z"/>
<path d="M1866 3591 c-9 -14 4 -41 20 -41 8 0 14 10 14 25 0 25 -23 35 -34 16z"/>
<path d="M1940 3576 c0 -31 12 -39 35 -22 23 16 13 46 -15 46 -15 0 -20 -7
-20 -24z"/>
<path d="M2036 3591 c-10 -16 5 -41 24 -41 16 0 30 18 30 41 0 12 -47 12 -54
0z"/>
<path d="M1646 3575 c-8 -22 1 -35 25 -35 15 0 20 6 17 22 -4 27 -33 36 -42
13z"/>
<path d="M1944 3506 c-9 -24 4 -48 23 -44 12 2 18 12 18 28 0 29 -32 41 -41
16z"/>
<path d="M2043 3513 c-15 -5 -18 -53 -4 -53 5 0 17 7 26 16 24 25 9 50 -22 37z"/>
<path d="M1757 3504 c-15 -15 -7 -45 11 -42 9 2 17 12 17 22 0 20 -16 31 -28
20z"/>
<path d="M1854 3495 c-8 -21 3 -48 19 -43 19 7 22 58 2 58 -8 0 -18 -7 -21
-15z"/>
<path d="M1644 3485 c-7 -18 3 -35 21 -35 15 0 28 27 19 41 -8 14 -34 11 -40
-6z"/>
<path d="M1924 3415 c-8 -21 3 -48 19 -43 19 7 22 58 2 58 -8 0 -18 -7 -21
-15z"/>
<path d="M1743 3404 c-3 -8 1 -22 9 -30 13 -13 16 -13 27 -1 14 17 4 47 -15
47 -8 0 -17 -7 -21 -16z"/>
<path d="M1840 3412 c0 -6 -3 -18 -6 -27 -6 -13 -1 -16 22 -13 37 4 42 41 7
46 -13 2 -23 -1 -23 -6z"/>
<path d="M1654 3395 c-4 -9 -2 -21 4 -27 15 -15 44 -1 40 19 -4 23 -36 29 -44
8z"/>
<path d="M1736 3317 c-22 -16 -18 -50 6 -55 12 -2 19 5 24 23 8 34 -6 49 -30
32z"/>
<path d="M1827 3323 c-11 -10 -8 -41 4 -49 16 -9 43 21 36 40 -7 16 -28 21
-40 9z"/>
<path d="M1923 3323 c-21 -8 -15 -43 7 -43 15 0 20 7 20 25 0 25 -4 28 -27 18z"/>
<path d="M1647 3304 c-15 -15 -7 -45 11 -42 9 2 17 12 17 22 0 20 -16 31 -28
20z"/>
<path d="M1734 3216 c-8 -22 3 -49 19 -43 6 2 12 14 12 27 0 27 -22 39 -31 16z"/>
<path d="M1814 3215 c-8 -21 3 -48 19 -43 19 7 22 58 2 58 -8 0 -18 -7 -21
-15z"/>
<path d="M1640 3195 c0 -20 4 -26 18 -23 9 2 17 12 17 23 0 11 -8 21 -17 23
-14 3 -18 -3 -18 -23z"/>
<path d="M1890 3200 c0 -16 5 -21 23 -18 12 2 22 10 22 18 0 8 -10 16 -22 18
-18 3 -23 -2 -23 -18z"/>
<path d="M1746 3125 c-12 -13 -14 -20 -6 -30 23 -28 51 2 31 33 -6 11 -11 10
-25 -3z"/>
<path d="M1824 3115 c-4 -10 -1 -21 7 -26 20 -12 34 -5 34 17 0 24 -33 31 -41
9z"/>
<path d="M1644 3105 c-7 -18 3 -35 21 -35 18 0 28 32 13 42 -19 11 -28 10 -34
-7z"/>
<path d="M1726 3024 c-4 -11 1 -25 13 -38 19 -19 21 -19 27 -1 7 18 -5 46 -23
52 -6 2 -14 -4 -17 -13z"/>
<path d="M1803 3014 c-3 -8 -1 -20 5 -26 16 -16 42 -2 42 22 0 24 -38 28 -47
4z"/>
<path d="M1644 3005 c-8 -19 3 -35 26 -35 19 0 34 25 24 41 -8 14 -44 10 -50
-6z"/>
<path d="M1835 2936 c-11 -8 -16 -19 -12 -30 9 -22 41 -17 45 8 6 27 -11 38
-33 22z"/>
<path d="M1741 2923 c-12 -24 2 -48 24 -40 10 4 15 15 13 29 -4 28 -24 34 -37
11z"/>
<path d="M1664 2916 c-8 -22 3 -49 19 -43 6 2 12 14 12 27 0 27 -22 39 -31 16z"/>
<path d="M1833 2844 c-8 -22 5 -46 24 -42 27 5 29 44 3 51 -13 3 -23 0 -27 -9z"/>
<path d="M1657 2833 c-4 -3 -7 -17 -7 -30 0 -16 6 -23 20 -23 16 0 20 7 20 30
0 28 -17 40 -33 23z"/>
<path d="M1744 2826 c-7 -19 2 -46 15 -46 15 0 42 31 38 44 -6 18 -46 19 -53
2z"/>
<path d="M1812 2751 c-21 -13 -10 -46 16 -49 27 -4 40 22 22 43 -14 17 -20 18
-38 6z"/>
<path d="M1647 2743 c-4 -3 -7 -17 -7 -30 0 -26 34 -33 44 -8 11 30 -17 59
-37 38z"/>
<path d="M1727 2744 c-4 -4 -7 -16 -7 -26 0 -13 7 -18 26 -18 21 0 25 4 22 22
-3 23 -27 35 -41 22z"/>
<path d="M1726 2653 c-3 -4 -6 -17 -6 -30 0 -16 6 -23 20 -23 14 0 20 7 20 24
0 23 -22 41 -34 29z"/>
<path d="M1641 2557 c-15 -19 -3 -47 21 -47 15 0 19 6 16 27 -4 31 -20 40 -37
20z"/>
<path d="M8025 3731 c-3 -5 -1 -12 5 -16 12 -7 30 2 30 16 0 12 -27 12 -35 0z"/>
<path d="M8250 3700 c-8 -4 -34 -16 -57 -26 -40 -16 -57 -34 -32 -34 17 0 109
52 109 62 0 9 0 9 -20 -2z"/>
<path d="M6910 3606 c0 -9 19 -16 61 -20 73 -9 85 -2 36 19 -46 19 -97 20 -97
1z"/>
<path d="M8350 3241 c0 -11 26 -22 34 -14 12 12 5 23 -14 23 -11 0 -20 -4 -20
-9z"/>
<path d="M6500 3226 c0 -15 50 -56 69 -56 18 0 12 15 -17 43 -31 30 -52 35
-52 13z"/>
<path d="M6636 3132 c-3 -5 4 -15 16 -23 11 -8 33 -24 48 -36 25 -21 40 -21
40 -1 0 9 -79 68 -91 68 -4 0 -10 -4 -13 -8z"/>
<path d="M6864 2998 c-4 -6 2 -17 12 -24 10 -8 30 -23 42 -34 26 -22 38 -25
46 -11 3 5 -16 25 -44 45 -32 23 -52 32 -56 24z"/>
<path d="M7360 2900 c0 -5 7 -10 15 -10 8 0 15 5 15 10 0 6 -7 10 -15 10 -8 0
-15 -4 -15 -10z"/>
<path d="M7427 2864 c-8 -8 1 -24 14 -24 5 0 9 7 9 15 0 15 -12 20 -23 9z"/>
<path d="M3962 3387 c-27 -27 -32 -41 -32 -79 0 -71 36 -96 125 -85 68 7 95
29 95 78 0 52 -11 72 -55 98 -54 31 -95 28 -133 -12z"/>
<path d="M9245 3260 c-11 -18 2 -24 53 -24 35 -1 47 3 47 14 0 18 -89 27 -100
10z"/>
<path d="M9410 3030 c0 -5 5 -10 10 -10 6 0 10 5 10 10 0 6 -4 10 -10 10 -5 0
-10 -4 -10 -10z"/>
<path d="M9710 3016 c0 -10 9 -16 21 -16 24 0 21 23 -4 28 -10 2 -17 -3 -17
-12z"/>
<path d="M9630 3010 c0 -5 7 -10 15 -10 8 0 15 5 15 10 0 6 -7 10 -15 10 -8 0
-15 -4 -15 -10z"/>
<path d="M9090 2421 c0 -9 41 -23 48 -16 2 2 1 8 -3 14 -8 13 -45 15 -45 2z"/>
<path d="M1654 1485 c-6 -16 2 -35 16 -35 14 0 41 31 35 41 -9 14 -45 11 -51
-6z"/>
<path d="M10705 2790 c-85 -8 -127 -28 -161 -79 -57 -88 -18 -171 82 -171 84
0 129 -62 49 -68 -82 -5 -100 -11 -118 -42 -17 -28 -17 -32 0 -81 18 -52 21
-54 105 -87 56 -22 40 -141 -21 -163 -14 -5 -33 -13 -41 -19 -8 -5 -35 -21
-60 -35 -48 -27 -77 -74 -101 -165 -13 -51 -13 -263 0 -469 6 -84 6 -155 0
-186 -5 -27 -7 -62 -4 -77 6 -26 -8 -47 -20 -28 -10 15 -35 12 -35 -5 0 -8 6
-15 14 -15 8 0 16 -5 18 -12 3 -8 46 -12 140 -14 75 -1 167 -7 205 -14 66 -12
195 -9 261 5 19 4 44 2 62 -5 22 -9 33 -10 44 -1 24 20 103 30 131 15 31 -16
41 -2 20 30 -13 20 -16 40 -11 88 3 35 6 208 6 386 1 285 0 328 -16 370 -33
89 -69 134 -129 164 -62 31 -85 57 -85 94 0 40 19 60 70 74 51 14 73 52 64
112 -9 57 -17 65 -74 73 -50 7 -74 23 -62 40 9 13 73 35 101 35 37 0 58 17 75
62 16 39 16 44 0 82 -10 23 -30 53 -45 67 -27 25 -33 26 -196 32 -92 3 -175 7
-183 10 -8 2 -46 1 -85 -3z m428 -73 c34 -22 45 -51 39 -99 -4 -34 -7 -38 -41
-44 -20 -3 -48 -10 -62 -15 -17 -7 -61 -6 -128 0 -57 6 -134 11 -171 11 -85 0
-165 18 -186 41 -15 17 -15 21 0 52 8 19 22 40 30 46 25 21 103 28 301 27 166
-1 194 -3 218 -19z m-169 -223 c37 -14 -2 -24 -99 -24 -95 0 -125 7 -108 24 8
8 186 8 207 0z m133 -78 c29 -9 37 -39 21 -73 -22 -46 -129 -59 -331 -41
l-139 12 -25 33 c-22 28 -23 35 -12 49 7 9 21 19 31 23 23 8 427 6 455 -3z
m-102 -231 c14 -72 27 -89 90 -121 61 -30 105 -78 124 -134 21 -62 17 -63
-324 -55 -165 4 -316 9 -335 11 -33 4 -50 17 -50 40 0 32 85 104 141 117 24 6
53 34 102 98 9 13 17 38 17 55 0 40 9 42 135 40 l90 -1 10 -50z m-137 -360
c385 -1 362 5 373 -102 13 -109 11 -369 -3 -398 -11 -25 -38 -32 -103 -27 -11
1 -156 3 -322 4 -166 2 -305 7 -310 11 -12 12 -26 201 -26 359 -1 143 8 177
42 162 9 -4 166 -8 349 -9z m-108 -585 c63 -5 167 -9 230 -9 160 -1 161 -1
197 -4 43 -3 47 -9 30 -49 l-14 -34 -99 -12 c-210 -26 -483 -16 -562 19 -39
18 -43 23 -40 52 2 26 8 33 33 38 45 10 98 10 225 -1z"/>
<path d="M10835 1740 c-3 -5 -8 -26 -11 -46 -6 -51 -18 -63 -72 -66 l-47 -3 0
-45 0 -45 55 -5 55 -5 3 -62 3 -63 48 0 c46 0 49 1 55 31 3 17 6 44 6 60 0 26
3 28 48 31 45 3 47 4 50 37 2 19 1 44 -2 57 -6 21 -12 24 -50 24 -48 0 -56 9
-56 65 0 21 -6 35 -16 39 -24 9 -62 7 -69 -4z"/>
<path d="M5440 1790 c0 -5 9 -10 21 -10 11 0 17 5 14 10 -3 6 -13 10 -21 10
-8 0 -14 -4 -14 -10z"/>
<path d="M5520 1785 c0 -9 9 -15 25 -15 16 0 25 6 25 15 0 9 -9 15 -25 15 -16
0 -25 -6 -25 -15z"/>
<path d="M5470 1215 c0 -8 7 -15 15 -15 8 0 15 7 15 15 0 8 -7 15 -15 15 -8 0
-15 -7 -15 -15z"/>
<path d="M5577 1223 c-12 -11 -8 -23 8 -23 8 0 15 7 15 15 0 16 -12 20 -23 8z"/>
<path d="M5667 1223 c-12 -11 -8 -23 8 -23 8 0 15 7 15 15 0 16 -12 20 -23 8z"/>
<path d="M5880 1200 c0 -13 5 -20 13 -17 6 2 12 10 12 17 0 7 -6 15 -12 18 -8
2 -13 -5 -13 -18z"/>
<path d="M1293 1203 c-21 -7 -15 -33 7 -33 11 0 20 6 20 14 0 18 -11 25 -27
19z"/>
<path d="M1926 1203 c-12 -12 -6 -33 9 -33 8 0 15 6 15 14 0 17 -14 28 -24 19z"/>
<path d="M2030 1189 c0 -15 4 -19 16 -15 9 3 28 6 44 6 16 0 30 7 34 15 4 12
-4 15 -44 15 -44 0 -50 -2 -50 -21z"/>
<path d="M5950 1190 c0 -11 7 -20 15 -20 8 0 15 9 15 20 0 11 -7 20 -15 20 -8
0 -15 -9 -15 -20z"/>
<path d="M6037 1204 c-9 -10 2 -24 19 -24 8 0 14 7 14 15 0 15 -21 21 -33 9z"/>
<path d="M6132 1198 c5 -15 28 -18 29 -3 0 6 -7 12 -17 13 -10 3 -15 -1 -12
-10z"/>
<path d="M6915 1201 c-8 -15 3 -31 21 -31 9 0 14 7 12 17 -4 20 -24 28 -33 14z"/>
<path d="M7040 1195 c0 -10 7 -15 18 -13 21 4 19 22 -2 26 -10 2 -16 -3 -16
-13z"/>
<path d="M7152 1193 c4 -21 33 -25 33 -3 0 8 -8 16 -18 18 -14 3 -18 -1 -15
-15z"/>
<path d="M1140 1181 c0 -12 6 -21 16 -21 9 0 14 7 12 17 -5 25 -28 28 -28 4z"/>
<path d="M6680 1186 c0 -15 24 -28 34 -19 13 14 5 33 -14 33 -11 0 -20 -6 -20
-14z"/>
<path d="M7260 1179 c0 -24 23 -21 28 4 2 10 -3 17 -12 17 -10 0 -16 -9 -16
-21z"/>
<path d="M7372 1183 c2 -10 10 -18 18 -18 22 0 18 29 -3 33 -14 3 -18 -1 -15
-15z"/>
<path d="M7965 1190 c-7 -12 2 -30 16 -30 5 0 9 9 9 20 0 21 -15 27 -25 10z"/>
<path d="M8094 1189 c-8 -14 11 -33 25 -25 6 4 11 11 11 16 0 13 -29 20 -36 9z"/>
<path d="M8235 1191 c-8 -15 3 -31 21 -31 9 0 14 7 12 17 -4 20 -24 28 -33 14z"/>
<path d="M8337 1193 c-4 -3 -7 -12 -7 -20 0 -15 26 -18 34 -4 7 11 -18 33 -27
24z"/>
<path d="M6782 1179 c2 -6 8 -10 13 -10 5 0 11 4 13 10 2 6 -4 11 -13 11 -9 0
-15 -5 -13 -11z"/>
<path d="M7487 1184 c-9 -10 2 -24 19 -24 8 0 14 7 14 15 0 15 -21 21 -33 9z"/>
<path d="M7620 1175 c0 -8 7 -15 15 -15 8 0 15 7 15 15 0 8 -7 15 -15 15 -8 0
-15 -7 -15 -15z"/>
<path d="M7740 1175 c0 -8 7 -15 15 -15 8 0 15 7 15 15 0 8 -7 15 -15 15 -8 0
-15 -7 -15 -15z"/>
<path d="M7835 1181 c-7 -12 12 -24 25 -16 11 7 4 25 -10 25 -5 0 -11 -4 -15
-9z"/>
<path d="M8450 1175 c0 -8 7 -15 15 -15 8 0 15 7 15 15 0 8 -7 15 -15 15 -8 0
-15 -7 -15 -15z"/>
<path d="M8660 1170 c0 -11 7 -20 15 -20 8 0 15 9 15 20 0 11 -7 20 -15 20 -8
0 -15 -9 -15 -20z"/>
<path d="M8560 1164 c0 -9 7 -14 17 -12 25 5 28 28 4 28 -12 0 -21 -6 -21 -16z"/>
<path d="M11565 1171 c-3 -5 -1 -12 5 -16 5 -3 10 1 10 9 0 18 -6 21 -15 7z"/>
<path d="M11333 1163 c-18 -6 -16 -33 1 -33 19 0 31 19 20 30 -5 4 -15 5 -21
3z"/>
<path d="M11457 1164 c-9 -10 2 -24 19 -24 8 0 14 7 14 15 0 15 -21 21 -33 9z"/>
<path d="M5466 1153 c-11 -11 -6 -23 9 -23 8 0 15 4 15 9 0 13 -16 22 -24 14z"/>
<path d="M5536 1153 c-11 -12 -6 -30 9 -30 8 0 15 6 15 13 0 15 -15 26 -24 17z"/>
<path d="M7333 1153 c-18 -6 -16 -33 1 -33 8 0 17 4 20 8 7 12 -7 30 -21 25z"/>
<path d="M9377 1154 c-9 -10 2 -24 19 -24 8 0 14 7 14 15 0 15 -21 21 -33 9z"/>
<path d="M1961 1136 c-12 -14 -5 -26 16 -26 15 0 18 26 4 34 -5 3 -14 0 -20
-8z"/>
<path d="M5680 1135 c0 -8 5 -15 10 -15 6 0 10 7 10 15 0 8 -4 15 -10 15 -5 0
-10 -7 -10 -15z"/>
<path d="M5772 1134 c4 -21 22 -23 26 -1 2 10 -3 17 -13 17 -10 0 -15 -6 -13
-16z"/>
<path d="M5886 1143 c-12 -12 -6 -33 9 -33 8 0 15 6 15 14 0 17 -14 28 -24 19z"/>
<path d="M9910 1140 c0 -5 7 -10 15 -10 8 0 15 5 15 10 0 6 -7 10 -15 10 -8 0
-15 -4 -15 -10z"/>
<path d="M1167 1133 c-13 -12 -7 -23 13 -23 11 0 20 7 20 15 0 15 -21 21 -33
8z"/>
<path d="M5980 1125 c0 -8 7 -15 15 -15 8 0 15 7 15 15 0 8 -7 15 -15 15 -8 0
-15 -7 -15 -15z"/>
<path d="M7200 1125 c0 -10 7 -15 18 -13 21 4 19 22 -2 26 -10 2 -16 -3 -16
-13z"/>
<path d="M110 1111 c0 -12 6 -21 16 -21 9 0 14 7 12 17 -5 25 -28 28 -28 4z"/>
<path d="M207 1123 c-14 -13 -7 -33 11 -33 26 0 34 11 21 27 -13 14 -22 16
-32 6z"/>
<path d="M695 1120 c-10 -16 16 -43 28 -31 11 11 2 41 -12 41 -5 0 -13 -5 -16
-10z"/>
<path d="M805 1120 c-4 -7 -3 -16 3 -22 14 -14 45 -2 40 15 -6 16 -34 21 -43
7z"/>
<path d="M936 1123 c-12 -12 -6 -33 9 -33 8 0 15 6 15 14 0 17 -14 28 -24 19z"/>
<path d="M1060 1115 c0 -8 7 -15 15 -15 8 0 15 7 15 15 0 8 -7 15 -15 15 -8 0
-15 -7 -15 -15z"/>
<path d="M1280 1114 c0 -9 7 -14 17 -12 25 5 28 28 4 28 -12 0 -21 -6 -21 -16z"/>
<path d="M1650 1115 c0 -8 7 -15 15 -15 8 0 15 7 15 15 0 8 -7 15 -15 15 -8 0
-15 -7 -15 -15z"/>
<path d="M1787 1123 c-13 -12 -7 -23 13 -23 11 0 20 7 20 15 0 15 -21 21 -33
8z"/>
<path d="M2045 1120 c3 -5 13 -10 21 -10 8 0 14 5 14 10 0 6 -9 10 -21 10 -11
0 -17 -4 -14 -10z"/>
<path d="M6068 1096 c-5 -42 0 -56 18 -56 10 0 14 13 14 45 0 55 -26 64 -32
11z"/>
<path d="M6687 1124 c-9 -10 2 -24 19 -24 8 0 14 7 14 15 0 15 -21 21 -33 9z"/>
<path d="M6790 1115 c0 -10 7 -15 18 -13 21 4 19 22 -2 26 -10 2 -16 -3 -16
-13z"/>
<path d="M6892 1118 c6 -18 28 -21 28 -4 0 9 -7 16 -16 16 -9 0 -14 -5 -12
-12z"/>
<path d="M6985 1121 c-3 -5 -1 -12 5 -16 12 -7 30 2 30 16 0 12 -27 12 -35 0z"/>
<path d="M7100 1114 c0 -17 22 -14 28 4 2 7 -3 12 -12 12 -9 0 -16 -7 -16 -16z"/>
<path d="M7417 1123 c-13 -12 -7 -23 13 -23 11 0 20 7 20 15 0 15 -21 21 -33
8z"/>
<path d="M7520 1115 c0 -8 7 -15 15 -15 8 0 15 7 15 15 0 8 -7 15 -15 15 -8 0
-15 -7 -15 -15z"/>
<path d="M7634 1116 c-8 -22 3 -33 18 -18 9 9 9 15 0 24 -9 9 -13 7 -18 -6z"/>
<path d="M7990 1111 c0 -12 6 -21 16 -21 9 0 14 7 12 17 -5 25 -28 28 -28 4z"/>
<path d="M8116 1122 c-8 -13 11 -35 23 -28 16 10 14 36 -3 36 -8 0 -17 -4 -20
-8z"/>
<path d="M8197 1123 c-13 -12 -7 -33 8 -33 8 0 15 9 15 20 0 20 -11 26 -23 13z"/>
<path d="M8453 1115 c-7 -20 2 -29 21 -22 9 4 13 13 10 22 -8 19 -23 19 -31 0z"/>
<path d="M8557 1124 c-13 -13 -7 -24 14 -24 11 0 19 5 17 12 -5 14 -22 21 -31
12z"/>
<path d="M8771 1111 c-10 -17 -9 -22 4 -27 26 -10 42 13 23 32 -15 15 -17 15
-27 -5z"/>
<path d="M10292 1113 c5 -25 28 -28 28 -4 0 12 -6 21 -16 21 -9 0 -14 -7 -12
-17z"/>
<path d="M307 1113 c-18 -17 10 -37 38 -27 12 5 13 10 4 20 -12 15 -31 18 -42
7z"/>
<path d="M437 1113 c-13 -12 -7 -23 13 -23 11 0 20 7 20 15 0 15 -21 21 -33 8z"/>
<path d="M577 1114 c-8 -8 1 -24 14 -24 5 0 9 7 9 15 0 15 -12 20 -23 9z"/>
<path d="M7737 1114 c-13 -13 -7 -24 14 -24 11 0 19 5 17 12 -5 14 -22 21 -31
12z"/>
<path d="M7852 1104 c4 -21 22 -23 26 -1 2 10 -3 17 -13 17 -10 0 -15 -6 -13
-16z"/>
<path d="M8320 1105 c0 -8 7 -15 15 -15 8 0 15 7 15 15 0 8 -7 15 -15 15 -8 0
-15 -7 -15 -15z"/>
<path d="M8673 1104 c-8 -21 13 -42 28 -27 13 13 5 43 -11 43 -6 0 -13 -7 -17
-16z"/>
<path d="M10012 1094 c4 -21 22 -23 26 -1 2 10 -3 17 -13 17 -10 0 -15 -6 -13
-16z"/>
<path d="M10112 1094 c4 -21 22 -23 26 -1 2 10 -3 17 -13 17 -10 0 -15 -6 -13
-16z"/>
<path d="M10197 1096 c-3 -8 0 -17 8 -19 15 -7 25 1 25 20 0 17 -26 17 -33 -1z"/>
<path d="M9340 1080 c0 -13 5 -20 13 -17 6 2 12 10 12 17 0 7 -6 15 -12 18 -8
2 -13 -5 -13 -18z"/>
<path d="M9910 1085 c0 -10 7 -15 18 -13 21 4 19 22 -2 26 -10 2 -16 -3 -16
-13z"/>
<path d="M11370 1085 c0 -8 7 -15 15 -15 8 0 15 7 15 15 0 8 -7 15 -15 15 -8
0 -15 -7 -15 -15z"/>
<path d="M11497 1094 c-9 -10 2 -24 19 -24 8 0 14 7 14 15 0 15 -21 21 -33 9z"/>
<path d="M1363 1073 c-21 -7 -15 -33 7 -33 11 0 20 6 20 14 0 18 -11 25 -27
19z"/>
<path d="M1480 1060 c0 -11 7 -20 15 -20 8 0 15 9 15 20 0 11 -7 20 -15 20 -8
0 -15 -9 -15 -20z"/>
<path d="M5395 1070 c-9 -15 4 -30 20 -23 8 3 15 9 15 13 0 12 -29 20 -35 10z"/>
<path d="M5514 1069 c-8 -14 18 -31 30 -19 9 9 0 30 -14 30 -5 0 -12 -5 -16
-11z"/>
<path d="M5620 1065 c0 -8 7 -15 15 -15 8 0 15 7 15 15 0 8 -7 15 -15 15 -8 0
-15 -7 -15 -15z"/>
<path d="M5740 1066 c0 -15 24 -28 34 -19 13 14 5 33 -14 33 -11 0 -20 -6 -20
-14z"/>
<path d="M1227 1063 c-4 -3 -7 -12 -7 -20 0 -15 26 -18 34 -4 7 11 -18 33 -27
24z"/>
<path d="M2056 1063 c-12 -12 -6 -33 9 -33 8 0 15 6 15 14 0 17 -14 28 -24 19z"/>
<path d="M5290 1054 c0 -9 7 -14 17 -12 25 5 28 28 4 28 -12 0 -21 -6 -21 -16z"/>
<path d="M5850 1060 c0 -5 9 -10 20 -10 11 0 20 5 20 10 0 6 -9 10 -20 10 -11
0 -20 -4 -20 -10z"/>
<path d="M5970 1054 c0 -9 7 -14 17 -12 25 5 28 28 4 28 -12 0 -21 -6 -21 -16z"/>
<path d="M6710 1055 c0 -9 5 -15 11 -13 6 2 11 8 11 13 0 5 -5 11 -11 13 -6 2
-11 -4 -11 -13z"/>
<path d="M7171 1056 c-9 -10 -9 -16 -1 -21 17 -10 37 12 24 25 -8 8 -15 6 -23
-4z"/>
<path d="M7430 1056 c0 -9 7 -16 16 -16 9 0 14 5 12 12 -6 18 -28 21 -28 4z"/>
<path d="M977 1053 c-13 -12 -7 -23 13 -23 13 0 18 5 14 15 -7 16 -17 19 -27
8z"/>
<path d="M1095 1050 c-8 -12 20 -24 35 -15 6 3 8 11 5 16 -8 12 -32 12 -40 -1z"/>
<path d="M1605 1050 c-8 -14 3 -30 21 -30 8 0 14 9 14 20 0 21 -24 28 -35 10z"/>
<path d="M1900 1045 c0 -10 7 -15 18 -13 21 4 19 22 -2 26 -10 2 -16 -3 -16
-13z"/>
<path d="M2153 1048 c2 -7 10 -13 17 -13 7 0 15 6 18 13 2 7 -5 12 -18 12 -13
0 -20 -5 -17 -12z"/>
<path d="M6612 1049 c2 -6 8 -10 13 -10 5 0 11 4 13 10 2 6 -4 11 -13 11 -9 0
-15 -5 -13 -11z"/>
<path d="M6820 1045 c0 -8 7 -15 15 -15 8 0 15 7 15 15 0 8 -7 15 -15 15 -8 0
-15 -7 -15 -15z"/>
<path d="M7307 1053 c-13 -12 -7 -23 13 -23 11 0 20 7 20 15 0 15 -21 21 -33
8z"/>
<path d="M7520 1045 c0 -8 7 -15 15 -15 8 0 15 7 15 15 0 8 -7 15 -15 15 -8 0
-15 -7 -15 -15z"/>
<path d="M8006 1050 c-3 -8 -4 -24 -3 -35 2 -19 -6 -20 -153 -27 -164 -8 -229
-20 -254 -47 -19 -21 -46 -95 -46 -126 0 -30 40 -77 97 -116 41 -29 49 -31
101 -24 31 4 62 10 67 13 6 4 73 12 150 18 77 7 161 17 186 22 26 6 82 13 126
16 43 3 128 13 188 22 61 9 143 19 183 24 88 10 144 36 156 71 10 30 -13 98
-50 144 l-21 27 -47 -16 c-61 -21 -73 -20 -88 4 -15 23 -48 27 -48 6 0 -16
-22 -26 -58 -26 -32 0 -46 9 -55 33 -3 9 -11 17 -17 17 -6 0 -14 -8 -17 -17
-9 -25 -23 -33 -61 -33 -26 0 -35 5 -42 25 -11 30 -30 33 -37 5 -4 -15 -14
-20 -38 -20 -19 0 -39 8 -50 20 -24 26 -32 25 -39 -4 -5 -19 -14 -25 -43 -28
-47 -6 -63 -1 -63 21 0 9 -4 23 -10 31 -8 13 -10 13 -14 0z m720 -121 c56 -52
12 -86 -123 -95 -48 -3 -119 -12 -158 -19 -38 -8 -121 -17 -183 -20 -62 -4
-128 -11 -145 -17 -18 -5 -78 -13 -135 -18 -57 -5 -112 -12 -123 -15 -18 -6
-19 -3 -13 34 4 23 2 53 -4 68 -25 65 -24 66 63 80 44 7 148 16 230 19 83 4
152 9 155 11 3 3 97 3 209 0 193 -6 205 -7 227 -28z m-988 -193 c4 -21 -25
-21 -66 0 -36 17 -76 69 -67 84 8 13 129 -64 133 -84z"/>
<path d="M490 1035 c0 -8 9 -15 20 -15 11 0 20 7 20 15 0 8 -9 15 -20 15 -11
0 -20 -7 -20 -15z"/>
<path d="M622 1033 c4 -21 33 -25 33 -3 0 8 -8 16 -18 18 -14 3 -18 -1 -15
-15z"/>
<path d="M766 1041 c-9 -15 23 -36 36 -23 5 5 7 15 4 21 -9 13 -33 14 -40 2z"/>
<path d="M1762 1033 c2 -10 10 -18 18 -18 22 0 18 29 -3 33 -14 3 -18 -1 -15
-15z"/>
<path d="M7652 1034 c4 -21 22 -23 26 -1 2 10 -3 17 -13 17 -10 0 -15 -6 -13
-16z"/>
<path d="M7750 1042 c0 -10 22 -32 32 -32 4 0 8 9 8 20 0 13 -7 20 -20 20 -11
0 -20 -4 -20 -8z"/>
<path d="M7880 1035 c0 -21 30 -31 40 -14 11 17 3 29 -21 29 -10 0 -19 -7 -19
-15z"/>
<path d="M10102 1023 c4 -21 33 -25 33 -3 0 8 -8 16 -18 18 -14 3 -18 -1 -15
-15z"/>
<path d="M9817 1024 c-14 -15 -6 -34 14 -34 14 0 19 5 17 17 -3 18 -20 27 -31
17z"/>
<path d="M9980 1020 c0 -5 7 -10 15 -10 8 0 15 5 15 10 0 6 -7 10 -15 10 -8 0
-15 -4 -15 -10z"/>
<path d="M6941 992 c-17 -24 -21 -25 -57 -15 -22 7 -124 13 -229 14 -216 3
-236 -2 -255 -69 -15 -58 3 -107 52 -139 38 -26 48 -28 182 -31 77 -2 148 -8
158 -13 9 -5 45 -9 80 -9 39 -1 70 -6 82 -15 29 -22 221 -21 230 0 3 8 16 15
28 15 48 0 52 11 49 122 -1 57 -7 109 -13 116 -6 6 -24 12 -41 12 -17 0 -38 6
-46 14 -10 8 -51 15 -109 19 -90 4 -93 4 -111 -21z m169 -132 l0 -99 -36 -7
c-52 -10 -62 6 -64 106 -2 47 -2 88 -1 93 0 4 24 7 51 7 l50 0 0 -100z m-203
59 c20 -8 23 -15 23 -69 0 -54 -2 -60 -21 -60 -11 0 -29 -5 -40 -11 -13 -6
-25 -7 -32 -1 -7 5 -77 12 -156 15 -122 5 -150 9 -190 29 -36 18 -47 29 -49
51 -4 30 13 53 44 59 34 7 398 -4 421 -13z m297 -72 c1 -46 -2 -57 -14 -55
-11 2 -16 19 -18 61 -3 51 -1 58 14 55 14 -2 18 -14 18 -61z"/>
<path d="M8830 1005 c0 -8 7 -15 15 -15 8 0 15 7 15 15 0 8 -7 15 -15 15 -8 0
-15 -7 -15 -15z"/>
<path d="M9330 1005 c0 -10 7 -15 18 -13 21 4 19 22 -2 26 -10 2 -16 -3 -16
-13z"/>
<path d="M9490 1006 c0 -17 27 -29 35 -16 4 6 3 15 0 20 -9 15 -35 12 -35 -4z"/>
<path d="M2232 993 c2 -10 10 -18 18 -18 22 0 18 29 -3 33 -14 3 -18 -1 -15
-15z"/>
<path d="M2080 985 c0 -8 9 -15 20 -15 11 0 20 7 20 15 0 8 -9 15 -20 15 -11
0 -20 -7 -20 -15z"/>
<path d="M5007 975 c-8 -18 11 -31 25 -17 11 11 3 32 -12 32 -4 0 -10 -7 -13
-15z"/>
<path d="M5144 979 c-10 -17 13 -36 27 -22 12 12 4 33 -11 33 -5 0 -12 -5 -16
-11z"/>
<path d="M5230 969 c0 -15 5 -20 22 -17 34 5 37 38 4 38 -20 0 -26 -5 -26 -21z"/>
<path d="M3570 931 c0 -18 17 -38 25 -30 12 14 8 44 -7 47 -13 2 -18 -3 -18
-17z"/>
<path d="M3361 926 c-11 -13 -11 -20 -3 -28 15 -15 24 -5 20 23 -3 21 -4 21
-17 5z"/>
<path d="M3102 918 c5 -15 28 -18 29 -3 0 6 -7 12 -17 13 -10 3 -15 -1 -12
-10z"/>
<path d="M3230 916 c0 -18 16 -29 30 -21 13 8 1 35 -16 35 -8 0 -14 -6 -14
-14z"/>
<path d="M3473 918 c2 -7 10 -13 17 -13 7 0 15 6 18 13 2 7 -5 12 -18 12 -13
0 -20 -5 -17 -12z"/>
<path d="M10710 903 c-61 -22 -84 -112 -35 -135 27 -12 32 -24 13 -30 -11 -4
-36 -185 -38 -270 0 -44 24 -53 39 -15 8 18 27 180 34 277 1 15 13 32 30 43
25 15 47 52 47 78 0 15 -47 59 -62 58 -7 0 -20 -3 -28 -6z m50 -61 c0 -19 -29
-52 -45 -52 -26 0 -35 25 -18 51 9 13 21 27 27 31 13 9 36 -10 36 -30z"/>
<path d="M4744 886 c-8 -22 3 -33 18 -18 9 9 9 15 0 24 -9 9 -13 7 -18 -6z"/>
<path d="M4843 885 c-3 -9 -3 -18 0 -21 9 -9 27 6 27 22 0 19 -19 18 -27 -1z"/>
<path d="M3534 879 c-3 -6 1 -18 10 -27 15 -15 17 -15 32 0 19 19 11 38 -16
38 -10 0 -22 -5 -26 -11z"/>
<path d="M10276 745 c-60 -47 -88 -102 -89 -176 0 -69 19 -104 70 -126 20 -8
48 -24 64 -35 16 -12 34 -18 45 -14 16 6 16 8 -1 26 -16 18 -16 20 21 57 22
21 44 47 51 58 10 18 12 16 12 -20 1 -22 8 -51 17 -63 14 -20 23 -23 68 -19
29 2 58 7 64 11 7 4 12 34 13 74 0 37 6 103 13 147 14 85 13 95 -9 95 -25 0
-36 -39 -42 -152 -6 -117 -22 -158 -57 -145 -46 18 -44 98 6 219 17 43 29 81
25 84 -14 15 -39 -9 -59 -56 -20 -48 -38 -58 -38 -21 0 25 -32 51 -62 51 -67
0 -117 -85 -118 -198 0 -79 -11 -87 -37 -25 -18 44 -9 111 21 156 12 17 43 43
69 57 26 14 47 31 47 38 0 23 -47 12 -94 -23z m122 -57 c32 -32 -1 -168 -49
-201 -31 -23 -39 -14 -39 47 0 76 9 112 36 141 26 28 35 30 52 13z"/>
<path d="M10787 743 c-15 -54 -49 -284 -44 -297 4 -9 13 -16 21 -16 10 0 16
17 21 58 9 82 16 112 24 112 5 0 18 -30 30 -66 34 -105 48 -126 79 -122 26 3
27 6 30 68 2 35 -4 97 -13 138 -19 84 -16 102 18 102 14 0 30 7 37 15 19 23
-12 30 -62 14 -38 -12 -43 -18 -46 -46 -2 -17 4 -55 12 -84 9 -29 16 -75 16
-103 0 -49 -1 -50 -13 -26 -14 26 -50 163 -62 233 -4 27 -11 37 -25 37 -10 0
-21 -8 -23 -17z"/>
<path d="M11020 703 c-36 -56 -50 -102 -50 -161 0 -195 201 -165 235 35 10 61
-18 150 -51 165 -19 9 -30 9 -43 1 -11 -7 -23 -8 -32 -2 -23 14 -28 11 -59
-38z m144 -61 c6 -49 -12 -131 -37 -163 -13 -18 -50 -39 -66 -39 -6 0 -20 9
-31 20 -31 31 -28 121 6 189 15 28 28 51 30 49 1 -2 -1 -21 -6 -43 -21 -90 -6
-190 27 -183 15 3 17 14 14 89 -2 63 2 96 14 125 15 35 17 37 29 21 8 -9 16
-39 20 -65z"/>
<path d="M10760 380 c-111 -6 -368 -34 -427 -46 -27 -5 -31 -34 -5 -34 9 0 69
9 132 20 166 29 398 42 482 28 53 -9 71 -9 80 0 7 7 8 15 3 21 -15 13 -127 18
-265 11z"/>
</g>
</svg>
