<?xml version="1.0" standalone="no"?>
<!DOCTYPE svg PUBLIC "-//W3C//DTD SVG 20010904//EN"
 "http://www.w3.org/TR/2001/REC-SVG-20010904/DTD/svg10.dtd">
<svg version="1.0" xmlns="http://www.w3.org/2000/svg"
 width="2123.000000pt" height="2123.000000pt" viewBox="0 0 2123.000000 2123.000000"
 preserveAspectRatio="xMidYMid meet">

<g transform="translate(0.000000,2123.000000) scale(0.100000,-0.100000)"
fill="#000000" stroke="none">
<path d="M7607 20593 c-8 -10 -21 -47 -27 -83 -10 -59 -40 -163 -121 -430 -75
-246 -98 -429 -99 -790 0 -169 -1 -176 -24 -205 -23 -29 -25 -29 -43 -12 -11
9 -37 50 -59 90 -29 53 -69 102 -154 187 -96 96 -128 121 -195 154 -44 22
-117 64 -162 93 -173 112 -289 155 -376 139 -30 -6 -38 -12 -48 -44 -33 -101
-33 -101 -86 -91 -26 5 -88 22 -138 38 -49 17 -108 33 -130 37 -22 4 -51 12
-65 19 -38 18 -144 42 -245 55 -49 7 -128 21 -175 32 -53 13 -146 23 -250 28
-91 4 -174 11 -185 15 -37 11 -73 -12 -104 -66 l-30 -52 32 -28 c18 -16 46
-31 62 -34 17 -4 67 -15 113 -26 45 -11 160 -26 255 -34 94 -9 181 -18 192
-21 11 -3 64 -26 117 -52 86 -42 118 -69 100 -86 -9 -10 -257 -7 -407 5 -77 5
-234 10 -350 10 -186 0 -217 -2 -275 -20 -112 -36 -171 -72 -215 -127 -34 -44
-48 -54 -90 -64 -27 -7 -133 -36 -235 -65 -102 -29 -239 -67 -305 -85 -269
-73 -450 -161 -474 -232 -27 -77 6 -158 64 -158 13 0 99 38 192 84 188 94 302
138 412 156 41 7 106 23 145 37 128 43 421 67 565 45 51 -8 59 -20 34 -50 -14
-17 -40 -26 -108 -37 -50 -9 -196 -51 -325 -95 -129 -43 -301 -95 -382 -114
-220 -53 -508 -157 -763 -276 -49 -23 -130 -57 -178 -76 -48 -18 -120 -53
-160 -77 -40 -24 -131 -74 -203 -111 -175 -88 -300 -160 -352 -203 -23 -19
-90 -57 -148 -85 l-107 -50 6 -67 c9 -104 -12 -129 -208 -251 -166 -104 -208
-132 -255 -170 -25 -20 -77 -58 -117 -84 -187 -123 -218 -188 -107 -231 31
-12 60 -16 88 -12 86 12 134 43 256 163 123 122 199 180 340 261 136 78 351
182 397 192 40 8 43 7 43 -13 -1 -14 -20 -36 -59 -64 -32 -24 -69 -53 -82 -66
-27 -24 -300 -243 -369 -296 -25 -19 -47 -37 -50 -40 -3 -3 -32 -28 -65 -55
-33 -27 -89 -75 -125 -106 -36 -31 -97 -81 -137 -111 -39 -30 -149 -130 -245
-223 l-173 -169 -3 -109 c-2 -63 -9 -116 -15 -125 -7 -8 -35 -40 -63 -71 -28
-31 -66 -78 -85 -106 -19 -27 -53 -70 -76 -95 -60 -65 -113 -133 -113 -146 0
-22 78 -82 129 -99 30 -10 51 -23 51 -31 0 -28 -29 -84 -103 -196 -41 -62 -79
-123 -85 -135 -23 -42 -14 -77 33 -132 48 -56 49 -63 17 -126 -16 -32 -46 -74
-103 -145 -88 -109 -197 -368 -235 -555 -9 -44 -27 -118 -40 -164 -13 -46 -24
-107 -24 -136 0 -51 2 -54 50 -95 27 -23 59 -55 71 -72 20 -27 20 -34 9 -91
-15 -79 -61 -231 -112 -371 -45 -122 -44 -139 6 -193 l33 -36 69 12 c38 7 80
14 94 15 l25 1 0 -130 c0 -71 -6 -187 -13 -258 -13 -134 -4 -256 21 -285 16
-19 82 -47 132 -56 82 -14 92 -22 99 -79 10 -80 26 -179 52 -322 14 -71 27
-166 31 -210 7 -91 20 -125 71 -172 45 -43 101 -45 158 -7 21 15 42 32 46 39
4 7 23 24 42 39 l35 26 14 -48 c25 -78 157 -422 188 -489 29 -61 61 -100 149
-178 58 -52 75 -77 144 -213 57 -111 111 -197 149 -237 10 -11 60 -74 110
-140 108 -140 156 -190 235 -243 105 -71 164 -85 242 -57 l42 15 157 -104
c173 -114 349 -207 492 -260 247 -90 391 -155 434 -195 51 -47 106 -76 160
-87 40 -7 72 -20 218 -88 44 -20 113 -43 155 -52 117 -24 181 -48 330 -126
152 -78 302 -180 302 -204 0 -4 -19 -32 -41 -63 -47 -63 -154 -175 -543 -565
-340 -342 -486 -500 -561 -610 -144 -208 -253 -364 -283 -406 -277 -378 -331
-463 -469 -740 -76 -151 -154 -304 -175 -340 -20 -36 -67 -150 -103 -255 -36
-104 -86 -243 -111 -309 -24 -65 -44 -127 -44 -138 0 -26 23 -68 52 -95 23
-22 28 -22 128 -13 58 5 218 12 355 16 l250 7 50 -37 c28 -20 60 -40 71 -45
30 -13 86 2 140 38 26 17 58 31 70 31 12 0 59 -13 104 -30 76 -28 90 -30 225
-30 180 0 312 -24 485 -87 153 -56 252 -106 303 -154 l39 -37 -4 -314 -4 -313
-27 -68 c-15 -37 -34 -78 -42 -90 -8 -12 -28 -64 -44 -115 -38 -116 -41 -122
-114 -207 -77 -91 -91 -123 -82 -193 11 -89 32 -144 80 -212 72 -101 83 -130
105 -266 17 -103 18 -134 9 -163 -12 -37 -42 -92 -62 -114 -63 -68 -74 -92
-81 -177 -19 -237 -57 -473 -113 -715 -41 -180 -52 -211 -90 -261 l-36 -47 16
-47 c16 -45 16 -50 -3 -112 -13 -41 -18 -72 -13 -85 4 -12 42 -71 83 -131 52
-76 85 -115 108 -126 31 -15 63 -22 392 -85 85 -17 198 -39 250 -50 230 -49
301 -53 820 -46 525 7 697 -1 815 -35 39 -12 128 -27 198 -35 125 -15 255 -39
366 -70 96 -26 215 -37 362 -32 79 3 331 10 559 16 415 10 583 23 807 60 65
11 143 23 173 26 30 4 84 14 119 21 35 8 149 28 255 45 202 31 317 59 375 90
20 11 40 19 45 19 18 0 150 83 244 153 51 38 128 89 170 114 42 25 113 69 157
98 95 62 157 92 214 101 26 4 116 -4 242 -22 198 -27 204 -28 392 -16 316 20
533 47 602 75 57 24 68 25 200 20 152 -6 187 1 395 77 41 15 135 49 208 75
110 40 138 54 166 85 43 48 60 99 60 180 0 63 -29 170 -46 170 -4 0 -8 5 -8
10 0 6 -20 36 -45 68 -24 31 -84 111 -133 177 -60 80 -145 175 -258 286 -141
139 -180 172 -234 197 -38 17 -90 53 -125 87 -72 68 -106 92 -251 178 l-110
66 -25 72 c-34 100 -74 134 -232 195 -110 42 -127 52 -176 103 -63 66 -91 108
-91 137 0 34 101 118 207 173 41 21 50 33 88 126 44 108 69 216 63 280 -3 36
-6 40 -28 38 -14 -1 -73 -3 -131 -5 -135 -4 -150 5 -179 99 -30 97 -38 215
-16 247 18 28 67 56 131 75 22 7 49 16 60 20 11 5 38 16 60 24 150 60 290 122
542 243 51 24 98 44 105 44 12 1 51 20 244 118 74 38 82 46 105 93 40 86 34
123 -42 279 -44 89 -98 177 -158 259 -50 68 -110 155 -134 193 -109 178 -186
289 -299 434 -188 238 -235 301 -301 399 -33 50 -74 106 -91 126 -40 46 -53
63 -101 129 -22 30 -60 78 -85 106 -90 101 -116 131 -142 166 -15 20 -33 42
-41 50 -7 7 -50 59 -95 115 -81 99 -83 102 -68 126 9 13 45 38 81 57 132 68
215 184 215 299 0 56 -7 73 -90 241 -97 192 -123 225 -251 322 -116 86 -229
189 -229 207 0 26 66 47 224 71 163 25 173 25 277 -2 85 -22 87 -22 160 -4 41
9 111 37 156 62 46 24 88 44 94 44 6 0 29 -16 50 -35 33 -29 47 -35 84 -35 61
0 97 16 209 94 52 37 100 66 108 66 8 0 41 -9 73 -20 104 -36 142 -27 250 54
39 30 102 70 142 89 77 39 106 69 188 197 129 201 206 310 220 310 12 0 -6
-73 -32 -130 -14 -30 -27 -71 -30 -90 l-5 -35 58 1 57 0 55 65 c102 121 166
224 222 359 15 36 46 108 68 162 41 95 105 359 120 491 l7 58 33 -32 32 -31 0
-189 c0 -104 4 -189 8 -189 11 0 46 39 61 66 21 43 44 213 52 399 4 105 12
224 18 265 6 41 10 146 11 233 0 158 0 158 -40 279 -22 66 -58 203 -80 304
-36 162 -47 196 -90 277 -27 52 -58 118 -69 148 -32 94 -61 140 -140 224 -121
129 -158 178 -241 330 -78 141 -174 240 -360 373 -80 56 -126 96 -128 109 -2
13 8 30 26 45 16 13 36 35 45 49 15 23 15 27 -1 59 -18 37 -73 73 -235 155
-141 72 -245 135 -278 167 -60 61 -120 199 -122 283 -2 71 19 131 97 278 30
56 71 143 92 192 21 50 50 110 64 135 14 25 38 74 54 110 16 36 56 117 91 180
34 63 77 146 96 184 19 38 41 74 50 79 12 7 39 -5 113 -52 135 -86 156 -92
316 -94 153 -2 159 0 292 94 l69 50 37 -32 c50 -44 112 -71 126 -55 6 6 21 24
34 38 47 52 89 295 100 577 8 199 2 269 -32 381 -42 137 -151 437 -195 538
-48 107 -49 116 -18 107 37 -12 71 -51 131 -151 80 -133 110 -214 102 -282 -9
-78 29 -132 94 -132 24 0 67 52 80 98 25 91 6 167 -72 288 -26 40 -63 103 -84
140 -61 113 -92 153 -214 279 -122 126 -124 130 -164 265 -14 47 -40 108 -58
135 -37 57 -137 156 -218 218 -79 60 -209 166 -249 203 l-34 32 42 49 c48 57
63 111 37 132 -35 29 -332 181 -353 181 -15 0 -33 47 -33 85 0 19 12 71 26
117 14 45 33 107 41 138 10 39 44 100 121 214 142 212 152 222 397 390 95 65
119 93 129 147 8 44 -17 80 -75 109 -53 28 -254 60 -369 60 -52 0 -151 9 -220
19 -69 11 -172 27 -230 35 -58 8 -190 33 -295 56 -173 38 -200 41 -300 37
-166 -6 -237 -33 -555 -211 -134 -75 -154 -89 -265 -201 -136 -136 -232 -259
-355 -455 -99 -158 -123 -188 -142 -173 -11 9 -292 125 -413 170 -31 12 -64
14 -145 9 -94 -6 -120 -12 -250 -61 -80 -30 -167 -61 -194 -71 -27 -9 -79 -36
-114 -59 -60 -40 -66 -43 -87 -29 -27 18 -29 21 -122 268 -41 111 -93 236
-115 280 -22 43 -53 114 -69 158 -52 141 -155 328 -181 328 -4 0 -8 5 -8 11 0
6 -23 41 -52 78 -163 209 -282 313 -454 395 -66 32 -128 62 -139 68 -61 34
-247 135 -294 159 -64 35 -148 40 -174 12z m333 -277 c105 -40 178 -74 236
-111 30 -19 57 -35 60 -35 10 0 86 -63 116 -95 16 -16 56 -66 91 -109 34 -44
96 -120 137 -169 122 -145 134 -165 189 -317 30 -80 76 -199 104 -265 27 -66
92 -244 142 -395 51 -151 111 -322 132 -380 51 -134 92 -265 100 -311 5 -33 3
-37 -23 -44 -16 -5 -101 -9 -189 -10 -238 -1 -533 -46 -705 -106 -47 -16 -107
-36 -135 -44 -93 -27 -124 -99 -64 -149 41 -35 72 -33 221 10 196 57 226 64
335 76 90 9 106 8 128 -6 46 -30 45 -32 -140 -231 -158 -169 -184 -199 -185
-207 0 -4 -8 -15 -18 -25 -33 -32 -139 -177 -171 -235 -18 -31 -41 -90 -53
-130 -33 -119 -141 -321 -212 -396 -49 -52 -175 -145 -254 -188 -211 -113
-326 -166 -415 -190 -124 -34 -189 -30 -313 16 -84 32 -93 37 -105 70 -17 46
-13 217 7 295 42 163 196 571 224 595 4 3 28 42 55 88 46 78 86 132 195 266
25 30 61 84 79 118 91 172 131 257 140 298 17 76 12 217 -14 380 -14 85 -34
224 -45 308 -11 84 -25 173 -30 198 -11 46 -16 276 -7 291 9 14 27 266 36 488
l9 210 46 140 c58 180 110 302 136 325 24 21 55 16 160 -24z m4040 -614 c118
-39 299 -62 477 -62 122 0 140 -3 220 -30 47 -16 94 -30 105 -30 34 0 22 -53
-24 -109 -282 -332 -293 -350 -388 -636 -29 -88 -62 -172 -72 -187 -10 -14
-39 -34 -64 -44 -43 -17 -51 -16 -197 5 -196 29 -358 37 -472 22 -164 -22
-537 -52 -732 -58 l-192 -6 -7 28 c-4 15 -4 57 -1 93 8 86 52 177 149 312 41
58 109 155 151 215 82 119 167 211 260 283 72 55 402 204 522 236 49 13 173
-2 265 -32z m-1933 -865 c24 -12 94 -53 157 -91 101 -61 115 -73 125 -106 17
-58 14 -76 -22 -106 -83 -74 -212 -137 -355 -174 -41 -11 -136 -43 -211 -71
-156 -58 -227 -79 -276 -79 -33 0 -37 4 -68 68 -53 106 -70 165 -65 237 5 76
32 116 122 182 73 53 264 142 326 153 25 4 86 8 135 8 74 1 98 -3 132 -21z
m1333 -2718 c74 -11 158 -30 185 -41 28 -12 124 -51 215 -88 273 -111 370
-168 384 -225 8 -30 -98 -314 -167 -450 -47 -92 -71 -124 -308 -427 -276 -350
-309 -419 -309 -636 0 -78 6 -152 15 -191 37 -153 162 -347 302 -465 134 -113
514 -489 560 -554 44 -61 48 -71 51 -135 9 -146 -36 -354 -109 -504 -32 -67
-50 -92 -98 -130 -170 -139 -248 -182 -388 -214 -48 -11 -119 -30 -158 -41
-181 -52 -135 -49 -788 -45 -583 4 -616 5 -697 25 -47 12 -137 29 -200 38
-131 18 -225 41 -337 83 -278 105 -261 95 -396 220 -116 106 -165 162 -209
236 -65 110 -128 202 -160 232 -24 23 -39 28 -96 31 l-67 4 -29 -54 c-16 -29
-31 -55 -32 -57 -12 -14 -217 287 -333 489 -17 30 -63 98 -101 150 -97 133
-250 387 -250 416 0 3 50 3 111 -1 108 -7 111 -7 101 12 -6 11 -42 43 -80 72
-100 76 -164 191 -198 358 -14 66 -16 118 -11 333 9 355 22 396 162 505 91 72
165 111 287 155 43 15 99 43 125 63 48 34 275 167 286 167 4 0 30 11 59 24 29
13 100 39 158 56 58 18 173 66 255 107 123 62 165 78 235 90 47 8 121 30 165
50 86 37 115 47 270 92 55 16 178 54 273 85 96 30 208 62 250 71 42 9 102 25
132 35 82 27 224 48 420 61 96 6 177 13 179 15 13 12 224 1 341 -17z m1208
-3595 c67 -136 139 -382 172 -589 29 -182 3 -460 -58 -637 -11 -29 -24 -71
-31 -93 -33 -103 -63 -153 -225 -370 -205 -276 -332 -416 -496 -547 -41 -33
-85 -69 -98 -79 -12 -10 -24 -19 -27 -19 -2 0 -38 -22 -78 -49 -90 -61 -419
-227 -542 -274 -197 -75 -484 -171 -600 -201 -33 -8 -121 -22 -195 -31 -74 -8
-180 -22 -235 -30 -144 -21 -719 -39 -1000 -31 -227 6 -640 30 -695 41 -14 2
-88 12 -165 20 -111 13 -170 26 -283 62 -124 40 -145 51 -158 74 -20 40 -19
46 26 106 63 83 76 89 172 74 67 -10 83 -10 101 2 49 32 95 138 210 485 106
321 139 437 185 662 12 61 22 86 33 88 25 5 30 -44 19 -200 -10 -138 -26 -227
-56 -320 -13 -41 -13 -50 0 -80 28 -62 39 -69 110 -71 l65 -2 21 55 c44 120
53 194 60 505 l7 300 32 93 c28 83 31 103 31 215 0 67 -5 149 -10 182 -21 130
-82 298 -171 475 -81 160 -114 251 -93 249 5 0 32 -28 61 -62 214 -258 301
-350 388 -412 68 -49 104 -66 260 -126 335 -127 509 -163 945 -194 124 -8 298
-23 387 -32 201 -20 650 -14 748 10 33 9 114 27 180 42 239 54 434 129 575
223 158 104 205 164 264 339 47 137 94 233 114 233 4 0 27 -39 50 -86z m-3909
-576 c16 -52 23 -118 12 -118 -11 0 -27 46 -36 108 -8 50 9 57 24 10z m-6518
-895 c16 -16 73 -93 126 -173 53 -80 100 -147 103 -150 6 -4 86 -105 108 -135
17 -24 44 -94 40 -108 -3 -14 -8 -14 -45 3 -133 59 -373 425 -373 567 0 30 5
29 41 -4z m752 -654 c36 -29 76 -89 60 -89 -20 1 -89 58 -106 88 -25 42 -5 43
46 1z m374 -29 c68 -61 166 -141 262 -215 53 -41 137 -133 129 -141 -6 -6
-104 45 -158 83 -64 43 -320 298 -320 317 0 27 17 18 87 -44z m4819 -911 c106
-25 149 -30 375 -38 248 -10 295 -16 372 -52 23 -10 35 -9 81 6 52 18 64 18
238 4 194 -15 314 -17 549 -9 157 5 183 -1 177 -43 -4 -24 -106 -90 -182 -116
-56 -20 -201 -45 -214 -37 -5 3 -46 6 -93 7 l-85 3 -94 -57 -93 -57 -106 -1
c-163 -2 -198 1 -270 26 -36 13 -120 30 -187 39 -133 17 -221 48 -398 138
-140 70 -296 181 -296 208 0 25 54 20 226 -21z m-625 -41 c19 -6 66 -32 104
-57 81 -54 114 -70 210 -107 39 -15 99 -40 135 -57 36 -16 95 -42 131 -57 37
-15 112 -52 168 -83 87 -49 114 -59 194 -72 179 -29 222 -37 267 -51 25 -7 79
-18 120 -25 140 -20 220 -52 220 -87 0 -10 -13 -38 -28 -63 -37 -59 -74 -131
-106 -207 -89 -211 -128 -270 -195 -292 -50 -16 -53 -20 -74 -90 -9 -30 -24
-78 -32 -106 -21 -67 -67 -137 -102 -153 -39 -18 -184 -30 -238 -20 -55 10
-163 59 -212 96 -64 48 -73 56 -170 142 -52 47 -116 112 -141 145 -45 60 -156
200 -193 243 -59 71 -147 179 -164 201 -11 15 -41 50 -68 78 -26 28 -70 80
-98 115 -28 35 -58 73 -67 84 -10 12 -39 50 -67 85 -27 36 -66 84 -86 108 -39
45 -61 93 -50 108 9 14 177 89 251 112 36 12 72 23 80 26 23 9 173 -2 211 -16z
m2889 -173 c196 -42 268 -77 430 -205 168 -133 273 -234 307 -295 46 -83 98
-244 90 -278 -9 -33 -76 -113 -102 -121 -40 -12 -210 -5 -250 10 -22 8 -90 19
-151 24 -164 14 -233 39 -559 201 -123 61 -136 71 -309 240 -139 136 -139 137
-130 170 9 30 19 37 149 94 130 57 200 92 315 159 49 28 80 28 210 1z m-4503
-511 l43 -17 0 -122 0 -122 -41 -27 c-23 -15 -56 -30 -75 -33 -71 -12 -166 36
-180 91 -12 48 52 191 104 234 22 17 98 15 149 -4z m-442 -117 c0 -45 -6 -84
-14 -101 -13 -24 -19 -26 -77 -26 -61 0 -64 1 -71 28 -12 40 -8 134 6 160 11
21 17 23 84 18 l72 -4 0 -75z m822 77 c29 -8 43 -52 43 -133 0 -71 -12 -125
-34 -154 -13 -17 -18 -17 -71 -3 -31 8 -59 17 -61 19 -3 3 -8 36 -11 74 -6 70
9 165 30 191 10 13 66 16 104 6z m482 -53 l46 -27 3 -132 3 -132 -26 -10 c-34
-13 -170 -13 -216 0 -41 11 -51 29 -69 114 -9 44 -9 73 -1 122 16 88 28 112
60 116 43 5 151 -22 200 -51z m2904 10 c51 -48 127 -163 127 -191 0 -36 -51
-108 -89 -126 -37 -18 -116 -15 -161 6 -27 12 -81 94 -99 151 -16 49 -6 84 40
146 30 41 46 53 71 56 50 6 69 -2 111 -42z m-4727 -382 c16 -36 15 -41 -6
-111 -12 -40 -35 -95 -50 -123 -25 -46 -31 -50 -68 -53 -33 -3 -45 2 -66 25
-14 15 -26 33 -26 38 0 14 86 162 127 219 40 56 65 57 89 5z m396 17 c61 -26
63 -32 45 -159 -15 -105 -18 -114 -48 -139 -18 -15 -48 -35 -66 -43 -37 -18
-69 -12 -147 27 l-39 20 7 52 c6 54 18 88 62 183 19 42 31 54 57 62 48 14 90
13 129 -3z m4694 -19 c27 -16 68 -63 137 -160 46 -64 58 -90 72 -155 9 -42 19
-86 22 -96 3 -10 38 -54 78 -96 74 -79 128 -165 178 -280 39 -91 69 -208 58
-229 -17 -31 -174 -166 -214 -184 -44 -19 -87 -16 -112 10 -22 22 -19 109 7
189 31 95 30 230 -2 334 -20 66 -30 82 -80 131 -74 72 -141 116 -204 134 -101
30 -231 11 -297 -44 -27 -23 -31 -31 -25 -57 4 -17 27 -54 52 -82 43 -49 45
-55 39 -92 -7 -39 -27 -70 -46 -70 -13 0 -54 86 -103 218 -48 130 -116 342
-116 363 0 11 20 14 78 15 101 2 208 37 332 109 101 58 113 61 146 42z m-4172
-48 l39 -38 -11 -90 c-18 -144 -68 -193 -203 -197 -83 -2 -105 9 -142 66 -17
28 -11 89 20 185 30 92 46 109 105 115 104 11 149 2 192 -41z m1723 -25 c36
-10 56 -67 51 -146 -3 -38 -10 -74 -16 -80 -16 -16 -99 46 -122 92 -26 51 -27
127 -2 133 26 7 65 7 89 1z m-1316 -26 c22 -42 3 -242 -25 -260 -13 -9 -92
-10 -134 -2 -58 12 -67 81 -25 204 l27 80 73 0 c64 0 74 -2 84 -22z m2812 3
c7 -27 -12 -134 -26 -143 -7 -5 -29 -13 -50 -20 -45 -14 -63 -2 -73 48 -7 34
6 50 80 105 45 34 62 36 69 10z m1594 -13 c45 -51 65 -90 66 -128 1 -22 -2
-42 -5 -45 -17 -17 -137 -27 -190 -16 -55 12 -57 14 -107 87 -51 76 -62 108
-38 117 6 3 66 6 133 6 113 1 122 0 141 -21z m-3968 -9 c27 -5 57 -19 66 -29
23 -25 32 -138 15 -182 -37 -95 -40 -98 -82 -98 -59 0 -180 20 -209 36 -22 11
-28 22 -33 68 -16 122 3 159 98 197 50 21 80 22 145 8z m441 -29 c27 -15 40
-64 40 -159 0 -110 -12 -135 -65 -139 -83 -7 -164 34 -165 83 0 32 80 202 102
216 18 12 65 11 88 -1z m-2924 -295 c3 -14 1 -39 -6 -55 -10 -23 -19 -30 -40
-30 -49 0 -50 68 -1 95 36 20 40 19 47 -10z m529 -59 c62 -48 59 -95 -12 -162
-25 -25 -57 -47 -70 -50 -72 -18 -132 104 -90 183 37 69 104 80 172 29z m486
-7 c12 -19 11 -106 -1 -151 -18 -62 -30 -68 -130 -65 -78 2 -92 5 -114 27 -17
15 -26 34 -26 54 0 37 30 105 55 126 35 29 199 36 216 9z m5886 2 c36 -17 46
-29 78 -95 20 -42 35 -84 33 -93 -5 -24 -64 -42 -143 -41 -112 0 -119 4 -128
73 -4 33 -5 78 -2 101 5 38 9 42 53 56 61 21 60 21 109 -1z m-2059 -17 c15
-10 22 -25 22 -46 0 -17 5 -70 12 -118 10 -79 9 -91 -8 -133 l-19 -47 -80 -1
c-142 -2 -143 -2 -169 75 -29 84 -15 219 27 261 8 8 41 16 73 18 33 2 73 4 89
5 17 1 41 -5 53 -14z m1690 -9 c11 -10 15 -176 5 -186 -29 -29 -95 64 -108
153 -6 40 -5 47 12 50 20 5 81 -7 91 -17z m-4954 -1 c3 -9 6 -53 6 -100 l0
-84 -52 -27 c-45 -23 -66 -27 -133 -28 -72 0 -85 3 -127 30 -26 16 -52 40 -57
53 -14 30 -14 100 0 141 l11 31 173 0 c148 0 174 -2 179 -16z m3572 -7 c33
-39 62 -104 69 -154 4 -26 13 -58 21 -70 23 -37 17 -58 -25 -81 -46 -26 -73
-28 -111 -6 -24 15 -28 25 -34 77 -8 76 -8 205 0 235 8 30 54 30 80 -1z
m-3162 -8 c44 -20 45 -135 2 -211 l-21 -38 -87 0 -87 0 -29 43 c-16 23 -32 59
-35 80 -5 32 -1 43 26 75 17 20 33 39 35 42 4 5 88 16 139 19 18 0 43 -4 57
-10z m496 -9 c15 -11 35 -35 44 -54 14 -31 15 -41 2 -96 -14 -59 -23 -78 -64
-129 -38 -47 -167 -37 -257 20 l-47 30 3 82 c3 70 8 87 29 113 37 46 55 51
163 53 84 1 103 -2 127 -19z m1930 -129 l0 -150 -31 -21 c-28 -21 -36 -22
-141 -14 l-111 9 -13 35 c-7 19 -13 74 -13 122 -1 78 1 88 20 98 16 9 249 66
282 69 4 1 7 -66 7 -148z m-577 113 c63 -32 67 -39 67 -134 l0 -86 -65 -23
c-79 -28 -172 -26 -205 4 -28 25 -42 81 -31 125 5 19 12 47 15 62 13 58 145
89 219 52z m-955 -24 c71 -38 73 -41 79 -137 3 -50 3 -110 -1 -135 -6 -39 -12
-48 -37 -58 -77 -32 -221 23 -239 91 -16 60 12 171 60 232 27 34 83 37 138 7z
m355 -135 c41 -17 6 -148 -36 -132 -18 7 -37 66 -37 119 0 35 1 36 28 28 15
-4 35 -11 45 -15z m2633 -30 c17 -42 18 -134 2 -170 -15 -34 -56 -55 -107 -55
-34 0 -44 6 -70 37 -17 21 -31 47 -31 58 0 22 65 134 89 151 8 6 35 12 59 12
40 1 44 -1 58 -33z m-6209 -67 c26 -32 14 -123 -18 -133 -31 -10 -77 4 -84 26
-8 23 8 69 37 111 20 29 40 28 65 -4z m1220 -64 l43 -17 0 -81 c0 -81 -1 -81
-41 -123 l-40 -43 -134 0 -135 0 0 40 c0 87 56 183 134 227 30 18 123 16 173
-3z m-490 -37 l26 -25 -39 -92 c-20 -51 -47 -98 -58 -105 -26 -17 -133 -50
-208 -65 -49 -10 -60 -9 -82 6 -37 23 -38 16 45 204 44 98 70 110 217 105 64
-2 77 -6 99 -28z m1054 12 c55 -24 65 -45 55 -110 -9 -55 -51 -136 -78 -150
-13 -7 -68 -14 -123 -16 -90 -4 -105 -2 -145 19 -43 22 -45 25 -48 73 -3 51
15 109 53 172 l20 33 108 0 c88 0 117 -4 158 -21z m478 -45 c20 -15 22 -21 16
-68 -14 -110 -53 -176 -104 -176 -44 0 -103 21 -139 48 -32 24 -34 29 -28 68
3 23 20 65 37 93 l32 51 81 0 c59 0 88 -5 105 -16z m5092 -5 c11 -17 12 -199
1 -216 -12 -19 -72 -40 -134 -48 l-56 -7 -25 39 c-27 43 -57 123 -57 152 0 10
16 34 35 54 28 29 44 37 82 40 78 7 144 1 154 -14z m307 -4 c40 -33 62 -83 62
-138 0 -45 -1 -46 -46 -63 -89 -34 -120 5 -112 144 5 87 38 106 96 57z m-5000
-45 c29 -7 62 -22 73 -33 18 -19 20 -30 14 -87 -8 -77 -17 -85 -98 -94 -117
-12 -143 -9 -181 24 -61 54 -55 115 18 182 34 32 57 33 174 8z m1556 -12 c33
-34 46 -98 46 -221 -1 -100 -4 -126 -18 -142 -24 -30 -44 -35 -93 -24 -67 15
-119 53 -119 87 0 15 -11 80 -24 145 -14 65 -23 124 -20 132 10 25 206 45 228
23z m450 1 c84 -23 85 -26 86 -184 0 -77 -4 -145 -8 -151 -8 -13 -223 -40
-246 -31 -8 3 -25 25 -38 49 -30 59 -33 222 -4 286 l19 42 76 0 c42 0 94 -5
115 -11z m502 5 c21 -6 67 -90 78 -145 7 -31 -24 -147 -48 -183 -16 -25 -20
-26 -114 -26 -63 1 -103 5 -114 13 -22 17 -54 116 -63 194 -7 60 -6 62 27 98
19 21 48 40 68 45 42 10 137 12 166 4z m358 -24 c105 -25 128 -48 134 -128 5
-67 -16 -123 -54 -148 -12 -9 -56 -18 -96 -21 -73 -5 -74 -5 -92 22 -22 34
-46 117 -46 162 0 31 53 133 68 133 4 0 43 -9 86 -20z m-2357 -30 c26 -6 53
-14 59 -18 6 -4 15 -46 19 -94 l7 -87 -34 -21 c-66 -42 -183 -9 -252 72 -41
47 -54 83 -39 107 11 18 110 49 160 50 18 1 54 -4 80 -9z m545 -150 c21 -42
26 -63 22 -91 -9 -54 -38 -66 -117 -50 -67 14 -156 57 -165 79 -3 8 3 39 12
68 l17 55 102 -3 102 -3 27 -55z m2355 45 c46 -19 63 -42 61 -82 -2 -27 -6
-32 -37 -37 -20 -3 -50 -6 -67 -6 -28 0 -32 4 -47 49 -21 65 -14 91 24 91 17
0 46 -7 66 -15z m-6406 -124 c9 -31 8 -54 -5 -118 -9 -44 -16 -83 -16 -86 0
-3 -25 -11 -56 -18 -65 -15 -74 -8 -74 57 0 31 11 57 47 115 67 105 85 114
104 50z m1544 -75 c31 -47 30 -89 -5 -163 -26 -56 -106 -202 -163 -298 -42
-70 -84 -110 -151 -141 -174 -80 -272 -115 -336 -120 -95 -8 -130 9 -165 83
-46 95 -54 132 -44 196 21 133 111 318 177 365 l29 21 39 -21 c21 -11 50 -28
64 -38 49 -34 64 -33 116 8 27 22 62 54 78 71 30 31 30 31 135 31 73 1 114 5
131 15 39 22 77 19 95 -9z m6513 -13 c52 -34 64 -54 75 -122 14 -96 2 -140
-48 -168 -47 -27 -81 -29 -134 -7 -45 18 -61 50 -61 124 0 51 35 171 54 182
21 14 86 8 114 -9z m-5541 -27 c229 -46 250 -78 164 -251 -48 -96 -185 -304
-238 -361 -108 -116 -258 -191 -454 -228 -173 -33 -228 -33 -297 -1 -66 30
-83 65 -90 185 -6 108 12 182 77 315 27 55 70 145 95 200 25 55 53 117 63 138
l18 39 270 -6 c231 -5 288 -9 392 -30z m5122 22 c42 -9 52 -16 60 -41 19 -52
24 -150 11 -211 -11 -52 -15 -59 -46 -72 -18 -8 -65 -14 -103 -14 -67 0 -71 1
-94 33 -50 67 -60 174 -21 233 54 83 90 96 193 72z m-691 -71 c21 -10 22 -16
22 -137 l0 -127 -27 -13 c-16 -7 -57 -15 -93 -17 -60 -5 -68 -3 -97 21 -48 40
-57 72 -43 157 18 118 22 123 110 129 80 5 93 4 128 -13z m326 7 c18 -7 23
-69 6 -79 -5 -3 -10 -36 -10 -73 0 -80 -16 -117 -50 -117 -38 0 -63 53 -68
147 -6 105 5 128 64 128 23 0 49 -3 58 -6z m1137 -67 c11 -7 15 -21 13 -41 -1
-17 -3 -34 -3 -38 -2 -14 -58 -8 -71 7 -6 8 -14 33 -17 56 l-6 41 34 -7 c18
-4 41 -12 50 -18z m-2420 -54 c21 -86 18 -160 -10 -208 l-22 -41 -90 -2 c-64
-2 -94 1 -103 11 -9 8 -16 53 -21 124 -6 98 -5 115 11 142 l18 31 102 0 101 0
14 -57z m526 1 c31 -69 28 -141 -9 -198 l-23 -36 -125 0 c-182 0 -181 -1 -171
103 l6 59 70 27 c39 15 101 44 139 64 38 20 73 37 78 37 5 0 21 -25 35 -56z
m-964 2 c41 -43 52 -78 42 -139 -9 -51 -26 -85 -55 -112 -17 -16 -40 -20 -120
-23 -123 -5 -127 -3 -142 112 -19 140 1 177 107 196 88 15 127 7 168 -34z
m-2088 4 c170 -29 165 -27 180 -64 17 -41 10 -92 -21 -162 -27 -59 -71 -116
-178 -229 -59 -63 -87 -103 -130 -190 -30 -60 -69 -126 -86 -145 l-31 -35 -92
0 c-79 0 -104 5 -177 32 -47 17 -98 35 -115 38 -17 4 -49 26 -72 51 -40 41
-43 48 -43 99 0 48 8 71 63 178 35 67 83 172 106 233 49 127 102 205 146 216
53 13 326 -1 450 -22z m1580 -2 l45 -22 0 -115 c0 -64 -4 -121 -8 -127 -27
-42 -248 -43 -274 -1 -3 5 -12 46 -18 89 -11 70 -11 83 5 117 18 40 36 54 95
70 58 16 107 12 155 -11z m-457 -73 c16 -59 15 -143 -1 -175 -15 -31 -59 -46
-155 -55 -68 -7 -75 -6 -99 16 -46 44 -57 76 -44 133 7 28 20 61 30 73 26 31
97 49 201 52 l56 1 12 -45z m-4243 -77 c23 -64 23 -169 1 -204 -14 -21 -24
-24 -76 -24 l-59 0 -6 45 c-4 24 -5 79 -3 121 3 66 6 78 28 95 14 10 41 19 61
19 33 0 36 -3 54 -52z m3754 16 c47 -41 48 -52 9 -131 -20 -39 -25 -43 -59
-43 -37 0 -38 1 -48 50 -12 57 -14 104 -5 138 10 34 53 29 103 -14z m-4118
-58 c23 -53 27 -113 9 -155 l-12 -31 -103 0 -102 0 -6 28 c-6 31 4 98 20 127
25 47 74 72 141 74 30 1 35 -3 53 -43z m8579 -125 c23 -33 27 -97 15 -214 l-7
-67 -104 0 -104 0 0 155 0 155 89 0 c88 0 90 -1 111 -29z m-415 -11 c12 -10
15 -37 15 -133 l0 -121 -37 -38 c-38 -39 -54 -43 -126 -32 -59 10 -88 48 -95
125 -13 127 -9 179 13 192 44 26 201 31 230 7z m-434 -57 c19 -97 17 -197 -4
-221 -21 -23 -71 -38 -153 -47 l-62 -7 -23 69 c-26 79 -31 191 -10 241 l13 32
113 0 113 0 13 -67z m-759 17 c41 -47 52 -84 52 -181 1 -127 -5 -135 -118
-144 -54 -5 -90 -3 -104 4 -25 13 -42 102 -42 219 l0 81 63 20 c83 26 128 26
149 1z m310 -35 c5 -22 7 -89 6 -150 -3 -109 -3 -110 -28 -113 -50 -5 -55 7
-54 135 1 134 12 176 46 171 17 -2 24 -13 30 -43z m-770 25 c46 -13 57 -44 65
-183 5 -86 4 -100 -13 -119 -68 -76 -251 -77 -335 -1 -40 36 -49 61 -38 106 4
15 4 40 -1 56 -10 35 12 85 48 109 46 31 210 49 274 32z m-487 -75 c15 -20 21
-46 23 -109 5 -97 -14 -147 -66 -183 -31 -20 -36 -21 -74 -7 -22 8 -62 14 -88
14 l-47 0 -7 58 c-4 31 -11 84 -15 117 -8 64 2 135 22 147 7 4 37 8 67 9 30 0
66 4 80 9 30 9 74 -15 105 -55z m-477 -3 l37 -29 -1 -99 c0 -80 -5 -108 -23
-146 -29 -64 -46 -71 -154 -66 -102 5 -108 9 -133 93 -16 57 -9 121 23 193 14
34 28 46 73 67 71 33 126 30 178 -13z m-465 -1 l27 -11 0 -133 c0 -126 -1
-135 -23 -155 -53 -49 -216 -72 -253 -35 -61 61 -69 268 -13 319 33 30 198 39
262 15z m-485 -153 l-3 -152 -34 -23 c-43 -29 -87 -29 -171 0 l-65 22 0 129 0
129 45 14 c42 14 136 28 203 32 l28 1 -3 -152z m-503 94 c14 -10 35 -73 35
-106 0 -46 -20 -111 -45 -141 l-23 -29 -40 28 c-68 47 -76 99 -32 192 25 51
75 78 105 56z m-4095 -83 l0 -71 -105 4 c-124 4 -134 10 -115 67 12 37 16 41
64 51 28 6 69 12 91 13 22 2 46 4 53 5 8 2 12 -18 12 -69z m309 45 c35 -29 37
-42 16 -84 -14 -26 -21 -30 -59 -30 -67 0 -77 19 -42 86 16 30 34 54 41 54 8
0 27 -12 44 -26z m256 -49 c31 -30 33 -65 5 -65 -21 0 -33 18 -44 63 -8 34 7
35 39 2z m783 0 c7 -14 12 -39 12 -54 0 -24 -6 -31 -40 -45 -78 -31 -108 -18
-117 52 -5 38 -4 40 28 50 87 27 104 27 117 -3z m2430 -30 c6 -13 14 -46 18
-74 6 -48 6 -50 -26 -66 -41 -21 -105 -15 -132 13 -19 18 -19 20 8 85 l28 67
46 0 c40 0 48 -4 58 -25z m4775 -144 l37 -1 0 -113 0 -113 -32 -19 c-19 -11
-61 -21 -105 -25 l-72 -5 -6 36 c-8 44 8 136 29 178 21 39 59 68 88 65 13 -1
40 -3 61 -3z m357 -41 c0 -36 -2 -40 -25 -40 -32 0 -55 41 -35 65 7 8 23 15
36 15 21 0 24 -5 24 -40z m-1212 -16 c32 -31 42 -59 33 -91 -5 -16 -6 -52 -4
-80 5 -51 5 -52 -45 -102 -58 -58 -110 -75 -141 -47 -21 19 -41 86 -41 138 -1
18 -7 44 -15 58 -23 40 -18 67 18 94 75 56 154 69 195 30z m482 -10 c19 -49
12 -165 -13 -213 -34 -66 -59 -80 -154 -88 -98 -7 -106 -3 -129 72 -19 60 -12
122 25 208 l20 47 121 0 c120 0 121 0 130 -26z m-7290 5 c58 -12 80 -30 80
-65 0 -29 12 -28 -135 -4 -132 23 -195 38 -195 47 0 32 145 45 250 22z m1441
-59 c15 -28 19 -56 18 -140 l0 -105 -93 -67 c-52 -37 -100 -70 -107 -73 -8 -2
-29 8 -48 24 l-35 28 0 128 0 129 43 37 c48 43 132 80 175 76 22 -1 33 -11 47
-37z m-963 10 l42 -11 0 -77 c0 -42 -4 -83 -8 -90 -22 -34 -183 31 -216 87
-29 49 -12 75 61 93 32 8 63 13 68 12 6 -2 29 -8 53 -14z m5647 -32 c32 -68
32 -121 0 -184 -34 -67 -70 -88 -141 -79 -81 10 -100 36 -104 145 -4 90 -2
102 19 130 19 24 63 35 164 39 36 1 39 -1 62 -51z m-487 26 c27 -6 31 -11 42
-65 14 -63 8 -150 -12 -194 l-11 -26 -146 3 -146 3 -14 40 c-18 53 -17 144 3
183 30 59 39 62 150 62 57 0 117 -3 134 -6z m783 -4 c26 0 34 -41 15 -78 -9
-17 -16 -50 -16 -73 0 -51 -22 -79 -62 -79 l-28 0 0 114 c0 111 1 115 23 119
12 2 28 3 35 1 8 -2 22 -4 33 -4z m-1328 -36 c65 -33 82 -68 71 -141 -5 -34
-15 -54 -38 -75 -26 -24 -38 -28 -91 -28 -33 1 -82 9 -110 18 -44 15 -51 21
-62 57 -6 22 -12 59 -12 83 l-1 43 63 29 c71 34 131 39 180 14z m-1476 -39
c48 -7 77 -37 88 -86 9 -40 -21 -73 -84 -93 -83 -27 -116 -29 -155 -11 l-36
17 0 79 c0 44 3 79 8 79 4 1 30 7 57 15 28 7 57 12 65 10 8 -2 34 -7 57 -10z
m1039 5 c26 -10 27 -12 20 -72 -3 -35 -13 -69 -22 -79 -26 -29 -93 -49 -168
-52 -68 -2 -68 -2 -98 35 -35 43 -39 79 -11 116 33 45 79 62 170 62 45 0 94
-5 109 -10z m-3756 -13 c56 -15 70 -40 77 -143 l6 -74 -39 0 c-42 0 -94 12
-161 36 l-43 16 0 89 0 89 58 -1 c31 0 77 -6 102 -12z m871 -1 c80 -21 167
-55 184 -72 8 -9 15 -28 15 -43 0 -24 -6 -30 -39 -39 -21 -7 -84 -12 -140 -12
-101 0 -102 0 -112 28 -6 15 -13 55 -16 90 l-6 62 30 0 c16 0 53 -6 84 -14z
m2389 -4 c23 -11 39 -29 49 -54 13 -36 12 -39 -14 -74 -36 -47 -83 -76 -115
-70 -145 27 -200 52 -200 89 0 35 36 84 77 106 50 26 154 28 203 3z m-1303
-23 c42 -20 62 -52 50 -82 -12 -32 -133 -47 -194 -25 -28 10 -33 17 -33 44 0
24 8 39 31 58 38 32 86 34 146 5z m318 -1 c20 -9 25 -18 25 -48 0 -32 -5 -40
-32 -53 -18 -9 -35 -14 -39 -12 -11 8 -19 64 -12 95 6 33 18 36 58 18z m-711
-30 c21 -30 20 -51 -3 -79 l-19 -23 -54 17 c-30 9 -76 17 -101 17 -40 0 -47 3
-47 20 0 37 70 67 162 69 38 1 50 -3 62 -21z m377 -309 c21 -31 21 -31 4 -87
-36 -116 -47 -126 -78 -72 -10 16 -23 35 -31 42 -16 16 -36 74 -36 103 0 27
31 43 82 44 30 1 41 -5 59 -30z m1317 -5 c22 -23 24 -31 17 -77 -4 -29 -6 -88
-6 -132 3 -115 2 -116 -152 -130 -74 -7 -79 -6 -98 16 -40 45 -52 83 -57 167
-7 122 3 134 143 174 76 21 122 16 153 -18z m-1675 -29 c21 -68 22 -122 3
-141 -21 -21 -77 -17 -150 10 -103 39 -116 51 -116 104 0 74 14 82 139 82
l107 0 17 -55z m1158 33 c35 -65 16 -253 -30 -289 -32 -26 -94 -24 -142 3 -48
27 -69 82 -69 184 0 70 1 73 33 98 28 23 41 26 114 26 74 0 83 -2 94 -22z
m986 16 c17 -5 24 -16 29 -53 14 -98 57 -161 110 -161 28 0 63 51 83 120 7 25
20 57 27 73 14 27 16 27 109 27 l94 0 38 -47 c36 -44 38 -50 41 -128 l4 -83
-57 -27 c-53 -26 -68 -29 -238 -36 -100 -4 -222 -15 -271 -24 -53 -10 -107
-14 -132 -10 -39 5 -44 10 -65 58 -18 41 -24 74 -27 155 -5 140 -3 142 132
142 56 0 111 -3 123 -6z m993 -18 l45 -23 3 -79 3 -79 -34 -18 c-25 -13 -59
-18 -137 -20 -91 -2 -108 1 -132 18 -51 39 -60 144 -16 200 19 24 24 25 121
25 86 -1 109 -4 147 -24z m-3704 -11 c13 -8 24 -24 24 -35 0 -16 -7 -20 -32
-20 -42 0 -98 21 -98 36 0 35 13 46 48 41 19 -4 45 -13 58 -22z m4143 -1 c13
-16 21 -41 21 -64 0 -31 -6 -42 -32 -62 -46 -33 -83 -48 -123 -48 l-35 0 0 78
0 77 53 21 c71 29 92 29 116 -2z m338 -10 c8 -20 -21 -49 -41 -41 -19 8 -21
43 -3 50 23 10 38 7 44 -9z m-3219 -25 c42 -21 44 -23 39 -58 -10 -72 -20 -97
-50 -129 l-31 -32 -13 24 c-25 48 -35 117 -23 168 7 26 17 48 23 48 6 0 31
-10 55 -21z m-2241 -29 c48 -17 128 -35 177 -40 80 -9 294 -49 441 -81 28 -6
100 -26 160 -44 166 -50 343 -83 526 -99 102 -10 200 -25 258 -41 56 -14 122
-25 160 -25 95 0 404 -45 484 -70 63 -19 95 -21 475 -25 224 -3 530 -7 681 -9
l274 -5 29 -28 30 -28 -6 -97 c-4 -53 -11 -123 -17 -155 -5 -32 -14 -89 -19
-128 -20 -135 -25 -143 -105 -180 -93 -43 -168 -65 -224 -65 -25 0 -116 -9
-201 -20 -85 -10 -247 -24 -360 -29 -113 -6 -254 -16 -315 -22 -151 -15 -350
-6 -448 20 -43 11 -133 28 -200 36 -67 9 -163 27 -213 41 -50 13 -115 25 -145
25 -30 0 -207 0 -394 -1 -370 0 -418 4 -610 60 -233 69 -575 188 -637 223
l-68 38 0 117 c0 64 7 158 15 207 8 50 19 149 25 220 8 112 17 168 35 223 8
22 100 14 192 -18z m5916 -247 c30 -67 44 -124 51 -206 5 -57 4 -57 -32 -82
-62 -43 -175 -72 -302 -80 -63 -4 -240 -22 -392 -41 -153 -19 -299 -34 -325
-34 -27 0 -97 9 -158 21 -126 24 -180 22 -275 -13 -54 -19 -84 -23 -175 -22
-119 1 -179 14 -297 66 -53 24 -69 36 -77 61 -16 44 -13 76 9 122 23 48 73 71
117 54 41 -15 110 -10 293 21 96 17 232 35 302 40 70 5 230 22 355 39 125 16
273 34 328 40 55 6 127 18 160 27 107 30 188 42 291 43 l101 1 26 -57z m-5
-646 c-38 -35 -58 -60 -58 -75 0 -13 9 -75 21 -138 11 -64 19 -117 17 -118
-26 -19 -93 -39 -151 -45 -95 -11 -551 -152 -817 -254 -63 -24 -169 -61 -235
-81 -164 -51 -213 -70 -334 -130 -100 -49 -106 -54 -147 -117 -23 -37 -47 -70
-52 -73 -12 -7 -84 70 -107 113 -9 18 -20 74 -24 127 -5 52 -13 100 -18 105
-6 6 -38 13 -72 16 -81 8 -80 24 7 116 108 114 144 192 158 344 4 40 12 79 18
88 8 11 58 21 171 35 88 11 174 24 192 29 76 22 231 32 548 35 319 3 349 5
495 31 146 26 280 41 395 43 l50 1 -57 -52z m-6063 -117 c32 -11 94 -27 139
-35 92 -18 167 -37 346 -90 242 -71 225 -69 760 -71 l485 -1 83 -27 c165 -54
434 -86 725 -86 193 0 211 -2 250 -21 l42 -22 -35 -12 c-76 -26 -233 -55 -385
-71 -88 -9 -214 -22 -280 -30 -87 -9 -283 -13 -706 -14 -561 0 -592 -1 -705
-22 -96 -18 -157 -22 -314 -23 l-195 0 -115 46 c-87 36 -139 50 -210 58 -111
14 -195 49 -253 106 -34 33 -38 42 -35 78 3 37 9 45 69 91 36 28 94 77 130
108 56 51 69 58 105 58 22 0 67 -9 99 -20z m3815 -372 c0 -35 -25 -163 -41
-213 -31 -95 -49 -111 -159 -139 -155 -39 -369 -79 -460 -85 -47 -3 -173 -2
-280 2 -159 7 -214 6 -305 -7 -147 -22 -416 -30 -600 -18 -131 8 -182 17 -400
71 -338 83 -333 81 -360 102 -19 15 -22 24 -16 47 7 24 14 28 62 35 30 4 317
11 639 16 478 7 597 12 650 24 36 9 109 16 162 17 130 0 285 20 629 81 30 5
108 13 172 18 103 8 125 13 189 44 59 28 77 33 95 24 13 -6 23 -14 23 -19z
m2166 -229 c21 -5 117 -20 213 -34 96 -14 191 -30 210 -34 156 -39 270 -84
356 -142 22 -14 83 -50 135 -79 58 -32 120 -76 159 -113 73 -71 141 -153 141
-171 0 -15 -143 -109 -222 -146 -117 -55 -419 -120 -768 -165 -69 -9 -161 -28
-205 -42 -44 -13 -123 -31 -175 -39 -160 -25 -210 -33 -331 -53 -140 -23 -174
-18 -296 40 -78 37 -103 57 -228 178 -127 124 -158 150 -247 205 -20 12 -28
25 -28 46 0 28 7 38 46 70 11 8 60 49 109 91 168 141 228 178 391 240 83 31
168 66 190 76 50 25 142 50 268 73 102 19 200 19 282 -1z m-5696 -67 c124 -19
257 -33 365 -37 221 -8 289 -21 474 -89 293 -107 405 -129 751 -151 52 -3 151
-10 220 -16 120 -10 195 -6 395 20 63 8 95 5 95 -10 0 -21 -81 -87 -150 -123
-130 -68 -422 -247 -505 -310 -44 -33 -111 -90 -150 -126 -154 -145 -190 -160
-296 -115 -182 77 -260 89 -385 57 -98 -26 -249 -94 -275 -124 -28 -33 -62
-101 -99 -198 -45 -117 -46 -118 -111 -84 -30 15 -91 52 -137 83 -46 31 -91
61 -100 66 -9 6 -19 13 -22 16 -9 11 -195 145 -275 199 -254 170 -410 321
-408 395 1 39 31 98 89 177 l44 60 0 122 c0 66 3 145 7 175 l6 54 136 -6 c75
-3 224 -19 331 -35z m3631 -355 c36 -14 101 -35 144 -46 162 -45 502 -229 596
-324 53 -53 129 -178 129 -212 0 -7 -39 -33 -87 -57 -66 -34 -108 -48 -170
-57 -86 -12 -266 -72 -355 -117 -28 -14 -126 -46 -216 -70 -91 -24 -265 -76
-386 -114 -122 -38 -302 -90 -401 -115 -99 -25 -200 -52 -225 -60 -88 -28
-369 -74 -551 -91 -199 -17 -451 -23 -511 -11 l-38 8 0 93 0 93 67 99 c190
282 297 400 502 554 154 116 277 184 441 244 499 182 538 194 685 206 172 14
300 7 376 -23z m-2644 -862 c78 -20 112 -59 147 -168 14 -46 26 -91 26 -100 0
-23 -64 -152 -96 -194 -41 -53 -110 -93 -162 -93 -54 0 -77 12 -124 62 -46 50
-52 68 -74 212 -20 136 -14 167 40 225 68 73 125 86 243 56z"/>
<path d="M9732 14877 c-29 -11 -42 -31 -131 -210 -135 -269 -164 -344 -164
-432 -2 -184 130 -255 247 -131 127 134 209 267 280 454 63 169 72 212 51 256
-24 51 -84 76 -177 75 -40 0 -88 -6 -106 -12z"/>
<path d="M10920 14836 c-57 -30 -99 -74 -144 -151 -40 -65 -49 -93 -71 -205
-18 -90 -59 -176 -89 -184 -11 -3 -59 -6 -106 -6 -120 -1 -193 -13 -288 -50
-66 -25 -97 -45 -147 -92 -70 -65 -136 -162 -160 -232 -35 -104 -44 -285 -18
-366 13 -42 33 -69 105 -139 48 -49 106 -101 129 -117 l42 -29 171 1 c195 0
277 12 393 57 134 53 244 164 299 302 24 62 27 84 28 195 1 117 -1 129 -27
189 -16 36 -46 91 -67 123 -43 66 -56 125 -39 175 6 19 43 87 83 151 121 197
139 313 56 372 -46 33 -96 35 -150 6z m-336 -731 c37 -13 86 -35 107 -49 21
-14 43 -26 48 -26 17 0 90 -91 102 -127 33 -101 -20 -279 -105 -347 -94 -76
-224 -130 -336 -141 -71 -6 -78 -5 -135 25 -104 55 -139 90 -163 165 -34 103
-30 163 19 261 62 126 135 186 289 240 82 29 90 29 174 -1z"/>
<path d="M16610 12359 c-61 -16 -669 -30 -1145 -27 -380 2 -466 1 -494 -11
-38 -16 -37 7 -7 -210 23 -164 44 -454 51 -706 3 -121 15 -294 27 -384 19
-153 20 -203 15 -775 -4 -474 -8 -636 -20 -721 -9 -61 -20 -164 -26 -229 -7
-65 -16 -126 -21 -136 -9 -17 -30 -19 -217 -22 l-208 -3 -53 -35 c-67 -44 -83
-90 -59 -160 23 -66 42 -635 42 -1230 0 -426 -19 -1582 -28 -1713 -3 -38 -10
-54 -36 -81 -31 -32 -36 -33 -128 -39 -71 -5 -109 -13 -142 -29 l-46 -23 -3
-260 c-2 -154 6 -472 18 -778 23 -542 23 -879 -1 -1037 -8 -56 -11 -173 -9
-340 4 -378 4 -558 0 -830 -3 -194 -1 -273 13 -380 24 -180 45 -419 53 -605
l7 -153 531 5 c292 2 770 6 1061 9 665 7 727 6 905 -11 315 -30 358 -36 448
-56 93 -21 95 -22 265 -5 350 35 395 37 542 24 180 -16 582 -16 655 -1 30 7
107 24 171 37 229 50 584 105 808 126 193 18 564 40 674 40 59 0 151 5 205 11
53 6 107 12 118 13 19 1 23 9 28 60 9 92 7 345 -4 411 -31 182 -42 312 -51
615 -5 184 -14 364 -19 400 -9 62 -29 368 -50 780 -6 107 -15 368 -20 580 -5
212 -14 441 -19 510 -13 163 -2 285 34 375 18 46 27 90 28 127 0 70 -26 109
-117 173 -99 71 -123 93 -142 132 -26 54 -43 357 -53 938 -7 355 -13 497 -25
580 -19 124 -18 206 15 642 28 384 33 605 20 773 -16 199 -27 212 -217 255
-122 28 -172 31 -221 13 -30 -11 -39 -10 -71 7 -20 11 -42 31 -49 45 -9 19
-12 142 -11 515 0 298 -3 527 -10 585 -17 149 -36 581 -28 662 4 40 13 141 21
223 8 83 15 216 16 295 1 142 0 147 -32 225 -30 75 -32 89 -38 241 -6 157 -7
162 -31 183 -48 40 -129 63 -250 71 -130 8 -134 9 -210 62 -49 34 -62 38 -115
38 -78 0 -140 24 -195 75 -25 24 -67 55 -93 70 l-48 28 -218 -13 c-225 -14
-309 -11 -541 15 -96 10 -243 15 -505 15 -279 0 -392 4 -460 15 -99 16 -230
18 -285 4z m1621 -259 c29 -6 83 -24 120 -41 l67 -31 23 -82 c20 -73 23 -114
31 -406 19 -806 20 -961 8 -1465 -8 -358 -9 -543 -2 -570 6 -22 19 -76 31
-120 20 -79 25 -167 12 -215 -7 -25 -8 -25 -156 -31 -83 -3 -258 -12 -390 -19
-191 -11 -296 -11 -515 -2 -197 8 -334 8 -485 0 -123 -6 -301 -7 -430 -3 -121
4 -308 9 -415 10 -107 2 -312 7 -455 12 -273 10 -308 16 -319 57 -3 11 -11
103 -18 202 -9 141 -9 227 0 385 8 136 12 524 11 1159 -1 525 2 979 6 1007 5
40 15 62 43 93 l37 40 208 12 c161 8 224 8 280 -2 104 -17 670 -30 872 -19
249 14 306 14 555 6 184 -7 268 -4 460 11 283 23 351 25 421 12z m785 -322
c-23 -113 -216 -457 -258 -458 -22 0 -32 38 -24 83 9 47 76 184 148 299 49 80
65 99 91 106 42 12 50 6 43 -30z m-46 -586 c0 -21 -35 -122 -57 -167 -98 -198
-152 -261 -145 -170 3 50 99 247 148 303 34 40 54 52 54 34z m-125 -714 c-16
-79 -27 -109 -47 -128 -30 -27 -38 -25 -38 9 0 39 15 78 46 118 32 43 48 43
39 1z m565 -1342 c0 -61 -1 -64 -31 -76 -20 -9 -33 -10 -40 -3 -14 14 -14 62
0 106 11 31 17 37 42 37 l29 0 0 -64z m-3610 -236 c116 -16 1382 -14 1620 2
196 14 319 11 584 -11 166 -14 256 -14 327 1 55 11 63 10 156 -21 62 -21 126
-35 174 -38 71 -5 80 -8 118 -42 38 -33 42 -42 52 -106 5 -38 14 -243 19 -455
4 -212 14 -435 21 -496 12 -102 11 -121 -9 -245 -27 -163 -27 -181 -2 -304 26
-129 13 -191 -64 -306 -27 -41 -36 -64 -36 -96 0 -38 4 -45 48 -80 65 -52 102
-90 102 -106 0 -8 -5 -61 -11 -119 -7 -70 -7 -199 -2 -389 5 -156 7 -316 5
-356 l-4 -72 -46 -18 c-37 -14 -73 -18 -172 -17 -279 3 -742 14 -1015 24 -159
5 -454 9 -655 9 -352 -1 -518 7 -810 41 -47 5 -185 15 -307 20 -183 9 -248 17
-365 42 -133 28 -162 31 -423 37 -250 5 -283 8 -307 25 l-28 18 7 162 c4 99 2
205 -5 272 -20 192 -32 559 -30 919 5 590 1 770 -17 905 -10 80 -18 234 -22
426 l-6 301 37 41 38 41 121 4 c208 7 828 -2 907 -13z m3408 -199 c4 -39 -19
-107 -57 -166 l-25 -40 -9 40 c-9 41 -4 156 9 188 5 14 15 17 43 15 33 -3 36
-6 39 -37z m263 -172 c-33 -100 -49 -132 -106 -219 -24 -36 -63 -103 -87 -149
-25 -47 -58 -95 -76 -109 l-32 -24 16 53 c8 30 27 77 41 104 14 28 69 135 121
238 91 180 120 220 145 198 4 -4 -6 -45 -22 -92z m170 -219 c-12 -77 -32 -121
-115 -259 -30 -49 -87 -154 -127 -233 -71 -140 -111 -207 -180 -301 -26 -35
-41 -46 -61 -47 -23 0 -28 4 -28 23 0 37 93 219 177 346 76 116 163 258 163
268 0 19 170 286 177 279 3 -2 0 -37 -6 -76z m188 -213 c-12 -29 -46 -83 -84
-131 -28 -37 -27 -7 2 56 50 105 120 170 82 75z m-170 -305 c-23 -42 -45 -79
-48 -82 -9 -7 -103 -173 -141 -249 -17 -35 -51 -94 -75 -130 -24 -36 -68 -109
-98 -161 -53 -90 -110 -160 -122 -148 -15 14 23 108 75 186 31 48 69 119 85
157 18 45 45 88 76 120 49 52 66 79 169 263 40 72 73 118 89 127 14 7 28 9 29
4 2 -5 -15 -44 -39 -87z m289 -23 c2 -18 -9 -39 -38 -72 -30 -34 -65 -102
-135 -263 -52 -120 -117 -256 -144 -303 -27 -47 -87 -163 -133 -256 -107 -216
-270 -484 -311 -509 -25 -16 -50 3 -61 45 -7 29 -2 48 32 124 22 50 43 101 47
115 22 75 161 310 277 468 21 28 66 105 99 170 76 146 94 177 134 227 18 22
47 67 65 100 47 85 62 107 91 142 41 49 72 54 77 12z m2 -531 c0 -13 3 -39 6
-58 5 -31 1 -40 -38 -81 -24 -26 -57 -62 -74 -80 -17 -19 -47 -78 -68 -134
-22 -55 -57 -128 -80 -162 -69 -104 -149 -213 -153 -209 -3 2 5 36 17 75 24
83 71 173 146 287 30 45 74 127 99 183 40 93 66 138 105 184 20 24 40 21 40
-5z m-496 -880 c-33 -66 -112 -175 -132 -183 -27 -10 -25 4 8 70 29 58 122
165 142 165 5 0 -4 -24 -18 -52z m546 -548 c0 -75 -10 -97 -50 -115 -27 -12
-50 -15 -74 -11 -31 6 -36 11 -36 34 0 28 43 106 71 129 19 15 61 21 77 10 6
-5 12 -26 12 -47z m-631 -74 c18 -72 16 -76 -29 -76 -36 0 -40 2 -40 25 0 31
37 108 49 101 5 -3 14 -26 20 -50z m-3764 -241 c417 -4 541 -10 635 -31 44
-10 203 -20 485 -31 483 -19 520 -19 634 3 74 13 138 14 538 4 491 -11 642
-20 828 -50 66 -10 150 -22 186 -26 36 -3 71 -9 78 -13 19 -12 40 -205 56
-521 12 -243 21 -339 45 -475 16 -93 30 -188 30 -210 0 -22 -16 -98 -35 -168
-19 -70 -35 -132 -35 -137 0 -6 18 -39 39 -75 22 -36 42 -73 45 -82 3 -10 1
-180 -3 -378 -7 -327 -10 -366 -29 -425 -24 -72 -27 -125 -11 -167 24 -63 30
-158 19 -323 -26 -390 -31 -465 -41 -518 -13 -79 -29 -143 -42 -172 -6 -14
-12 -26 -12 -27 -4 -8 -179 -44 -290 -60 -184 -25 -759 -26 -915 0 -69 12
-209 21 -410 27 -168 5 -330 12 -360 16 -30 4 -239 8 -465 9 -317 2 -428 6
-490 18 -44 8 -161 18 -260 21 -99 4 -211 11 -250 17 -38 5 -311 12 -606 15
l-537 6 -11 77 c-52 366 -55 414 -56 831 0 223 6 603 14 845 8 242 15 539 16
660 3 337 24 972 34 1045 6 36 13 92 17 125 7 70 29 131 58 164 l21 24 355 -8
c195 -4 522 -9 725 -10z m4560 -86 c11 -33 -2 -64 -43 -105 -44 -44 -70 -91
-101 -184 -12 -36 -37 -92 -56 -125 -54 -97 -125 -234 -125 -244 0 -4 -22 -48
-49 -97 -26 -49 -64 -118 -82 -154 -19 -36 -60 -108 -90 -160 -31 -52 -77
-134 -103 -182 -25 -48 -65 -106 -87 -130 l-40 -43 4 100 c5 91 21 163 56 240
151 335 163 357 277 536 51 80 99 159 106 175 14 32 119 190 182 273 36 48
119 120 138 121 4 0 10 -9 13 -21z m-385 -50 c0 -47 -21 -120 -46 -160 -12
-20 -46 -83 -74 -140 -59 -118 -158 -284 -204 -344 -17 -22 -32 -42 -34 -45
-10 -14 -22 31 -18 66 8 64 28 114 89 221 30 54 70 133 87 175 37 92 99 190
147 236 39 37 53 34 53 -9z m375 -496 c-10 -68 -59 -195 -117 -303 -83 -155
-128 -244 -128 -254 0 -5 -29 -57 -65 -116 -36 -59 -85 -151 -109 -206 -36
-82 -100 -202 -146 -274 -22 -35 -81 -141 -123 -220 -65 -124 -92 -133 -91
-32 1 90 80 282 182 445 32 51 98 169 147 262 48 94 99 187 112 207 12 21 23
40 23 43 0 4 13 23 29 43 39 50 75 121 111 218 25 66 42 94 101 157 39 42 73
77 76 77 3 0 2 -21 -2 -47z m8 -586 c-3 -23 -21 -84 -40 -134 -18 -51 -45
-127 -59 -169 -13 -42 -49 -117 -79 -168 -29 -51 -70 -128 -90 -171 -20 -44
-49 -97 -65 -120 -47 -68 -120 -195 -172 -300 -28 -55 -89 -164 -136 -242 -71
-118 -90 -143 -109 -143 -22 0 -23 3 -23 78 0 44 6 99 14 124 7 25 74 152 148
284 74 131 145 265 158 297 13 32 44 93 70 135 25 42 66 117 90 165 25 49 69
116 98 150 29 34 83 108 119 164 36 56 69 100 73 98 5 -3 6 -24 3 -48z m27
-591 c0 -24 -8 -64 -19 -88 -16 -38 -27 -48 -71 -66 -29 -12 -55 -21 -57 -19
-2 2 2 28 8 58 13 62 51 124 88 144 43 23 51 19 51 -29z m-242 -414 c-4 -53
-14 -87 -46 -152 -69 -142 -146 -282 -207 -375 -31 -48 -78 -126 -103 -172
-58 -105 -131 -197 -160 -201 -20 -3 -22 1 -22 37 0 49 11 75 76 176 28 44 77
131 108 193 31 62 86 163 123 225 69 115 153 278 153 296 0 14 41 41 64 41 17
0 18 -6 14 -68z m252 -110 c0 -24 -29 -99 -83 -218 -26 -56 -47 -104 -47 -108
0 -4 -13 -26 -29 -49 -15 -23 -38 -62 -51 -87 -20 -40 -66 -111 -249 -390
-173 -263 -292 -387 -337 -349 -20 16 -17 36 9 72 13 18 39 59 58 92 18 33 37
65 41 70 16 20 199 283 281 405 46 69 107 166 134 215 28 50 60 108 73 130 59
106 142 217 170 228 25 9 30 8 30 -11z m0 -551 c-12 -52 -95 -203 -222 -406
-41 -66 -90 -145 -109 -175 -40 -64 -47 -73 -76 -88 -21 -12 -83 -17 -83 -7 0
30 106 224 140 255 30 27 112 142 158 219 30 53 58 98 61 101 4 3 15 18 25 35
25 38 108 127 114 121 2 -3 -1 -27 -8 -55z m138 -243 c16 -16 15 -63 -2 -97
-22 -42 -134 -210 -175 -261 -19 -25 -35 -46 -36 -46 0 -1 -17 -4 -37 -8 -30
-6 -38 -4 -38 8 0 27 32 111 50 131 10 11 44 58 75 105 128 188 136 195 163
168z"/>
<path d="M16135 11767 l-53 -54 -7 -84 c-8 -102 -11 -535 -7 -1206 l2 -502
-26 -73 c-14 -40 -35 -105 -46 -145 -19 -67 -19 -73 -3 -106 9 -19 27 -44 39
-57 24 -21 24 -21 117 -5 58 10 143 16 221 16 l128 -1 31 42 31 43 -6 100
c-19 308 -19 310 -1 325 13 11 69 16 234 23 238 8 260 12 441 70 147 46 200
79 295 180 129 137 146 167 170 322 32 204 30 385 -5 455 -5 8 -20 44 -35 80
-35 87 -105 197 -167 266 -57 61 -161 127 -278 175 -41 17 -103 43 -137 59
-188 88 -334 118 -474 99 -106 -14 -250 -7 -301 15 -70 30 -103 22 -163 -37z
m646 -473 c138 -25 357 -112 409 -162 46 -44 77 -179 58 -252 -15 -58 -51
-122 -88 -157 -81 -75 -324 -133 -560 -133 l-108 0 -6 35 c-25 134 -35 535
-14 596 6 19 20 46 30 62 19 26 23 27 108 27 48 0 125 -7 171 -16z"/>
<path d="M16300 8704 c-28 -6 -125 -96 -144 -134 -8 -14 -16 -70 -19 -125 -9
-155 -61 -327 -182 -610 -27 -60 -76 -191 -111 -290 -35 -99 -88 -241 -119
-315 -31 -74 -62 -151 -69 -170 -53 -142 -144 -389 -168 -455 -41 -110 -74
-184 -132 -290 -27 -49 -58 -106 -68 -125 -23 -44 -24 -132 -1 -155 31 -32 70
-38 272 -41 243 -3 275 4 286 64 12 66 57 185 106 284 27 53 52 111 56 130 7
41 41 109 62 126 17 14 177 12 776 -8 297 -10 369 -19 392 -47 36 -47 97 -210
137 -368 36 -144 61 -209 97 -260 l32 -45 118 0 c160 0 371 44 421 87 39 34
42 66 15 161 -14 48 -33 128 -42 177 -26 135 -50 205 -123 349 -37 72 -84 171
-106 219 -21 48 -63 128 -93 178 -29 50 -77 134 -105 187 -28 54 -62 115 -76
136 -13 21 -54 100 -91 175 -37 75 -95 182 -129 239 -34 56 -71 121 -83 145
-12 23 -57 103 -99 178 -74 130 -79 141 -104 265 -14 71 -34 158 -43 194 l-18
64 -65 22 c-117 40 -218 55 -390 59 -91 2 -176 1 -190 -1z m335 -616 c16 -53
118 -304 160 -395 41 -87 74 -173 130 -338 9 -27 28 -75 42 -105 14 -30 32
-74 39 -97 l13 -43 -358 0 -358 0 -11 25 c-32 69 -4 210 92 468 35 94 78 219
96 277 18 58 46 133 62 168 26 55 32 62 58 62 21 0 30 -6 35 -22z"/>
<path d="M15399 4902 c-28 -25 -29 -30 -19 -57 24 -63 41 -174 41 -267 -1
-119 11 -184 36 -209 11 -11 51 -26 93 -35 69 -14 104 -14 410 1 351 18 666
14 702 -8 45 -28 9 -87 -105 -172 -117 -87 -375 -341 -484 -477 -94 -117 -119
-142 -288 -277 -222 -178 -505 -447 -505 -479 0 -11 6 -37 14 -58 38 -109 66
-390 45 -449 -19 -52 -3 -85 56 -117 53 -29 88 -30 190 -7 53 13 852 48 1075
49 96 0 250 -7 341 -15 121 -10 257 -13 499 -10 310 4 335 6 374 25 22 11 52
28 64 38 l24 18 -18 90 c-11 57 -18 144 -19 239 -1 144 -24 302 -45 315 -4 3
-48 3 -97 0 -71 -5 -100 -12 -153 -37 l-65 -31 -555 -3 c-305 -2 -582 0 -615
5 -61 7 -155 43 -155 58 0 24 187 189 360 319 183 137 465 391 586 528 21 24
89 81 149 127 61 45 134 105 164 134 63 60 120 94 254 150 148 61 133 37 140
232 8 214 3 229 -86 280 -73 43 -156 78 -251 107 -67 21 -79 21 -1097 21
l-1029 0 -31 -28z"/>
</g>
</svg>
