<?xml version="1.0" standalone="no"?>
<!DOCTYPE svg PUBLIC "-//W3C//DTD SVG 20010904//EN"
 "http://www.w3.org/TR/2001/REC-SVG-20010904/DTD/svg10.dtd">
<svg version="1.0" xmlns="http://www.w3.org/2000/svg"
 width="800.000000pt" height="571.000000pt" viewBox="0 0 800.000000 571.000000"
 preserveAspectRatio="xMidYMid meet">

<g transform="translate(0.000000,571.000000) scale(0.100000,-0.100000)"
fill="#000000" stroke="none">
<path d="M3809 5463 c-20 -21 -45 -45 -57 -53 -12 -8 -22 -20 -22 -28 0 -7 -4
-10 -10 -7 -5 3 -10 -1 -10 -9 0 -8 -4 -17 -9 -20 -13 -9 -102 25 -108 40 -3
8 -19 14 -39 14 -19 0 -34 5 -34 10 0 6 -15 10 -34 10 -19 0 -47 5 -62 10 -15
6 -41 13 -58 16 -53 8 -258 8 -316 -1 -58 -8 -173 -40 -202 -56 -10 -5 -26 -9
-35 -9 -10 0 -31 -7 -47 -15 -15 -8 -34 -15 -40 -15 -7 0 -22 -9 -34 -20 -12
-11 -31 -20 -42 -20 -46 0 -130 -69 -130 -106 0 -21 36 -53 69 -61 14 -3 58
-21 97 -40 40 -18 80 -33 89 -33 27 0 45 -26 45 -64 0 -35 -1 -36 -37 -37 -66
-1 -150 -24 -242 -66 -30 -13 -75 -31 -100 -39 -65 -22 -221 -96 -221 -106 0
-4 -9 -8 -19 -8 -11 0 -23 -4 -26 -10 -3 -5 -14 -10 -25 -10 -15 0 -30 -18
-30 -36 0 -9 67 -3 110 10 34 10 46 19 48 36 2 12 12 25 23 27 10 3 19 9 19
14 0 5 7 9 15 9 8 0 29 8 47 18 18 10 53 24 78 32 25 7 49 17 55 22 5 4 19 8
31 8 13 0 26 5 29 10 3 6 18 10 33 10 15 1 38 7 52 15 28 16 105 20 95 5 -5
-8 -32 -22 -100 -50 -11 -5 -36 -12 -55 -15 -19 -4 -48 -13 -65 -20 -16 -7
-59 -23 -95 -35 -36 -12 -69 -26 -75 -31 -5 -5 -15 -9 -23 -9 -15 0 -47 -28
-40 -35 5 -5 61 12 90 26 10 5 25 9 33 9 8 0 15 5 15 10 0 6 7 10 15 10 9 0
29 7 45 15 17 9 30 12 30 7 0 -12 -39 -42 -55 -42 -8 0 -15 -3 -15 -8 0 -4
-15 -13 -32 -20 -58 -24 -83 -36 -98 -48 -8 -6 -35 -23 -60 -36 -25 -14 -61
-35 -80 -46 -19 -12 -53 -31 -75 -43 -22 -12 -42 -25 -45 -28 -3 -3 -27 -17
-54 -31 -27 -14 -68 -39 -90 -57 -23 -18 -48 -33 -57 -33 -8 0 -24 -7 -35 -15
-10 -8 -24 -15 -31 -15 -14 0 -83 -69 -83 -82 0 -23 50 -4 85 32 21 22 44 40
51 40 7 0 14 7 18 15 3 8 14 15 24 15 11 0 25 7 33 16 7 8 36 28 63 42 69 36
67 36 60 19 -3 -9 -30 -27 -59 -42 -115 -56 -274 -190 -385 -326 -42 -51 -47
-65 -23 -71 26 -7 43 1 43 19 0 9 7 23 15 32 8 9 38 43 67 75 60 67 53 60 133
123 33 26 67 54 75 63 8 9 22 20 30 23 8 4 34 18 56 31 41 22 39 20 -43 -78
-47 -55 -90 -108 -96 -116 -7 -8 -31 -38 -55 -66 -23 -27 -42 -56 -42 -62 0
-7 -3 -12 -7 -12 -5 0 -19 -17 -33 -37 -14 -21 -40 -53 -58 -73 -19 -19 -45
-55 -60 -80 -14 -25 -29 -47 -32 -50 -9 -9 -41 -64 -47 -82 -3 -10 -9 -18 -14
-18 -5 0 -9 -9 -9 -19 0 -15 7 -19 30 -19 19 1 30 6 30 16 0 20 82 182 92 182
4 0 8 5 8 11 0 6 21 37 48 69 26 32 56 70 67 86 11 15 30 39 42 52 12 13 24
29 26 35 2 7 8 9 12 5 4 -4 0 -14 -8 -23 -9 -8 -19 -24 -22 -35 -3 -11 -11
-20 -16 -20 -5 0 -9 -6 -9 -13 0 -8 -9 -22 -20 -32 -11 -10 -20 -26 -20 -36 0
-9 -4 -19 -8 -21 -8 -3 -87 -160 -131 -260 -11 -26 -25 -67 -31 -90 -11 -50
-55 -176 -64 -185 -3 -4 -6 -17 -6 -30 0 -17 5 -23 18 -21 22 4 37 25 46 63 7
31 29 114 47 175 6 19 16 49 24 65 7 17 15 37 19 45 3 8 4 2 2 -15 -8 -55 -23
-110 -39 -149 -10 -21 -17 -53 -17 -72 0 -18 -9 -80 -20 -136 -21 -109 -25
-168 -12 -168 5 0 17 6 27 14 16 11 19 28 21 102 2 97 40 304 59 322 4 4 4 -4
0 -17 -10 -34 -21 -292 -17 -433 2 -109 4 -117 24 -124 14 -4 25 -1 33 10 18
24 25 19 25 -18 0 -19 4 -37 9 -40 5 -4 12 -24 16 -45 8 -51 35 -77 64 -61 16
8 20 17 15 35 -4 15 -2 25 5 25 6 0 11 -4 11 -10 0 -5 7 -10 15 -10 17 0 35
-30 35 -60 0 -11 7 -23 15 -27 9 -3 32 -30 51 -60 19 -30 39 -60 44 -66 6 -7
25 -34 43 -62 27 -40 40 -51 65 -53 43 -4 40 10 -11 61 -41 40 -67 75 -94 125
-15 27 37 -14 152 -122 39 -36 76 -66 83 -66 6 0 12 -7 12 -16 0 -8 16 -22 35
-30 45 -19 46 -18 39 11 -5 19 -2 25 11 25 25 0 158 -46 199 -70 44 -24 65
-25 73 -4 7 19 50 13 116 -15 36 -16 39 -20 22 -26 -21 -7 -41 -15 -87 -34
-16 -6 -28 -15 -28 -21 0 -5 -16 -10 -35 -10 -48 0 -96 -21 -120 -53 -11 -15
-24 -27 -28 -27 -12 0 -37 -27 -37 -39 0 -6 -4 -11 -8 -11 -5 0 -22 -11 -38
-25 -16 -14 -32 -25 -36 -25 -5 0 -8 -8 -8 -18 0 -10 -11 -29 -25 -42 -14 -13
-25 -31 -25 -41 0 -9 -3 -19 -7 -21 -23 -10 -53 -119 -53 -193 -1 -26 19 -104
34 -140 16 -38 16 -40 -1 -52 -10 -8 -26 -20 -36 -28 -9 -8 -19 -15 -22 -15
-3 0 -17 -13 -32 -28 -16 -16 -43 -34 -60 -41 -18 -8 -33 -17 -33 -21 0 -3
-11 -13 -25 -20 -16 -9 -25 -22 -25 -38 0 -22 3 -24 28 -18 68 17 87 18 136 3
102 -31 162 -46 216 -52 30 -4 59 -10 65 -13 5 -3 21 -7 35 -9 14 -2 32 -5 40
-6 8 -1 31 -10 50 -19 19 -9 43 -19 54 -22 19 -7 19 -1 -3 -141 -23 -140 -23
-140 -61 -137 -19 2 -43 8 -52 13 -37 20 -45 11 -51 -53 -3 -40 -11 -66 -21
-74 -22 -16 -21 -54 2 -54 16 0 42 -57 42 -95 0 -18 -31 -20 -75 -4 -46 17
-101 3 -135 -33 -17 -17 -30 -38 -31 -47 0 -9 -2 -25 -5 -36 -9 -47 6 -74 57
-97 40 -19 48 -26 43 -43 -4 -11 -10 -22 -15 -25 -8 -6 -14 -58 -11 -100 2
-25 9 -31 79 -65 43 -20 42 -29 -1 -21 -19 4 -64 4 -100 0 -60 -6 -66 -9 -66
-30 0 -22 3 -23 60 -21 41 1 61 6 65 15 4 12 55 13 328 7 570 -12 597 -12 597
-4 0 5 -5 9 -11 9 -29 0 9 20 68 35 38 10 86 26 108 36 34 15 71 18 235 20
196 1 237 -3 276 -28 13 -8 32 -11 48 -7 17 4 37 0 60 -14 21 -13 38 -17 47
-11 20 12 102 11 94 -1 -3 -6 -16 -10 -28 -11 l-22 0 23 -9 c54 -22 429 -50
418 -31 -3 5 -39 12 -78 16 -87 8 -108 13 -108 26 0 6 30 10 73 9 39 -1 101 3
137 9 36 5 92 11 125 12 70 3 85 7 85 23 0 15 69 35 139 41 53 4 81 14 45 16
-10 1 -28 2 -38 3 -10 0 -20 9 -22 19 -2 15 8 17 79 18 45 0 101 0 125 -1 24
-1 42 3 42 9 0 7 -36 11 -103 11 -89 0 -106 3 -125 20 -12 11 -27 20 -34 20
-8 0 -5 5 5 11 10 6 68 12 128 14 60 1 113 5 116 9 8 8 -11 8 -169 6 -84 -1
-128 2 -128 9 0 6 5 11 10 11 6 0 10 8 10 18 0 9 7 25 15 35 19 26 8 87 -21
114 -18 18 -35 23 -73 23 -27 0 -53 -5 -56 -10 -9 -14 -25 -12 -25 3 0 7 10
19 23 27 34 22 90 50 100 50 11 0 37 26 37 37 0 17 -40 32 -69 27 -16 -4 -53
-1 -80 6 l-51 12 1 46 c0 26 3 65 7 86 8 42 6 42 112 66 88 20 280 77 335 98
28 11 71 23 98 27 26 4 47 12 47 17 0 6 6 6 14 -1 11 -9 18 -6 36 19 l22 30
-24 20 c-12 11 -30 19 -40 20 -15 0 -61 43 -122 115 -28 32 -34 70 -13 78 7 3
22 33 32 68 11 35 28 79 37 99 39 75 11 305 -42 350 -10 8 -21 25 -24 36 -10
34 -41 64 -66 64 -13 0 -24 8 -27 20 -3 10 -18 25 -34 32 -16 7 -29 16 -29 20
0 5 -11 8 -25 8 -47 0 -25 17 38 29 34 7 82 18 107 26 71 23 141 34 137 22 -5
-16 -66 -35 -114 -36 -33 -1 -43 -5 -48 -22 -13 -41 11 -45 75 -11 33 18 60
30 60 27 0 -3 15 1 34 9 18 7 52 17 76 21 42 7 43 7 36 -19 -4 -15 -2 -26 4
-26 5 0 10 5 10 10 0 6 9 10 21 10 12 0 23 8 26 20 3 11 12 20 21 20 8 0 28
13 44 30 15 16 32 30 37 30 5 0 13 9 16 20 3 11 10 20 15 20 11 0 80 67 74 72
-2 3 7 15 21 28 14 13 25 27 25 32 0 5 16 31 35 59 19 28 35 49 35 47 0 -16
-27 -77 -47 -106 -13 -19 -23 -42 -23 -51 0 -9 -31 -49 -70 -90 -38 -40 -70
-77 -70 -82 0 -5 13 -9 28 -9 20 0 38 11 60 35 18 19 32 38 32 41 0 4 11 22
25 40 14 18 25 35 25 39 0 15 55 85 71 90 14 5 19 16 19 41 0 19 5 34 10 34 6
0 10 7 10 15 0 19 28 105 42 130 6 11 15 38 19 60 4 22 14 67 23 100 8 33 15
83 16 111 0 28 5 75 10 105 6 29 12 97 15 149 2 52 8 107 13 120 12 33 4 -340
-8 -397 -6 -23 -10 -55 -10 -72 0 -16 -4 -31 -10 -33 -11 -3 -17 -94 -7 -104
4 -4 17 0 29 8 19 13 24 26 26 79 2 34 6 77 9 93 4 17 8 113 10 214 2 100 8
182 12 182 16 0 24 -66 23 -195 -2 -139 7 -175 33 -140 13 16 15 53 14 201 -1
160 -3 186 -20 213 -10 17 -19 39 -19 49 0 9 -9 42 -20 72 -11 30 -20 66 -20
81 0 14 -4 39 -9 55 -5 16 -12 45 -15 64 -4 27 -3 31 5 17 6 -9 12 -27 14 -39
3 -11 12 -29 21 -39 14 -15 18 -16 30 -4 19 19 18 26 -16 92 -16 31 -30 63
-30 69 0 7 -3 14 -7 16 -12 5 -53 84 -53 102 0 9 -4 16 -8 16 -5 0 -15 12 -23
28 -8 15 -20 33 -26 40 -7 7 -13 18 -13 23 0 12 8 4 73 -74 49 -58 82 -72 94
-41 3 10 0 20 -9 25 -24 13 -222 211 -242 241 -10 15 -30 32 -44 39 -15 7 -49
38 -75 71 -27 32 -55 58 -62 58 -7 0 -15 7 -19 15 -3 8 -12 15 -21 15 -8 0
-15 4 -15 10 0 11 -51 60 -63 60 -9 0 -37 25 -37 34 0 7 59 -24 65 -35 4 -5
11 -7 16 -4 5 4 9 2 9 -4 0 -6 16 -18 35 -27 19 -9 35 -20 35 -25 0 -5 6 -9
13 -9 8 0 58 -43 113 -95 54 -52 103 -95 108 -95 5 0 17 -6 25 -14 9 -8 36
-16 61 -18 42 -3 45 -1 48 23 2 21 -2 28 -22 33 -15 3 -37 4 -50 0 -30 -7 -59
8 -107 57 -21 22 -45 39 -54 39 -8 0 -15 9 -15 20 0 11 -5 20 -11 20 -6 0 -23
12 -38 28 -42 42 -73 66 -113 85 -20 10 -40 22 -43 28 -8 11 -103 59 -120 59
-17 0 -65 24 -65 33 0 4 -7 7 -15 7 -8 0 -15 4 -15 8 0 5 -17 16 -37 27 -23
10 -33 20 -25 22 8 3 19 0 25 -6 6 -6 26 -11 44 -11 18 0 33 -4 33 -10 0 -5 9
-10 20 -10 11 0 20 -4 20 -10 0 -5 9 -10 19 -10 10 0 45 -14 77 -31 33 -18 69
-37 81 -43 13 -6 23 -14 23 -18 0 -5 7 -8 15 -8 8 0 25 -5 38 -12 58 -30 59
-30 75 -14 13 12 13 18 2 30 -7 9 -18 16 -25 16 -16 0 -99 42 -103 53 -2 4
-10 7 -18 7 -8 0 -22 4 -32 9 -79 42 -168 80 -224 97 -38 10 -68 22 -68 26 0
5 -16 8 -36 8 -29 0 -75 24 -63 34 63 45 162 106 174 106 8 0 15 3 15 8 0 4 8
12 19 17 93 49 121 68 149 96 47 48 41 77 -18 94 -39 11 -112 45 -145 69 -47
33 -93 56 -114 56 -11 0 -22 4 -25 9 -5 7 -39 13 -136 23 -8 1 -30 9 -48 20
-29 16 -53 17 -260 14 -239 -5 -361 -15 -402 -33 -14 -7 -41 -14 -61 -18 -21
-3 -42 -12 -49 -20 -19 -23 -27 -19 -54 24 -14 21 -40 48 -59 60 -31 19 -41
20 -79 11 -62 -14 -129 -12 -142 3 -10 13 -129 57 -152 57 -5 0 -26 -17 -45
-37z m129 -40 c28 -3 47 -12 55 -24 6 -10 17 -19 24 -19 7 0 13 -4 13 -9 0 -9
-251 -22 -260 -14 -3 3 5 13 18 23 12 10 22 22 22 28 0 15 43 32 65 25 11 -3
39 -8 63 -10z m-593 -12 c6 -5 47 -16 92 -25 45 -8 108 -28 139 -42 l58 -26
-26 -14 c-16 -8 -75 -15 -154 -18 -148 -6 -244 -14 -294 -23 -19 -3 -38 -6
-42 -5 -8 2 -81 -21 -130 -40 -20 -7 -28 -18 -28 -34 0 -13 2 -24 4 -24 2 0
29 12 60 26 31 14 75 27 98 30 37 3 231 21 278 25 8 1 24 1 35 0 19 -2 19 -2
1 -12 -10 -6 -30 -12 -45 -14 -32 -4 -93 -26 -163 -60 -28 -14 -58 -25 -66
-25 -7 0 -19 -6 -26 -12 -7 -7 -27 -24 -44 -37 -33 -25 -42 -51 -18 -51 36 0
21 -22 -42 -65 -69 -46 -100 -83 -88 -104 9 -14 36 -14 36 -1 0 6 6 10 14 10
8 0 16 7 20 15 3 8 17 20 31 27 16 7 25 19 25 35 0 14 6 23 15 23 8 0 20 9 27
20 7 11 17 20 22 20 5 0 17 7 27 16 10 9 25 14 34 11 11 -5 6 -15 -25 -47 -23
-23 -52 -59 -67 -81 -14 -21 -30 -39 -34 -39 -5 0 -9 -9 -9 -20 0 -11 -4 -20
-10 -20 -5 0 -10 -8 -10 -19 0 -10 -22 -48 -50 -85 -27 -37 -50 -71 -50 -77 0
-5 -7 -12 -15 -15 -8 -4 -22 -22 -31 -40 -9 -19 -21 -33 -27 -31 -6 2 -19 28
-29 58 -16 45 -17 63 -9 109 6 30 16 104 21 164 6 60 16 118 21 128 13 25 -22
76 -59 84 -15 4 -31 10 -37 14 -5 4 -25 10 -43 14 -19 3 -46 15 -62 26 -15 11
-33 20 -39 20 -6 0 -11 7 -11 15 0 8 8 15 19 15 10 0 36 16 57 36 37 35 165
104 191 104 7 0 13 4 13 9 0 5 24 20 53 34 49 24 61 26 217 26 92 1 170 -3
175 -8z m869 -47 l31 -27 -35 6 c-19 4 -59 10 -87 13 -79 10 -66 30 21 33 28
1 47 -6 70 -25z m861 -9 c39 -9 97 -19 130 -21 33 -3 69 -9 80 -13 11 -5 39
-16 63 -25 24 -9 53 -25 65 -37 12 -11 41 -30 64 -41 24 -12 43 -25 43 -29 0
-3 9 -9 20 -12 11 -3 20 -10 20 -16 0 -9 -81 -71 -94 -71 -2 0 -42 -23 -88
-51 -46 -28 -103 -61 -128 -72 -53 -25 -62 -33 -84 -74 -20 -40 -20 -72 0
-101 13 -19 15 -43 12 -133 -3 -60 -8 -112 -11 -116 -22 -22 -86 131 -69 164
12 23 -31 118 -65 140 -12 8 -23 21 -23 29 0 7 -10 19 -22 25 -13 7 -25 15
-28 18 -9 11 -89 71 -94 71 -13 0 -95 58 -131 94 -28 26 -34 36 -20 33 100
-28 165 -50 165 -58 0 -5 7 -9 15 -9 8 0 41 -28 74 -62 52 -53 62 -59 76 -48
21 17 15 50 -10 64 -11 6 -22 14 -25 18 -21 27 -174 108 -205 108 -14 0 -32 7
-110 40 -22 9 -53 20 -70 24 -16 4 -47 15 -70 25 -22 10 -49 22 -60 26 -19 8
-19 8 -1 13 22 5 142 -23 183 -42 71 -34 201 -86 229 -92 21 -4 34 -1 43 10
14 17 7 36 -14 36 -7 0 -49 13 -92 28 -149 54 -178 64 -218 74 -60 14 -135 28
-180 34 -22 3 -41 7 -43 9 -8 8 140 45 203 51 39 4 72 8 74 11 12 10 333 -7
396 -22z m-1815 -233 c0 -11 -41 -34 -48 -28 -3 4 3 13 14 21 21 16 34 19 34
7z m980 -489 c40 -3 68 -11 73 -19 4 -8 20 -14 35 -14 29 0 72 -15 142 -48 25
-12 53 -22 63 -22 10 0 24 -6 31 -12 23 -25 76 -147 76 -177 0 -24 4 -31 19
-31 34 0 45 26 32 71 -7 23 -10 43 -8 46 6 6 91 -41 129 -70 34 -28 38 -89 8
-127 -11 -14 -20 -28 -20 -32 0 -4 -13 -30 -30 -58 -16 -28 -30 -57 -30 -65 0
-8 -3 -15 -8 -15 -4 0 -12 -12 -19 -27 -47 -109 -57 -188 -32 -260 30 -87 79
-154 139 -187 19 -11 46 -30 60 -43 14 -13 29 -23 35 -23 18 0 83 -59 112
-103 65 -96 81 -153 90 -306 5 -91 -11 -211 -29 -211 -4 0 -8 -9 -8 -20 0 -11
-4 -20 -10 -20 -5 0 -10 -7 -10 -16 0 -17 -59 -104 -71 -104 -4 0 -31 -22 -60
-50 -29 -27 -56 -50 -60 -50 -3 0 -26 -16 -50 -35 -24 -19 -51 -35 -59 -35 -9
0 -20 -4 -25 -9 -6 -5 -30 -11 -55 -14 -63 -7 -121 -21 -149 -36 -31 -17 -311
-29 -311 -13 0 6 -33 12 -85 14 -47 2 -85 -1 -85 -6 0 -4 -8 -5 -17 -1 -10 4
-88 9 -173 11 -144 3 -268 21 -312 45 -10 5 -40 9 -68 9 -27 0 -50 3 -50 8 0
4 -30 8 -67 10 -36 1 -71 6 -77 10 -6 4 -27 9 -46 11 -19 1 -62 15 -95 32 -64
31 -242 174 -289 231 -15 18 -34 41 -41 50 -8 9 -19 36 -25 60 -6 24 -15 52
-19 63 -19 46 -31 120 -31 189 0 74 1 78 73 236 17 37 169 184 206 199 17 8
31 17 31 22 0 5 4 9 10 9 16 0 104 70 120 96 8 13 18 24 22 24 5 0 8 5 8 12 0
6 6 19 14 27 15 16 15 19 -10 191 -3 19 -8 39 -13 45 -4 5 -14 36 -21 68 -7
32 -24 69 -36 82 -17 19 -24 39 -25 80 -1 30 -1 56 2 58 35 26 268 123 315
131 l32 5 -19 -39 c-20 -40 -26 -130 -10 -130 17 0 41 30 47 58 7 36 46 124
61 140 6 6 26 12 43 12 17 0 50 9 73 20 23 11 72 23 109 27 38 3 71 10 74 14
3 5 54 9 114 9 69 0 111 4 116 11 4 7 20 9 43 4 20 -3 65 -9 101 -12z m-2110
-113 c0 -5 -4 -10 -10 -10 -5 0 -10 5 -10 10 0 6 5 10 10 10 6 0 10 -4 10 -10z
m-382 -1356 c3 -44 1 -64 -7 -64 -7 0 -11 21 -11 58 0 31 -3 68 -6 82 -5 23
-4 23 7 6 6 -10 14 -47 17 -82z m49 -96 c-3 -8 -6 -5 -6 6 -1 11 2 17 5 13 3
-3 4 -12 1 -19z m543 -449 c0 -14 -15 -11 -38 10 -31 26 -27 32 8 15 17 -9 30
-20 30 -25z m695 -59 c4 -6 -16 -10 -54 -10 -33 0 -63 5 -66 10 -4 6 16 10 54
10 33 0 63 -4 66 -10z m75 -20 c12 -8 9 -10 -12 -10 -16 0 -28 5 -28 10 0 13
20 13 40 0z m50 -10 c0 -5 -7 -10 -16 -10 -8 0 -12 5 -9 10 3 6 10 10 16 10 5
0 9 -4 9 -10z m2475 -10 c-10 -11 -23 -20 -29 -20 -6 0 0 9 14 20 32 25 38 25
15 0z m-2340 -10 c10 -11 23 -20 29 -20 6 0 31 -18 56 -41 50 -45 225 -136
280 -145 50 -8 130 -34 130 -42 0 -4 -33 -23 -72 -42 -40 -19 -86 -47 -103
-61 -47 -39 -156 -109 -171 -109 -7 0 -29 -10 -49 -21 -57 -34 -163 -32 -238
4 -32 15 -60 36 -63 45 -3 9 -11 28 -17 41 -22 44 -12 154 19 213 15 29 32 63
38 75 6 13 14 23 19 23 4 0 7 7 7 15 0 7 6 18 13 22 8 4 22 20 32 36 21 33 63
36 90 7z m-395 1 c0 -5 -7 -11 -15 -15 -15 -5 -20 5 -8 17 9 10 23 9 23 -2z
m571 -4 c24 -7 78 -14 119 -16 41 -2 80 -6 85 -9 15 -10 53 -12 227 -11 94 0
166 -5 178 -11 11 -6 20 -7 20 -3 0 4 20 8 45 9 25 0 45 -2 45 -6 0 -8 51 -22
87 -24 12 0 24 -4 27 -7 15 -14 -167 -79 -223 -79 -16 0 -31 -5 -33 -11 -5
-15 -328 -15 -337 0 -3 5 -26 14 -51 21 -55 15 -170 70 -170 82 0 4 -8 8 -18
8 -11 0 -27 9 -37 20 -10 11 -26 22 -36 25 -11 4 -19 11 -19 16 0 13 39 11 91
-4z m2119 -27 c0 -5 -5 -10 -10 -10 -6 0 -27 -16 -46 -36 -20 -19 -39 -32 -42
-29 -7 7 76 84 91 85 4 0 7 -4 7 -10z m-2552 -32 c-2 -13 -6 -22 -10 -20 -5 1
-21 2 -38 2 -23 0 -30 4 -30 20 0 17 7 20 41 20 36 0 40 -2 37 -22z m-118 -3
c0 -16 -35 -21 -45 -6 -4 8 9 15 38 20 4 0 7 -6 7 -14z m190 1 c0 -8 -4 -18
-10 -21 -5 -3 -10 3 -10 14 0 12 5 21 10 21 6 0 10 -6 10 -14z m1412 -8 c3 -7
15 -13 28 -13 19 0 32 -13 57 -55 18 -30 35 -62 39 -70 3 -8 17 -38 30 -66 44
-93 55 -254 20 -292 -15 -17 -67 -34 -111 -37 -5 0 -15 -4 -22 -8 -6 -4 -15
-3 -18 3 -4 6 -15 8 -25 5 -10 -3 -44 1 -74 9 -31 8 -56 11 -56 8 0 -4 -4 -1
-9 7 -5 8 -23 14 -40 13 -17 0 -34 5 -38 12 -12 19 -69 56 -87 56 -8 0 -19 6
-23 13 -4 7 -21 21 -38 31 -16 11 -45 35 -63 55 -19 20 -47 50 -63 68 -16 17
-29 36 -29 42 0 6 -7 11 -16 11 -8 0 -12 5 -9 10 3 6 -3 10 -14 10 -11 0 -22
4 -25 9 -6 9 14 14 114 31 55 9 210 54 242 71 10 5 23 9 29 9 6 0 22 9 36 20
14 11 33 20 43 20 9 0 25 9 35 20 20 22 81 28 87 8z m928 4 c0 -8 -43 -32 -55
-32 -11 0 -4 29 8 33 20 9 47 8 47 -1z m-2600 -22 c0 -15 7 -20 28 -20 35 0
45 -9 31 -27 -8 -9 -8 -17 0 -26 8 -11 6 -18 -9 -32 -11 -10 -20 -24 -20 -31
0 -8 -15 -14 -37 -16 -27 -2 -39 -8 -41 -20 -3 -14 3 -18 23 -18 20 0 27 -6
32 -30 6 -33 23 -41 23 -12 0 27 20 42 58 42 30 0 33 -2 26 -22 -3 -12 -12
-27 -18 -33 -6 -7 -22 -26 -35 -44 -21 -27 -29 -31 -55 -25 -17 4 -35 13 -41
20 -5 7 -26 14 -45 16 -30 3 -35 6 -32 26 3 17 -2 22 -18 22 -13 0 -24 -8 -27
-20 -3 -11 -13 -20 -23 -20 -19 0 -53 -33 -44 -43 4 -4 18 -4 30 -1 22 6 24 3
24 -36 0 -49 20 -51 34 -2 6 20 17 32 30 34 31 5 68 -13 61 -30 -3 -7 -5 -25
-5 -38 0 -36 -42 -71 -162 -134 -32 -17 -58 -34 -58 -39 0 -9 -45 -31 -64 -31
-8 0 -16 9 -19 20 -4 16 -11 19 -30 15 -19 -5 -28 -2 -37 14 -12 24 -30 28
-30 7 0 -16 -21 -26 -55 -26 -27 0 -50 47 -41 85 8 33 36 33 36 1 0 -38 20
-42 33 -7 10 28 15 31 57 31 46 0 70 13 70 37 0 11 -13 13 -60 7 -62 -7 -66
-5 -51 25 11 20 -2 47 -18 37 -6 -4 -11 -18 -11 -32 0 -17 -5 -24 -20 -24 -13
0 -20 7 -20 20 0 11 5 20 10 20 6 0 10 6 10 14 0 26 53 97 64 86 5 -5 18 -10
28 -10 14 0 18 -8 18 -36 0 -28 3 -35 18 -32 10 2 18 14 20 31 4 33 26 45 48
26 12 -10 18 -9 31 3 20 21 11 34 -28 42 -24 4 -30 10 -25 23 4 9 1 20 -6 25
-20 12 -26 10 -30 -14 -2 -18 -11 -24 -38 -26 l-35 -4 60 59 c33 33 72 68 88
77 24 16 27 17 27 2 0 -12 10 -16 40 -16 27 0 40 -4 39 -12 -6 -48 14 -66 25
-23 5 21 12 25 41 25 18 0 37 5 40 10 10 17 -15 40 -43 40 -20 0 -23 3 -14 12
7 7 12 19 12 28 0 9 19 21 48 31 65 23 82 23 82 -1z m-186 -54 c-4 -10 -17
-16 -35 -16 -38 0 -37 7 4 24 37 15 40 15 31 -8z m352 -3 c-4 -16 -10 -44 -14
-63 -7 -32 -11 -35 -45 -38 -42 -4 -42 -3 -21 57 8 24 13 50 10 58 -4 9 5 13
35 13 40 0 41 -1 35 -27z m1754 -10 c199 -53 281 -81 302 -104 9 -11 23 -19
32 -19 9 0 16 -4 16 -8 0 -4 14 -16 30 -25 17 -10 30 -24 30 -32 0 -7 3 -15 8
-17 12 -5 62 -104 56 -111 -3 -3 1 -16 8 -29 9 -15 14 -55 13 -113 l0 -90 -29
-3 c-16 -2 -32 1 -35 7 -4 6 -25 1 -58 -14 -58 -28 -83 -24 -83 11 0 22 3 24
39 18 30 -5 39 -3 45 11 9 24 -1 35 -33 35 -21 0 -30 6 -34 22 -6 21 -7 21
-25 5 -12 -11 -35 -17 -65 -17 -25 0 -52 -6 -59 -13 -10 -11 -15 -11 -30 2
-10 8 -18 21 -18 28 0 7 -5 13 -10 13 -7 0 -10 25 -8 68 l3 67 38 3 c46 4 49
20 5 24 -31 3 -33 5 -30 36 4 42 -11 41 -32 -3 -14 -28 -21 -34 -45 -32 -26 2
-30 7 -41 53 -19 80 -14 90 46 86 36 -3 54 1 63 12 11 13 9 16 -11 20 -12 3
-39 7 -58 8 -34 3 -35 5 -34 41 1 25 -3 37 -12 37 -8 0 -14 -6 -14 -13 0 -7
-6 -21 -12 -30 -11 -15 -16 -10 -40 38 l-28 55 28 -6 c15 -3 52 -13 82 -21z
m-894 -173 c19 0 74 -53 74 -72 0 -21 -76 -58 -119 -58 -55 0 -98 53 -85 105
5 20 14 25 47 28 23 2 48 2 55 0 8 -2 20 -3 28 -3z m-856 -96 c0 -20 -5 -35
-12 -35 -7 -1 -26 -2 -43 -3 -41 -1 -39 -28 3 -40 30 -8 32 -12 32 -53 0 -37
3 -44 18 -41 11 2 18 14 20 33 8 63 33 69 117 25 38 -20 71 -30 101 -30 32 0
44 -4 44 -15 0 -10 -11 -15 -35 -15 -41 0 -49 -24 -11 -34 20 -5 26 -14 32
-51 5 -35 10 -45 25 -45 15 0 19 7 19 40 l0 40 48 0 c54 0 86 14 63 29 -7 5
-31 9 -53 9 -22 1 -41 2 -43 4 -2 2 -1 15 2 30 11 59 114 42 123 -20 7 -43 22
-45 32 -5 6 25 14 32 36 35 38 4 38 42 0 46 -16 2 -28 9 -28 16 0 14 56 69 88
85 21 11 22 10 18 -23 -2 -19 -9 -51 -15 -71 -6 -19 -15 -50 -21 -68 -5 -18
-10 -52 -10 -75 0 -22 -5 -44 -11 -47 -6 -4 -8 -13 -5 -21 3 -8 2 -22 -4 -32
-5 -9 -11 -29 -15 -44 -5 -25 -10 -28 -45 -28 -40 0 -40 0 -40 40 0 46 -15 53
-25 13 -8 -32 -25 -46 -40 -33 -6 5 -17 5 -24 0 -11 -6 -8 -14 14 -35 21 -22
26 -34 21 -56 -4 -24 -2 -29 14 -29 13 0 20 8 22 28 3 23 8 27 38 28 62 1 70
4 70 19 0 35 41 37 230 10 14 -2 60 -6 103 -10 64 -6 77 -10 75 -24 -2 -11
-16 -17 -46 -19 -56 -4 -60 -32 -3 -32 37 0 39 -1 45 -40 9 -55 34 -54 38 2
l3 43 41 -3 c30 -3 43 1 47 12 8 20 -3 26 -47 24 -20 -1 -39 2 -43 6 -12 11
19 26 55 26 19 0 32 5 32 13 0 6 7 25 15 40 11 22 12 34 4 49 -8 14 -8 23 0
31 6 6 11 51 11 108 0 116 11 134 60 99 16 -12 30 -23 30 -24 0 -13 -35 -68
-47 -74 -14 -8 -13 -12 3 -31 11 -12 21 -34 24 -49 6 -34 26 -26 22 9 -4 38
15 49 68 39 26 -5 49 -5 55 1 16 16 -13 34 -58 35 -23 0 -41 4 -39 7 1 4 2 14
2 22 0 16 35 21 45 5 3 -5 31 -17 63 -26 117 -35 144 -54 75 -54 -47 0 -68
-13 -59 -35 4 -12 15 -16 38 -13 l33 3 3 -60 c1 -33 5 -67 8 -75 10 -24 33 38
34 87 l0 42 48 3 c34 2 47 7 47 18 0 10 -12 16 -37 18 -60 5 -44 22 20 22 31
0 77 7 102 15 25 8 56 17 71 19 15 3 31 17 40 35 l14 29 45 -49 c43 -46 49
-69 9 -33 -16 15 -20 15 -41 0 -12 -9 -30 -16 -40 -16 -11 0 -18 -8 -18 -20 0
-13 7 -20 20 -20 17 0 20 -7 20 -45 l0 -45 -40 0 c-39 0 -52 12 -29 26 8 4 8
9 0 17 -9 9 -18 4 -35 -18 -21 -26 -23 -38 -19 -85 6 -69 10 -83 23 -75 5 3
10 24 10 46 0 38 1 39 38 40 20 1 47 0 60 -1 20 -1 22 3 22 53 0 82 4 87 64
87 40 0 57 -5 72 -20 10 -12 28 -28 39 -38 26 -23 69 -67 134 -136 49 -53 53
-60 38 -71 -12 -9 -17 -27 -17 -62 0 -55 -13 -73 -45 -64 -14 4 -20 15 -20 35
0 42 -20 43 -39 2 -17 -36 -33 -46 -71 -46 -22 0 -50 -22 -40 -32 3 -3 26 -3
50 0 l44 4 3 -43 c2 -31 7 -44 18 -44 15 0 17 5 19 58 1 25 4 27 40 27 49 0
69 19 77 72 4 22 13 42 21 45 13 5 142 -112 143 -129 0 -5 -22 -8 -50 -8 -47
0 -50 2 -50 25 0 31 -13 32 -29 2 -7 -13 -27 -29 -44 -37 l-32 -13 28 -4 c15
-3 27 -7 27 -11 0 -19 -168 -74 -262 -86 -12 -2 -30 -6 -38 -9 -18 -7 -144
-36 -146 -34 -1 1 3 24 10 51 l11 48 53 -6 c42 -5 54 -3 59 9 8 22 2 26 -61
32 l-56 6 2 33 c4 60 -25 55 -38 -7 -6 -26 -39 -49 -69 -49 -8 0 -15 -7 -15
-16 0 -14 7 -15 41 -10 l42 7 -7 -47 c-3 -26 -7 -48 -9 -49 -1 -2 -58 -6 -127
-10 -105 -6 -122 -5 -113 7 8 9 9 19 3 28 -6 8 -10 27 -10 43 0 26 2 27 53 27
48 0 77 12 77 31 0 4 -28 6 -62 6 -63 -2 -66 0 -53 36 10 26 -20 22 -42 -6
-10 -12 -38 -28 -62 -36 -32 -9 -41 -15 -32 -24 6 -6 27 -10 46 -9 34 3 40 -3
36 -36 -1 -8 5 -25 14 -39 9 -13 15 -27 12 -29 -2 -2 -31 -7 -65 -10 -35 -4
-62 -12 -62 -18 0 -7 -3 -7 -8 1 -4 7 -47 14 -109 17 -57 2 -110 9 -120 15
-21 12 -25 11 57 18 60 4 85 16 74 34 -2 4 -36 5 -74 2 l-70 -6 0 37 c0 29 -4
36 -20 36 -16 0 -20 -7 -20 -30 0 -27 -3 -30 -34 -30 -25 0 -42 -8 -65 -32
-27 -28 -34 -31 -51 -20 -10 6 -21 8 -24 4 -7 -11 -47 -7 -74 7 -12 6 -27 9
-32 6 -5 -3 -26 1 -47 9 -21 8 -50 17 -65 20 -21 5 -28 12 -28 31 0 13 -4 27
-10 30 -21 13 -9 25 24 25 47 0 66 9 66 31 0 18 -5 19 -50 13 -42 -6 -50 -4
-50 10 0 22 -17 20 -23 -3 -3 -12 -19 -22 -43 -28 -24 -5 -40 -15 -42 -26 -3
-15 2 -17 36 -11 37 6 40 4 46 -21 4 -15 5 -30 2 -33 -3 -2 -32 1 -63 7 -32 7
-76 15 -98 17 -22 3 -56 8 -75 13 -80 21 -180 40 -255 51 -92 14 -104 21 -98
55 4 20 12 24 47 27 33 2 41 7 41 23 0 17 -6 19 -52 16 l-52 -2 6 37 c5 29 3
36 -8 32 -7 -2 -18 -19 -23 -36 -8 -28 -21 -37 -48 -33 -4 0 -19 -4 -33 -9
-39 -15 -21 -30 36 -30 46 0 49 -1 49 -26 0 -25 -2 -26 -37 -19 -21 3 -42 11
-48 16 -5 5 -24 9 -42 9 -18 0 -33 5 -33 10 0 6 -7 10 -16 10 -18 0 -43 28
-44 48 0 9 11 13 33 11 39 -4 58 6 51 26 -4 9 -24 15 -52 17 -43 3 -47 5 -53
33 l-6 30 -14 -32 c-10 -25 -20 -33 -39 -33 -28 -1 -60 -21 -60 -39 0 -15 -14
-14 -57 4 -19 8 -48 15 -64 15 -16 0 -37 4 -47 9 -9 5 -25 12 -34 15 -31 9
-20 24 23 31 51 9 46 29 -9 33 -41 3 -42 4 -42 38 0 24 5 34 15 34 8 0 15 4
15 9 0 5 8 11 18 14 9 4 27 14 40 23 19 14 22 14 22 2 0 -11 10 -15 38 -14 36
1 37 0 40 -36 4 -42 17 -50 28 -15 8 28 35 54 60 59 10 2 19 10 19 18 0 11 -9
14 -32 12 -27 -3 -33 0 -33 17 0 13 12 26 33 36 17 8 45 26 61 40 16 14 34 25
39 25 23 0 87 -24 87 -32 0 -10 25 -38 34 -38 3 0 6 11 6 25 0 17 4 23 15 19
22 -9 76 18 73 36 -3 11 -14 14 -46 12 -39 -4 -56 8 -32 23 6 3 10 17 10 31 0
23 32 72 88 134 13 14 32 40 44 58 l20 33 14 -27 c8 -14 14 -42 14 -60z m670
43 c0 -38 21 -70 63 -101 35 -25 47 -28 88 -23 27 3 61 14 76 24 40 25 83 69
83 84 0 7 16 -2 35 -21 26 -26 32 -37 24 -47 -8 -9 -8 -21 -1 -40 11 -28 10
-88 -2 -100 -3 -3 -6 -39 -6 -79 0 -40 -5 -85 -12 -99 -12 -26 -13 -26 -112
-24 -56 1 -105 5 -111 9 -5 4 -17 8 -25 8 -50 5 -88 11 -105 18 -11 5 -37 8
-57 8 -36 1 -38 2 -38 33 0 32 5 56 36 183 9 36 20 83 25 105 5 22 11 47 13
55 3 8 5 18 5 23 2 18 21 4 21 -16z m1140 -92 c11 -13 10 -20 -1 -41 -13 -25
-14 -25 -23 -5 -5 12 -13 21 -18 21 -4 0 -8 9 -8 20 0 24 32 27 50 5z m-2032
-127 c-5 -15 -58 -24 -58 -9 0 11 17 19 43 20 11 1 17 -4 15 -11z m2225 -88
c3 -11 1 -20 -5 -20 -5 0 -21 9 -35 20 l-26 20 30 0 c22 0 32 -6 36 -20z
m-2639 -22 c20 -28 20 -38 0 -38 -15 0 -53 37 -54 53 0 16 40 5 54 -15z m111
12 c-3 -5 -19 -10 -35 -10 -16 0 -32 5 -35 10 -4 6 10 10 35 10 25 0 39 -4 35
-10z m2745 -61 c0 -10 -4 -21 -10 -24 -5 -3 -10 -15 -10 -26 0 -10 -9 -27 -20
-36 -11 -10 -20 -27 -20 -38 -1 -19 -1 -19 -14 -2 -11 14 -11 27 0 73 7 30 17
61 24 69 15 18 50 7 50 -16z m-100 -38 c0 -47 -22 -49 -47 -5 -10 19 -10 21 8
17 10 -3 19 0 19 6 0 6 5 11 10 11 6 0 10 -13 10 -29z m-2840 -81 c0 -17 -6
-20 -37 -19 -31 0 -34 2 -18 9 11 5 16 9 10 10 -10 1 22 18 38 19 4 1 7 -8 7
-19z m360 -134 c0 -2 3 -11 6 -20 5 -13 0 -15 -27 -10 -59 10 -66 14 -49 24
15 10 70 14 70 6z m175 -146 c6 -4 28 -10 50 -13 185 -25 265 -39 295 -51 19
-8 58 -17 85 -20 28 -4 64 -11 80 -16 17 -5 63 -14 103 -19 162 -24 213 -35
224 -48 6 -8 11 -42 11 -76 l0 -62 -34 -7 c-61 -12 -682 -4 -704 9 -26 16
-180 53 -218 53 -22 0 -28 4 -23 15 3 8 12 52 21 98 9 45 20 99 26 120 10 37
12 38 42 32 18 -4 37 -11 42 -15z m1155 -140 c0 -5 -7 -10 -15 -10 -8 0 -15 5
-15 10 0 6 7 10 15 10 8 0 15 -4 15 -10z m25 0 c3 -5 1 -10 -4 -10 -6 0 -11 5
-11 10 0 6 2 10 4 10 3 0 8 -4 11 -10z m-113 -46 c73 -4 111 -10 119 -20 8
-10 16 -11 29 -4 12 6 57 6 127 -1 59 -5 126 -7 148 -3 22 4 83 8 135 10 52 2
124 4 160 6 l65 3 1 -30 c0 -16 4 -52 8 -79 l8 -49 -59 8 c-32 5 -107 8 -168
7 -60 -2 -182 -2 -270 -2 -241 1 -335 -1 -385 -5 -25 -2 -52 0 -60 5 -8 5 -11
10 -6 10 6 0 0 9 -12 20 -22 21 -29 69 -16 118 5 19 12 22 38 18 17 -3 79 -8
138 -12z m-1208 -104 c55 -6 104 -14 110 -19 6 -5 38 -12 71 -16 33 -4 68 -11
78 -16 18 -10 255 -21 367 -18 36 1 83 2 105 1 22 0 86 -1 143 -2 56 -1 105
-6 108 -11 3 -5 3 -22 -1 -38 -5 -23 -13 -30 -53 -39 -26 -5 -51 -8 -56 -4 -6
3 -22 7 -36 9 -50 8 -65 10 -65 13 0 4 -53 10 -160 18 -61 4 -115 11 -121 14
-11 7 -307 26 -497 32 -119 3 -138 9 -143 43 -3 21 23 53 39 48 7 -2 57 -9
111 -15z m1401 -91 c11 -6 122 -4 330 5 178 9 288 -7 293 -42 4 -26 10 -27 31
-8 16 15 71 11 71 -4 0 -5 -13 -18 -30 -30 -16 -12 -30 -27 -30 -34 0 -30 -26
-37 -66 -18 -59 29 -103 43 -164 54 -71 12 -298 19 -304 9 -3 -4 -27 -9 -53
-10 -44 -1 -98 -9 -208 -31 -57 -11 -137 -40 -156 -56 -22 -20 -32 -18 -63 15
-32 33 -31 53 4 109 19 30 23 32 77 32 32 0 65 5 73 10 15 10 177 9 195 -1z
m-1391 -27 c5 -8 -54 -38 -106 -55 -18 -6 -31 6 -35 35 -2 10 6 18 20 21 41 8
116 7 121 -1z m526 -75 c19 -6 39 -15 45 -19 5 -4 17 -8 26 -8 9 0 22 -6 28
-14 7 -8 34 -20 62 -26 27 -7 52 -16 55 -21 3 -5 14 -9 25 -9 10 0 19 -4 19
-8 0 -5 12 -14 26 -20 14 -7 40 -24 59 -39 l33 -27 -31 -16 c-18 -10 -48 -21
-67 -25 -19 -4 -39 -11 -45 -15 -15 -11 -77 -20 -205 -31 -63 -6 -158 -14
-210 -19 -52 -6 -124 -12 -160 -16 -61 -6 -158 5 -240 26 -19 5 -61 14 -92 20
-32 6 -58 16 -58 21 0 5 -9 9 -20 9 -26 0 -25 8 4 34 14 11 31 39 38 61 8 25
20 41 32 43 10 2 28 13 39 23 12 10 31 19 44 19 13 0 23 4 23 8 0 5 26 14 58
21 31 7 66 19 78 26 13 9 59 14 134 14 63 1 116 4 119 7 8 8 140 -6 181 -19z
m360 9 c77 -2 86 -6 95 -49 4 -17 12 -35 18 -39 19 -12 -5 -63 -31 -66 -12 -2
-22 1 -22 7 0 5 -10 13 -22 17 -13 4 -41 21 -63 39 -43 35 -133 85 -152 85 -6
0 -15 5 -19 11 -5 9 12 9 62 4 38 -5 98 -9 134 -9z m932 -32 c35 -9 67 -20 73
-25 5 -5 26 -9 47 -9 21 0 38 -4 38 -8 0 -5 16 -14 35 -22 19 -8 35 -17 35
-21 0 -5 19 -17 43 -27 29 -13 49 -31 65 -60 l23 -42 -28 0 c-16 0 -33 -4 -39
-10 -11 -11 -205 -38 -369 -51 -60 -4 -132 -11 -160 -14 -44 -6 -185 5 -255
19 -14 3 -52 10 -85 15 -69 10 -95 19 -95 32 0 5 -10 9 -22 9 -13 0 -32 7 -42
15 -20 15 -20 15 0 30 10 8 24 15 31 15 6 0 18 9 26 20 17 24 141 87 189 97
18 3 35 10 38 14 23 34 343 50 452 23z m407 -55 c12 -12 20 -28 17 -36 -3 -8
-6 -21 -6 -29 0 -26 -29 -26 -55 0 -14 14 -25 30 -25 36 0 5 -4 10 -10 10 -14
0 -12 27 3 33 27 11 54 6 76 -14z m-2469 -13 c5 -13 16 -28 25 -33 13 -8 13
-11 -4 -28 -47 -47 -79 -59 -116 -45 -30 12 -41 65 -19 98 12 18 18 21 24 12
6 -10 13 -9 31 4 32 22 48 20 59 -8z m1355 -261 l40 -35 -135 1 c-87 0 -125 4
-108 9 15 4 42 20 60 34 48 38 93 35 143 -9z"/>
<path d="M3771 4157 c-14 -18 -25 -203 -13 -242 16 -54 72 -37 72 22 0 13 5
23 10 23 15 0 12 146 -2 173 -22 39 -47 48 -67 24z"/>
<path d="M4210 4108 c-16 -27 -20 -51 -20 -131 0 -105 8 -120 49 -97 32 17 51
64 51 127 0 124 -37 171 -80 101z"/>
<path d="M3915 3905 c-22 -8 -41 -15 -42 -15 -2 0 -3 -7 -3 -15 0 -8 -3 -14
-7 -14 -37 6 -69 -55 -78 -146 -7 -68 -6 -71 22 -101 57 -59 87 -74 165 -80
63 -6 79 -4 113 15 22 11 45 21 51 21 18 0 54 37 59 60 2 12 9 28 16 36 8 10
8 18 1 27 -5 6 -13 31 -17 53 -3 23 -15 50 -24 60 -32 33 -66 58 -80 61 -8 1
-17 6 -20 11 -8 13 -79 42 -100 42 -9 -1 -34 -7 -56 -15z m115 -73 c0 -5 17
-14 38 -20 52 -16 74 -42 83 -100 6 -41 4 -51 -18 -79 -13 -18 -33 -33 -43
-33 -10 0 -22 -4 -25 -10 -3 -5 -34 -10 -69 -10 -55 0 -66 3 -96 30 -18 16
-42 32 -52 36 -14 4 -18 15 -18 50 0 24 5 44 10 44 6 0 10 9 10 20 0 11 5 20
10 20 6 0 10 6 10 14 0 26 43 45 103 45 31 1 57 -3 57 -7z"/>
<path d="M3106 3403 c-12 -111 5 -132 168 -217 71 -36 140 -75 155 -85 14 -10
47 -28 74 -40 26 -13 47 -26 47 -31 0 -4 25 -19 56 -34 30 -14 65 -35 76 -46
12 -11 33 -20 47 -20 14 -1 53 -7 86 -15 33 -8 77 -15 98 -15 20 0 37 -3 37
-7 0 -5 42 -7 92 -6 95 2 205 29 258 62 14 9 34 22 45 29 11 6 30 16 42 22 12
5 39 20 60 33 21 13 52 32 68 43 17 10 33 17 38 16 4 -1 7 2 7 8 0 9 101 60
121 60 11 0 35 23 87 83 25 30 32 47 32 81 0 51 -21 76 -45 56 -9 -8 -15 -30
-15 -56 0 -24 -5 -44 -10 -44 -6 0 -15 -11 -20 -24 -5 -13 -18 -27 -29 -31
-12 -3 -21 -10 -21 -14 0 -13 -53 -33 -105 -39 -62 -7 -80 -7 -230 2 -181 10
-373 16 -650 21 -236 3 -255 5 -333 30 -46 14 -86 33 -89 41 -3 8 -13 14 -23
14 -35 0 -65 42 -68 95 -4 68 -10 85 -31 85 -15 0 -20 -11 -25 -57z"/>
<path d="M2551 1997 c-7 -13 -26 -28 -43 -35 -36 -13 -33 -36 5 -40 22 -3 27
-8 27 -33 0 -38 19 -37 33 1 7 18 19 30 29 30 10 0 18 5 18 10 0 6 14 10 30
10 24 0 30 4 30 21 0 20 -4 21 -51 15 -38 -5 -50 -4 -48 6 5 43 -11 51 -30 15z"/>
<path d="M5015 2210 c-10 -11 -31 -20 -47 -20 -18 0 -28 -5 -28 -15 0 -10 10
-15 30 -15 29 0 30 -2 30 -43 0 -24 -5 -48 -11 -54 -8 -8 -7 -13 1 -18 19 -12
34 12 40 63 5 47 5 47 45 50 22 1 47 5 55 8 23 8 -8 24 -48 24 -25 0 -32 4
-30 16 4 25 -16 27 -37 4z"/>
<path d="M5117 2060 c-6 -27 -10 -30 -46 -30 -22 0 -43 -4 -46 -10 -3 -6 5
-10 19 -10 13 0 31 -3 40 -6 18 -7 22 -49 6 -59 -16 -10 -12 -35 5 -35 16 0
19 5 29 53 6 24 11 27 50 27 41 0 74 19 59 33 -3 4 -26 7 -49 7 -40 0 -43 2
-41 26 3 38 -19 41 -26 4z"/>
<path d="M3026 1865 c-8 -8 -26 -15 -39 -15 -26 0 -38 -15 -29 -37 2 -7 11
-13 18 -13 10 0 14 -9 12 -27 -4 -39 24 -41 40 -3 12 26 19 30 53 30 46 0 54
24 14 42 -14 6 -25 17 -25 25 0 18 -25 17 -44 -2z"/>
<path d="M4175 1738 c-2 -7 -5 -22 -7 -33 -2 -14 -13 -21 -38 -25 -27 -4 -35
-10 -35 -25 0 -16 6 -19 28 -17 26 3 27 2 27 -41 0 -32 5 -47 16 -51 24 -9 33
1 28 30 -3 14 -2 35 2 46 5 18 12 20 57 15 60 -5 87 0 87 19 0 17 -44 29 -62
18 -16 -10 -59 -6 -76 8 -10 9 -10 15 2 33 8 13 12 25 9 29 -11 10 -33 7 -38
-6z"/>
<path d="M2829 1700 c-12 -39 -13 -40 -56 -40 -37 0 -44 -3 -41 -17 2 -11 11
-17 23 -16 44 6 65 -6 65 -37 0 -40 26 -40 34 0 5 26 10 30 40 30 44 0 66 9
66 26 0 10 -14 14 -50 14 -43 0 -50 3 -50 19 0 11 4 22 10 26 13 8 1 35 -16
35 -7 0 -19 -18 -25 -40z"/>
<path d="M4942 1688 c-8 -20 -19 -28 -37 -28 -35 0 -33 -28 3 -32 24 -3 28 -8
32 -50 3 -26 9 -50 13 -54 9 -9 29 45 25 70 -3 28 9 46 33 46 31 0 22 17 -15
30 -19 6 -37 19 -39 28 -3 13 -7 10 -15 -10z"/>
<path d="M3140 1669 c0 -7 -18 -10 -50 -7 -50 3 -62 -6 -38 -30 7 -7 22 -12
35 -12 20 0 22 -5 25 -57 4 -75 26 -83 30 -11 l3 53 43 3 c27 2 42 8 42 17 0
17 -22 25 -49 18 -16 -4 -21 -1 -21 16 0 11 -4 21 -10 21 -5 0 -10 -5 -10 -11z"/>
<path d="M4445 1630 c-3 -5 -19 -10 -36 -10 -16 0 -29 -4 -29 -10 0 -9 21 -15
43 -11 4 0 7 -2 8 -6 0 -5 2 -19 4 -33 2 -14 0 -39 -5 -56 -5 -20 -3 -36 5
-47 19 -27 25 -20 25 31 0 26 3 56 6 67 6 24 47 45 86 45 36 0 36 17 1 31 -19
7 -29 7 -31 0 -5 -14 -42 -14 -42 -1 0 6 -6 10 -14 10 -8 0 -18 -4 -21 -10z"/>
<path d="M3640 1588 c-12 -25 -19 -28 -60 -28 -29 0 -52 -6 -60 -15 -17 -20
-4 -38 20 -25 26 14 75 13 88 -2 6 -7 12 -26 14 -42 5 -50 28 -44 28 8 l0 45
58 3 c50 3 57 6 60 26 3 22 -12 30 -23 12 -3 -5 -26 -10 -50 -10 -38 0 -44 3
-53 28 l-9 27 -13 -27z"/>
<path d="M4776 1576 c-6 -29 -12 -36 -29 -36 -23 0 -47 -17 -47 -32 0 -4 14
-8 30 -8 30 0 37 -13 30 -59 -3 -27 11 -61 25 -61 12 0 15 11 14 43 -3 80 -5
77 61 77 53 0 60 2 60 20 0 18 -7 20 -56 20 l-55 0 3 32 c2 24 -1 33 -13 36
-12 2 -18 -7 -23 -32z"/>
<path d="M3283 1522 c-6 -4 -14 -19 -18 -34 -6 -22 -13 -27 -43 -30 -29 -2
-37 -7 -37 -23 0 -16 7 -20 38 -20 36 0 37 -1 37 -36 0 -39 19 -56 39 -36 6 6
11 25 11 42 0 29 3 31 35 32 38 1 68 19 62 37 -2 6 -24 9 -50 7 -46 -2 -47 -2
-47 28 0 32 -9 44 -27 33z"/>
<path d="M4147 1503 c-4 -3 -7 -15 -7 -25 0 -10 -7 -18 -17 -18 -22 -1 -55
-25 -46 -33 3 -4 19 -7 35 -7 24 0 28 -4 28 -27 0 -35 14 -58 29 -49 7 5 9 20
5 42 -5 29 -4 34 12 32 11 0 36 0 57 0 30 2 37 6 37 22 0 18 -7 20 -60 20 -59
0 -60 0 -54 25 6 23 -4 33 -19 18z"/>
<path d="M3837 1429 c-26 -26 -27 -30 -14 -51 8 -13 18 -38 22 -55 10 -50 25
-39 25 16 l0 50 48 6 c52 7 74 16 80 33 5 16 -80 16 -95 1 -15 -15 -34 -3 -26
16 8 22 -9 16 -40 -16z"/>
<path d="M3760 1959 c-33 -12 -50 -51 -50 -114 0 -87 57 -125 127 -85 49 27
73 69 73 130 0 40 -4 50 -25 64 -26 17 -85 20 -125 5z m108 -73 c6 -49 -31
-106 -68 -106 -33 0 -50 24 -50 72 0 57 14 70 70 66 41 -3 45 -5 48 -32z"/>
<path d="M6005 738 c-27 -15 -35 -28 -35 -60 0 -55 82 -58 96 -3 12 47 -23 83
-61 63z m43 -32 c4 -20 -15 -46 -35 -46 -22 0 -27 29 -7 51 20 22 37 20 42 -5z"/>
<path d="M5651 625 c-34 -39 -56 -78 -76 -136 -16 -45 -5 -93 25 -109 11 -6
20 -24 22 -43 4 -38 24 -38 22 1 -1 22 7 32 41 53 53 33 85 95 85 167 0 61
-16 74 -53 45 -40 -30 -76 -94 -91 -165 -7 -33 -21 -36 -29 -7 -11 41 23 120
75 175 42 44 47 54 30 54 -11 0 -34 -16 -51 -35z m99 -55 c17 -32 -5 -93 -47
-134 -39 -37 -63 -46 -63 -23 0 52 64 177 90 177 5 0 14 -9 20 -20z"/>
<path d="M5801 549 c-32 -74 -40 -139 -18 -157 6 -5 29 -12 50 -14 38 -3 38
-3 58 52 10 30 23 73 29 96 5 22 12 48 16 57 3 9 2 17 -3 17 -5 0 -27 -45 -48
-100 -39 -103 -56 -120 -85 -85 -16 19 -1 76 36 144 22 40 24 61 5 61 -4 0
-22 -32 -40 -71z"/>
<path d="M6110 595 c-13 -16 -30 -87 -31 -130 l-1 -40 -13 35 c-7 19 -14 51
-15 70 -1 19 -5 44 -9 55 -7 18 -9 18 -23 -10 -8 -17 -25 -62 -37 -102 -12
-40 -24 -79 -27 -88 -4 -9 0 -15 9 -15 11 0 21 20 33 60 20 72 30 81 40 38 15
-69 53 -125 55 -80 3 76 20 169 32 186 8 10 20 14 34 10 l21 -6 -23 -35 c-26
-37 -41 -109 -30 -142 16 -53 79 -49 123 8 68 87 76 196 14 189 -35 -4 -72
-73 -72 -135 0 -62 16 -53 23 13 9 83 49 135 63 80 14 -59 -44 -166 -92 -166
-56 0 -54 79 5 163 l37 53 -53 0 c-30 0 -58 -5 -63 -11z"/>
<path d="M5942 506 c-31 -91 -42 -151 -24 -131 8 9 82 209 82 221 0 2 -6 4
-13 4 -8 0 -27 -39 -45 -94z"/>
<path d="M5280 539 c0 -5 5 -7 10 -4 6 3 10 8 10 11 0 2 -4 4 -10 4 -5 0 -10
-5 -10 -11z"/>
<path d="M2260 508 c0 -12 37 -19 64 -12 42 10 30 24 -19 22 -25 -1 -45 -6
-45 -10z"/>
<path d="M5105 500 c-9 -15 -7 -16 33 -25 20 -4 32 -3 32 4 0 10 -13 13 -36
10 -4 0 -10 5 -14 11 -6 9 -9 9 -15 0z"/>
<path d="M5235 480 c-3 -5 -1 -10 4 -10 6 0 11 5 11 10 0 6 -2 10 -4 10 -3 0
-8 -4 -11 -10z"/>
<path d="M2275 420 c3 -5 17 -10 31 -10 13 0 24 5 24 10 0 6 -14 10 -31 10
-17 0 -28 -4 -24 -10z"/>
<path d="M3500 420 c0 -14 26 -23 41 -15 8 6 7 10 -2 16 -19 12 -39 11 -39 -1z"/>
<path d="M4940 420 c0 -13 11 -13 30 0 12 8 11 10 -7 10 -13 0 -23 -4 -23 -10z"/>
<path d="M5060 420 c0 -5 5 -10 10 -10 6 0 10 5 10 10 0 6 -4 10 -10 10 -5 0
-10 -4 -10 -10z"/>
<path d="M5102 418 c3 -7 13 -15 22 -16 12 -3 17 1 14 10 -3 7 -13 15 -22 16
-12 3 -17 -1 -14 -10z"/>
<path d="M3570 411 c0 -4 21 -9 47 -10 26 -1 44 1 41 4 -9 9 -88 14 -88 6z"/>
<path d="M3685 400 c3 -5 10 -10 16 -10 5 0 9 5 9 10 0 6 -7 10 -16 10 -8 0
-12 -4 -9 -10z"/>
<path d="M3740 401 c0 -11 26 -22 34 -14 12 12 5 23 -14 23 -11 0 -20 -4 -20
-9z"/>
<path d="M3805 400 c-3 -5 0 -10 7 -10 7 0 23 -3 36 -6 18 -5 21 -3 16 10 -7
18 -49 22 -59 6z"/>
<path d="M3978 378 c9 -9 15 -9 24 0 9 9 7 12 -12 12 -19 0 -21 -3 -12 -12z"/>
<path d="M4034 378 c-5 -8 -2 -9 11 -5 9 4 24 2 31 -4 12 -10 13 -9 8 5 -7 19
-39 22 -50 4z"/>
<path d="M3356 352 c-8 -13 45 -22 64 -11 12 7 11 8 -7 9 -12 0 -28 3 -36 6
-8 3 -18 1 -21 -4z"/>
<path d="M3450 340 c0 -5 5 -10 10 -10 6 0 10 5 10 10 0 6 -4 10 -10 10 -5 0
-10 -4 -10 -10z"/>
<path d="M3504 328 c10 -5 23 -5 34 1 14 8 10 10 -16 9 -26 -1 -30 -3 -18 -10z"/>
<path d="M3575 330 c4 -6 11 -8 16 -5 14 9 11 15 -7 15 -8 0 -12 -5 -9 -10z"/>
<path d="M3665 331 c-10 -17 12 -21 25 -6 10 12 10 15 -3 15 -9 0 -18 -4 -22
-9z"/>
<path d="M3770 331 c0 -9 52 -22 60 -15 7 7 -23 24 -42 24 -10 0 -18 -4 -18
-9z"/>
<path d="M3715 320 c3 -5 10 -10 16 -10 5 0 9 5 9 10 0 6 -7 10 -16 10 -8 0
-12 -4 -9 -10z"/>
<path d="M3868 323 c7 -3 16 -2 19 1 4 3 -2 6 -13 5 -11 0 -14 -3 -6 -6z"/>
<path d="M3905 320 c3 -5 10 -10 16 -10 5 0 9 5 9 10 0 6 -7 10 -16 10 -8 0
-12 -4 -9 -10z"/>
<path d="M3958 323 c7 -3 16 -2 19 1 4 3 -2 6 -13 5 -11 0 -14 -3 -6 -6z"/>
<path d="M4000 320 c0 -5 6 -10 14 -10 8 0 18 5 21 10 3 6 -3 10 -14 10 -12 0
-21 -4 -21 -10z"/>
<path d="M4820 320 c0 -5 5 -10 10 -10 6 0 10 5 10 10 0 6 -4 10 -10 10 -5 0
-10 -4 -10 -10z"/>
<path d="M4854 318 c-3 -4 16 -8 41 -8 27 0 44 4 40 10 -7 11 -74 10 -81 -2z"/>
<path d="M4160 310 c0 -5 5 -10 11 -10 5 0 7 5 4 10 -3 6 -8 10 -11 10 -2 0
-4 -4 -4 -10z"/>
<path d="M4295 310 c-3 -5 1 -10 10 -10 9 0 13 5 10 10 -3 6 -8 10 -10 10 -2
0 -7 -4 -10 -10z"/>
<path d="M4965 310 c3 -5 8 -10 11 -10 2 0 4 5 4 10 0 6 -5 10 -11 10 -5 0 -7
-4 -4 -10z"/>
<path d="M5020 310 c20 -13 80 -13 80 0 0 6 -21 10 -47 10 -35 0 -44 -3 -33
-10z"/>
<path d="M5768 313 c-49 -13 -4 -18 120 -15 123 3 260 -6 335 -24 22 -5 27 -3
27 13 0 18 -10 20 -127 26 -140 8 -328 7 -355 0z"/>
</g>
</svg>
