<?xml version="1.0" standalone="no"?>
<!DOCTYPE svg PUBLIC "-//W3C//DTD SVG 20010904//EN"
 "http://www.w3.org/TR/2001/REC-SVG-20010904/DTD/svg10.dtd">
<svg version="1.0" xmlns="http://www.w3.org/2000/svg"
 width="1328.000000pt" height="761.000000pt" viewBox="0 0 1328.000000 761.000000"
 preserveAspectRatio="xMidYMid meet">

<g transform="translate(0.000000,761.000000) scale(0.100000,-0.100000)"
fill="#000000" stroke="none">
<path d="M2648 7405 c-2 -2 -43 -5 -93 -8 -249 -16 -538 -98 -754 -214 -88
-47 -132 -73 -141 -83 -3 -3 -23 -17 -44 -30 -91 -55 -259 -214 -344 -325 -26
-33 -50 -61 -54 -63 -4 -2 -8 -8 -8 -13 0 -5 -16 -32 -36 -60 -30 -43 -162
-284 -155 -284 1 0 -2 -11 -7 -25 -5 -14 -10 -28 -11 -33 0 -4 -8 -21 -17 -38
-8 -17 -17 -38 -20 -47 -8 -33 -56 -197 -61 -212 -3 -8 -7 -19 -8 -25 -1 -5
-3 -12 -4 -15 -2 -3 -4 -14 -6 -25 -1 -11 -10 -54 -19 -95 -40 -188 -41 -466
-1 -691 15 -88 57 -242 79 -294 8 -16 27 -61 42 -100 50 -123 139 -273 226
-381 38 -47 231 -238 266 -265 19 -13 39 -29 45 -34 40 -35 164 -105 274 -155
133 -61 274 -104 406 -126 15 -2 42 -7 60 -10 64 -12 354 -12 452 1 115 15
344 66 455 102 79 25 284 124 300 144 6 8 62 21 110 25 19 2 49 6 67 9 28 5
34 2 47 -22 23 -43 76 -95 157 -157 99 -75 149 -117 149 -128 0 -16 -48 -27
-132 -31 l-82 -4 -61 -66 c-62 -70 -100 -89 -153 -81 -16 3 -51 6 -78 8 -27 2
-52 4 -55 5 -4 0 -10 12 -13 26 -9 35 -47 57 -92 53 -30 -2 -43 -10 -60 -36
-12 -18 -21 -40 -19 -50 2 -9 4 -23 4 -30 1 -7 12 -24 26 -36 26 -24 62 -28
110 -12 16 6 34 -6 83 -58 54 -56 62 -69 62 -103 0 -30 -9 -48 -40 -84 -35
-42 -44 -47 -82 -47 -53 -1 -88 -35 -88 -86 0 -56 36 -88 100 -88 28 0 70 43
70 71 0 10 6 23 13 28 15 12 176 63 198 63 24 0 39 -23 44 -66 3 -22 7 -58 10
-82 5 -36 2 -48 -20 -73 -26 -32 -28 -39 -25 -79 2 -31 14 -46 51 -64 82 -41
162 72 99 139 -23 24 -23 25 -4 52 10 15 18 31 17 34 -1 3 11 19 27 34 40 38
120 47 153 18 12 -11 32 -26 45 -32 20 -11 22 -17 17 -56 -9 -56 -2 -77 36
-99 63 -37 132 4 132 79 0 38 -22 65 -66 81 -28 9 -35 21 -66 112 -43 121 -42
122 69 147 l75 16 19 -23 c10 -13 22 -24 27 -24 5 -1 10 -2 12 -4 1 -1 15 -4
30 -6 41 -7 87 42 87 91 0 73 -84 111 -142 65 -28 -21 -49 -20 -97 4 -17 9
-33 16 -36 16 -3 0 -19 7 -36 15 -66 35 -34 40 242 40 283 0 304 3 430 59 61
27 80 54 85 124 5 76 -19 109 -150 203 -50 36 -138 84 -144 79 -3 -2 -44 12
-87 31 -24 10 -113 39 -137 45 -25 6 -54 13 -80 20 -13 3 -49 11 -80 16 -32 6
-58 15 -58 19 0 12 15 12 140 9 58 -2 206 -3 330 -3 210 0 232 2 323 26 168
45 278 120 494 339 194 197 295 292 336 317 l38 23 -6 -33 c-3 -19 -8 -65 -9
-104 l-4 -70 94 -90 c85 -82 94 -93 94 -127 0 -28 -7 -42 -31 -62 -33 -28 -41
-30 -104 -27 -49 3 -81 -20 -94 -65 -10 -36 10 -88 37 -99 60 -24 100 -8 128
50 9 19 24 36 33 36 107 8 110 6 118 -73 4 -51 3 -54 -26 -70 -42 -23 -55 -59
-37 -103 35 -83 142 -80 164 5 9 35 7 44 -12 73 -16 23 -21 43 -18 72 6 57 21
61 65 15 35 -36 38 -45 36 -87 -2 -64 -2 -67 19 -89 20 -22 36 -27 77 -25 69
4 101 96 51 146 -14 14 -34 25 -45 25 -13 0 -29 17 -50 57 -37 68 -57 120 -49
128 16 16 87 -17 114 -53 43 -57 52 -64 89 -69 44 -6 72 10 89 50 14 35 10 60
-16 97 -15 21 -25 24 -80 23 -69 -1 -147 32 -160 68 -12 31 35 70 81 68 63 -4
101 30 101 89 0 31 -36 86 -50 77 -5 -3 -11 -1 -14 4 -10 16 -69 -7 -93 -36
-12 -15 -19 -31 -17 -35 9 -14 -38 -46 -76 -51 -19 -3 -45 -8 -57 -11 -13 -3
-33 4 -49 17 -32 25 -105 102 -118 125 -10 17 -10 70 -1 112 3 14 10 50 16 80
12 60 49 110 82 110 11 0 72 -39 135 -88 185 -140 202 -153 251 -183 25 -15
80 -44 121 -64 65 -32 86 -37 161 -39 160 -6 345 28 544 100 55 19 118 41 140
48 65 21 215 85 288 123 70 37 152 107 142 123 -3 5 -1 11 4 14 14 9 6 98 -13
137 -34 72 -415 434 -540 513 -60 39 -175 96 -202 101 -10 2 -19 4 -19 5 0 2
-14 5 -53 14 -12 3 -26 7 -30 10 -41 25 -233 23 -314 -4 -99 -33 -290 -118
-446 -197 -79 -40 -151 -73 -161 -73 -18 0 -132 32 -184 52 -40 16 -119 134
-132 200 -2 11 16 34 51 64 56 49 54 48 139 28 37 -8 75 -41 75 -65 0 -43 72
-85 117 -68 45 16 72 91 47 128 -21 29 -67 51 -92 44 -14 -3 -32 3 -51 18 -49
39 -40 61 46 107 35 19 46 21 64 12 12 -7 36 -9 54 -6 26 5 37 15 53 46 23 48
18 84 -16 110 -35 28 -87 26 -117 -5 -14 -13 -25 -31 -25 -39 0 -18 -45 -43
-86 -48 -26 -3 -29 0 -27 25 1 15 13 51 27 80 14 29 26 56 25 61 -1 12 22 26
44 26 10 0 30 11 45 25 15 14 23 25 18 25 -5 0 -4 6 2 13 17 20 -3 81 -31 96
-84 45 -159 -18 -133 -110 14 -51 -73 -145 -89 -96 -12 36 -11 88 3 118 21 48
23 61 11 90 -14 36 -51 54 -102 50 -29 -2 -67 -50 -67 -86 0 -35 33 -85 55
-85 14 0 38 -33 31 -41 -2 -2 -6 -24 -9 -48 -6 -54 -28 -73 -82 -70 -46 3 -75
23 -75 53 -1 31 -23 55 -60 66 -60 17 -110 -19 -110 -80 0 -55 24 -79 92 -90
72 -11 111 -31 126 -65 22 -48 15 -70 -40 -120 -113 -101 -156 -146 -154 -158
3 -22 30 -82 43 -95 7 -7 13 -20 13 -29 0 -15 -5 -15 -110 1 -206 32 -458 26
-625 -15 -126 -31 -325 -119 -445 -197 -152 -99 -251 -182 -471 -396 -164
-159 -237 -222 -246 -213 -5 6 38 67 73 104 27 27 136 178 158 218 26 48 40
70 51 77 6 4 6 8 1 8 -4 0 -1 11 7 24 9 13 19 35 21 48 3 12 15 54 26 93 11
38 20 84 20 101 0 57 -42 116 -100 141 -60 25 -274 -64 -390 -161 -144 -122
-271 -215 -286 -209 -19 7 -17 13 40 100 36 56 51 71 66 68 31 -6 76 13 89 38
19 36 17 86 -6 108 -26 26 -97 37 -119 18 -20 -16 -38 -58 -35 -82 2 -13 -18
-27 -73 -53 -86 -41 -111 -39 -125 9 -55 183 -52 167 -31 195 24 30 25 65 3
102 -17 30 -39 40 -85 40 -33 0 -70 -44 -75 -90 -2 -26 4 -38 31 -62 l35 -31
-18 -48 c-10 -26 -17 -50 -14 -52 2 -3 -11 -17 -30 -31 -39 -30 -106 -38 -133
-15 -9 8 -18 13 -18 11 -1 -2 -14 1 -29 7 -24 9 -28 15 -24 40 7 41 -23 87
-62 94 -77 16 -130 -51 -102 -126 8 -21 22 -30 57 -39 37 -10 52 -21 70 -50
13 -21 24 -41 24 -45 0 -3 6 -14 14 -22 48 -55 21 -91 -98 -132 l-88 -31 -23
22 c-75 71 -186 -20 -136 -112 19 -35 77 -51 115 -31 14 7 26 19 26 25 0 25
145 -15 166 -47 18 -28 19 -41 9 -125 -4 -36 -8 -71 -8 -77 0 -7 -6 -13 -13
-13 -47 0 -94 -52 -94 -103 0 -25 38 -82 48 -73 3 3 10 2 17 -4 7 -6 25 -6 48
1 46 12 72 56 63 104 -6 29 -1 37 46 82 85 80 115 94 173 80 40 -10 120 -21
134 -18 8 1 48 25 89 52 41 27 81 49 88 49 21 0 17 -39 -12 -131 -14 -45 -28
-92 -30 -103 -2 -12 -7 -42 -12 -67 -13 -70 -5 -162 17 -179 3 -3 14 -15 24
-27 19 -21 18 -22 -23 -67 -42 -46 -148 -114 -252 -161 -64 -29 -313 -104
-368 -110 -19 -2 -64 -9 -100 -14 -62 -9 -313 -8 -355 2 -11 2 -42 8 -70 12
-62 10 -50 7 -115 30 -30 11 -57 20 -60 20 -18 3 -87 29 -97 37 -6 5 -41 24
-77 42 -88 44 -187 120 -279 211 -281 280 -432 676 -421 1102 3 138 5 167 17
233 4 19 9 54 11 77 5 36 28 143 40 178 2 6 4 13 5 17 2 4 11 31 22 60 11 29
21 58 23 63 7 33 30 88 55 137 16 31 27 58 25 61 -2 2 2 10 11 17 8 7 15 17
15 23 0 6 35 63 77 126 151 229 399 439 643 544 109 48 295 109 370 123 212
38 283 43 510 39 118 -2 226 -6 240 -9 14 -3 41 -8 60 -11 19 -3 60 -10 90
-16 30 -5 65 -10 78 -11 12 0 25 -4 28 -9 2 -4 11 -6 18 -3 8 3 17 0 21 -5 3
-6 11 -9 16 -6 5 4 15 3 22 -2 6 -4 17 -8 22 -10 31 -6 57 -14 120 -33 70 -21
78 -24 147 -54 20 -9 39 -16 44 -16 4 0 32 -12 63 -26 31 -14 72 -33 91 -42
19 -8 43 -22 53 -30 9 -8 17 -11 17 -7 0 4 9 0 20 -10 11 -10 20 -15 20 -12 0
4 39 -20 88 -52 48 -32 98 -64 111 -71 28 -14 34 -19 76 -56 64 -56 147 -116
152 -110 13 12 -135 146 -245 224 -154 108 -237 158 -342 208 -52 25 -106 51
-120 59 -25 13 -186 77 -205 81 -5 1 -30 10 -55 19 -25 9 -56 19 -70 21 -38 7
-143 34 -160 41 -8 3 -22 7 -30 8 -8 2 -40 8 -70 14 -30 7 -73 14 -95 17 -22
3 -51 7 -65 10 -61 10 -404 26 -412 19z"/>
<path d="M1061 2720 c-360 -98 -724 -546 -724 -892 0 -64 5 -87 28 -133 33
-69 79 -106 263 -216 192 -115 273 -172 332 -235 109 -116 118 -211 26 -291
-61 -54 -136 -77 -256 -77 -93 -1 -111 2 -162 26 -72 34 -143 99 -176 163 -22
41 -27 64 -27 127 0 70 3 80 32 122 l33 46 -41 0 c-100 0 -180 -94 -210 -248
-28 -149 14 -288 119 -390 108 -106 238 -148 427 -138 201 10 329 58 436 165
87 87 113 151 107 266 -5 104 -42 186 -123 274 -76 81 -139 129 -309 232 -170
103 -233 157 -242 206 -18 94 53 283 157 418 58 75 175 191 254 250 70 53 239
138 307 154 66 16 150 14 175 -4 71 -50 7 -271 -135 -460 -113 -151 -304 -315
-367 -315 -39 0 7 -48 75 -79 57 -26 101 -26 182 -1 264 81 508 465 459 723
-31 159 -126 258 -294 303 -28 8 -101 17 -162 19 -90 4 -123 2 -184 -15z"/>
<path d="M3123 2531 c-25 -11 -46 -63 -115 -291 -68 -228 -151 -552 -192 -756
-38 -189 -98 -345 -191 -501 -94 -159 -184 -216 -223 -143 -42 78 56 477 208
853 27 65 47 124 44 131 -18 48 -231 94 -322 70 -15 -4 -29 -21 -39 -45 -8
-22 -19 -39 -23 -39 -4 0 -28 11 -51 25 -106 61 -273 84 -368 50 -103 -36
-199 -140 -276 -300 -150 -308 -166 -725 -34 -839 73 -62 198 -83 306 -51 65
19 119 77 189 204 l51 91 7 -61 c13 -133 51 -195 141 -228 97 -36 247 -44 334
-16 30 9 90 82 136 163 22 40 43 72 48 72 4 0 7 -15 7 -32 0 -150 106 -223
325 -223 126 0 152 10 207 74 19 22 52 72 73 111 l39 72 23 -69 c17 -51 33
-77 62 -104 71 -64 198 -87 308 -54 65 19 119 77 189 204 l51 91 7 -61 c13
-133 51 -195 141 -228 97 -36 247 -44 334 -16 31 9 91 83 142 174 l46 81 11
-75 c7 -54 17 -85 36 -109 47 -62 176 -108 203 -73 5 6 20 47 32 91 41 144
154 373 274 556 69 106 160 231 164 227 2 -2 -6 -39 -17 -83 -40 -158 -53
-287 -47 -469 2 -95 10 -183 16 -200 29 -72 114 -128 188 -123 l46 3 37 115
c61 190 203 454 366 676 41 57 77 104 78 104 2 0 -12 -62 -30 -137 -48 -199
-68 -332 -68 -463 0 -180 29 -241 139 -292 43 -20 66 -23 165 -23 178 1 215
26 316 210 28 51 40 64 42 50 12 -74 46 -147 83 -178 73 -63 198 -84 306 -52
65 19 119 77 189 204 l51 91 7 -61 c13 -133 51 -195 141 -228 97 -36 247 -44
334 -16 31 9 91 83 142 174 46 80 47 81 53 50 3 -17 6 -43 6 -58 1 -51 36
-109 86 -141 98 -62 152 -52 173 31 32 128 150 375 263 554 73 114 198 283
198 267 0 -6 -13 -64 -29 -129 -49 -201 -65 -309 -65 -448 -1 -148 9 -188 61
-246 50 -55 113 -74 243 -74 58 0 121 6 141 13 48 17 99 71 157 169 l48 82 22
-73 c17 -59 29 -80 61 -109 53 -48 131 -70 225 -65 110 5 154 32 220 131 30
45 73 120 97 167 l44 85 6 -111 c11 -203 59 -255 262 -284 70 -10 180 0 219
21 82 44 224 334 380 779 l65 184 110 1 110 0 -19 -55 c-105 -305 -154 -640
-113 -777 18 -61 74 -116 137 -135 55 -17 261 -16 310 1 47 15 120 94 179 192
37 63 44 70 47 49 2 -14 12 -53 23 -87 15 -47 30 -71 60 -96 73 -63 198 -84
306 -52 65 19 119 77 189 204 l51 91 7 -61 c13 -133 51 -195 141 -228 97 -36
247 -44 334 -16 30 9 90 82 141 171 49 85 177 378 187 425 5 27 2 31 -41 50
-37 16 -50 18 -62 9 -8 -7 -14 -16 -14 -21 0 -22 -111 -263 -155 -336 -94
-159 -184 -216 -223 -143 -42 78 56 477 208 853 27 65 47 124 44 131 -18 48
-231 94 -322 70 -15 -4 -29 -21 -39 -45 -8 -22 -19 -39 -23 -39 -4 0 -28 11
-51 25 -106 61 -273 84 -369 50 -140 -49 -256 -210 -344 -475 -80 -243 -215
-497 -304 -570 -47 -39 -100 -50 -119 -25 -31 44 -8 149 111 514 46 141 87
270 91 288 8 42 -12 80 -71 132 -47 41 -174 111 -201 111 -8 0 -29 -12 -47
-27 -17 -14 -45 -32 -63 -40 -34 -14 -153 -18 -153 -6 0 4 19 62 42 129 51
147 49 161 -38 201 -63 29 -140 29 -172 0 -35 -31 -67 -145 -67 -234 0 -76 2
-85 33 -127 17 -26 32 -51 32 -56 0 -5 -30 -89 -66 -187 -36 -98 -74 -203 -84
-233 -29 -87 -115 -264 -163 -337 -53 -82 -93 -120 -136 -133 -40 -11 -67 11
-77 67 -9 46 9 212 36 343 61 290 224 829 350 1158 33 84 31 91 -29 121 -71
36 -218 53 -273 32 -16 -6 -29 -25 -41 -62 -53 -157 -112 -351 -148 -484 -22
-82 -42 -155 -44 -162 -3 -8 -22 -3 -62 17 -122 62 -257 77 -360 38 -43 -16
-75 -38 -124 -87 -104 -104 -172 -236 -229 -443 -21 -76 -55 -163 -107 -267
-63 -129 -86 -165 -138 -219 -52 -53 -67 -63 -91 -60 -84 9 -67 151 80 643 36
121 66 232 66 246 0 31 -38 84 -93 128 -51 41 -162 95 -181 88 -22 -9 -210
-233 -311 -373 -52 -71 -125 -180 -162 -241 -36 -62 -68 -113 -69 -113 -4 0
26 123 42 175 9 28 50 135 91 238 41 103 72 195 69 203 -3 8 -27 25 -53 36
-61 27 -257 38 -285 16 -19 -14 -94 -257 -127 -410 -43 -198 -181 -485 -281
-586 -52 -51 -104 -56 -128 -12 -42 78 56 477 208 853 27 65 47 124 44 131
-18 48 -231 94 -322 70 -15 -4 -29 -21 -39 -45 -8 -22 -19 -39 -23 -39 -4 0
-28 11 -51 25 -106 61 -273 84 -368 50 -141 -50 -275 -237 -350 -491 -93 -316
-260 -594 -358 -594 -36 0 -46 33 -40 134 6 100 36 223 122 506 31 102 59 208
62 236 5 49 4 53 -33 94 -46 51 -142 116 -196 132 -36 11 -40 10 -69 -18 -85
-80 -322 -390 -414 -541 -27 -45 -51 -81 -52 -79 -2 2 22 86 52 187 71 237 73
248 45 294 -43 70 -220 178 -260 159 -64 -32 -402 -481 -505 -672 -15 -28 -30
-50 -32 -48 -14 14 84 306 176 525 17 41 31 80 31 88 0 35 -175 79 -277 71
-41 -4 -61 -11 -73 -26 -20 -25 -81 -229 -121 -403 -46 -205 -174 -478 -272
-578 -58 -60 -110 -68 -135 -21 -42 78 56 477 208 853 27 65 47 124 44 131
-18 48 -231 94 -322 70 -15 -4 -29 -21 -39 -45 -8 -22 -19 -39 -23 -39 -4 0
-28 11 -51 25 -106 61 -273 84 -368 50 -147 -51 -276 -239 -356 -515 -51 -176
-176 -430 -248 -505 -51 -52 -92 -73 -122 -61 -58 22 -43 245 41 586 61 249
223 760 320 1013 24 61 15 75 -61 105 -63 26 -214 39 -252 23z m-960 -806 c77
-38 77 -25 7 -212 -199 -530 -356 -794 -411 -691 -8 15 -10 49 -5 106 19 247
162 632 281 758 55 58 75 65 128 39z m1950 0 c77 -38 77 -25 7 -212 -199 -530
-356 -794 -411 -691 -8 15 -10 49 -5 106 19 247 162 632 281 758 55 58 75 65
128 39z m3250 0 c77 -38 77 -25 7 -212 -199 -530 -356 -794 -411 -691 -8 15
-10 49 -5 106 19 247 162 632 281 758 55 58 75 65 128 39z m2612 -14 c18 -10
31 -27 33 -42 3 -30 -91 -285 -182 -491 -131 -299 -236 -433 -277 -356 -14 26
-6 153 16 260 55 259 223 613 309 648 26 11 61 4 101 -19z m2338 14 c77 -38
77 -25 7 -212 -199 -530 -356 -794 -411 -691 -8 15 -10 49 -5 106 19 247 162
632 281 758 55 58 75 65 128 39z"/>
</g>
</svg>
